<svg xmlns="http://www.w3.org/2000/svg" xmlns:xlink="http://www.w3.org/1999/xlink" width="1407.912" height="915.432" viewBox="0 0 1407.912 915.432"><defs><style>.a{fill:none;}.b{clip-path:url(#a);}.c{fill:#0186ff;}.d{fill:#391075;opacity:0.23;}.d,.f,.j{mix-blend-mode:multiply;isolation:isolate;}.e{fill:url(#b);}.f,.j{fill:#ff995f;}.f{opacity:0.44;}.g{fill:url(#c);}.h{fill:url(#d);}.i{fill:url(#e);}.j{opacity:0.3;}.k{fill:url(#f);}.l{fill:url(#g);}.m{fill:url(#h);}.n{fill:#fff;}.o{fill:url(#i);}.p{fill:url(#j);}.q{fill:url(#k);}.r{fill:url(#l);}.s{fill:url(#m);}.t{fill:#a7c6d9;}.u{fill:#fafffe;}.v{fill:url(#n);}</style><clipPath id="a"><rect class="a" width="1407.912" height="915.432"/></clipPath><linearGradient id="b" x1="0.83" y1="-0.082" x2="1.147" y2="1.051" gradientUnits="objectBoundingBox"><stop offset="0.003" stop-color="#ffc25f"/><stop offset="0.538" stop-color="#ffc05f"/><stop offset="0.731" stop-color="#ffb95f"/><stop offset="0.869" stop-color="#ffad5f"/><stop offset="0.979" stop-color="#ff9c5f"/><stop offset="0.999" stop-color="#ff995f"/></linearGradient><linearGradient id="c" x1="0.39" y1="-0.452" x2="0.506" y2="0.823" gradientUnits="objectBoundingBox"><stop offset="0.003" stop-color="#ffd95f"/><stop offset="0.225" stop-color="#ffd25f"/><stop offset="0.523" stop-color="#ffc25f"/><stop offset="0.863" stop-color="#ffa65f"/><stop offset="0.999" stop-color="#ff995f"/></linearGradient><linearGradient id="d" x1="0.416" y1="0.615" x2="1.445" y2="0.615" gradientUnits="objectBoundingBox"><stop offset="0.003" stop-color="#ffd95f"/><stop offset="0.493" stop-color="#ffd75f"/><stop offset="0.669" stop-color="#ffd05f"/><stop offset="0.795" stop-color="#ffc45f"/><stop offset="0.897" stop-color="#ffb35f"/><stop offset="0.983" stop-color="#ff9d5f"/><stop offset="0.999" stop-color="#ff995f"/></linearGradient><linearGradient id="e" x1="0.9" y1="-0.256" x2="0.276" y2="0.922" xlink:href="#b"/><linearGradient id="f" x1="0.309" y1="-0.326" x2="0.509" y2="0.9" xlink:href="#d"/><linearGradient id="g" x1="0.454" y1="0.131" x2="0.505" y2="0.926" xlink:href="#d"/><linearGradient id="h" x1="-0.633" y1="1.029" x2="-0.291" y2="-0.166" gradientUnits="objectBoundingBox"><stop offset="0.003" stop-color="#f24c27"/><stop offset="0.2" stop-color="#f3532c"/><stop offset="0.496" stop-color="#f6673b"/><stop offset="0.853" stop-color="#fc8953"/><stop offset="0.999" stop-color="#ff995f"/></linearGradient><linearGradient id="i" x1="-6.024" y1="0.668" x2="-5.701" y2="-0.487" xlink:href="#h"/><linearGradient id="j" x1="0.591" y1="0.129" x2="0.506" y2="0.733" xlink:href="#d"/><linearGradient id="k" x1="1.213" y1="0.171" x2="0.147" y2="0.663" gradientUnits="objectBoundingBox"><stop offset="0.003" stop-color="#cee8f2"/><stop offset="0.357" stop-color="#dbeef5"/><stop offset="0.999" stop-color="#fff"/></linearGradient><linearGradient id="l" x1="0.25" y1="0.024" x2="0.832" y2="1.131" gradientUnits="objectBoundingBox"><stop offset="0.289" stop-color="#ffc25f"/><stop offset="0.999" stop-color="#ff995f"/></linearGradient><linearGradient id="m" x1="0.633" y1="-0.196" x2="0.488" y2="0.859" xlink:href="#d"/><linearGradient id="n" x1="0.896" y1="0.008" x2="-0.17" y2="0.501" xlink:href="#k"/></defs><g transform="translate(-52.225 -94.653)"><g class="b" transform="translate(52.225 94.653)"><path class="c" d="M902.728,1084.52c13.423,1.777,26.889,3.205,40.4,4.183,59.272,4.288,120.037-.368,175.493-21.723,19.486-7.5,44.426-16.531,51.531-37.605,7.659-22.729,4.152-48.678-7.329-69.5-13.438-24.366-33.948-40.994-60.2-50.083-19.386-6.709-40.018-11.316-56.687-23.273-23.743-17.029-28.986-49.054-16.342-74.594,13.553-27.377,26.5-55.474,30.074-86.156,2.9-24.913-1.328-51.725-14.753-73.2-14.713-23.539-39.909-30.4-66.594-33.046-35.866-3.563-76.52-4.142-92.87-43.162-12.366-29.512-1.706-63.228,10.356-92.865,17.68-43.446,30.158-86.8,8.492-131.581-11.765-24.32-32.829-44.35-58.337-53.25-47.795-16.676-94.724,7.919-142.94-1.691-20.106-4.007-39.875-14.6-52.606-30.937-15.208-19.511-12.94-44.036-16.4-67.365-6.009-40.524-37.947-72.365-79.623-75.118-53.737-3.547-99.6,46.38-123.62,88.967-21.174,37.551-33.836,78.962-50.326,118.6-13.019,31.3-38.172,59.588-73.742,63.358-32.679,3.463-60.873-15.7-90.857-24.476-31.3-9.158-65.751-6.451-95.819,5.835-39.666,16.2-71.844,47.882-93.5,84.851C-17.7,536.164-24.71,634.971-15.9,720.389-9.476,782.618,9.45,844.119,43.658,896.5,77.874,948.887,127.6,990.621,184.315,1016.8c60.612,27.982,131.1,36.254,196.866,42.242a1940.81,1940.81,0,0,0,247.463,6.668c41.747-1.54,83.168-5.529,124.8-8.632,16.36-1.221,33.128,5.749,49.23,9.222,20.007,4.318,40.057,8.448,60.214,12.011C876.122,1080.654,889.4,1082.758,902.728,1084.52Z" transform="translate(-163.226 -50.029)"/><g transform="translate(44.983 283.526)"><rect class="d" width="317.754" height="202.726" transform="translate(314.229 290.203) rotate(-164.482)"/><rect class="e" width="317.754" height="202.726" transform="translate(309.019 271.145) rotate(-166.535)"/><path class="f" d="M252.364,249.965l125.55,157.941L70.063,334.195Z" transform="translate(-69.491 -136.852)"/><path class="g" d="M251.414,253.1l127.445,150.03L69.839,329.137Z" transform="translate(-69.839 -131.984)"/><path class="f" d="M213.874,363.615,88.324,205.673l307.851,73.711Z" transform="translate(-41.118 -205.673)"/><path class="h" d="M215.768,355.7,88.324,205.673l309.019,73.991Z" transform="translate(-41.118 -205.673)"/></g><path class="d" d="M435.481,393.6,255.674,282.986,95.808,420.863,113.2,637.573l339.673-27.259Z" transform="translate(15.494 197.983)"/><g transform="translate(98.168 476.428)"><rect class="i" width="340.765" height="217.407" transform="matrix(0.991, -0.136, 0.136, 0.991, 0, 146.672)"/><path class="j" d="M253.151,362.149,102.5,517.464l336.32-46.194Z" transform="translate(-72.273 -155.44)"/><path class="k" d="M254.086,365.546,102.249,512.218l337.6-46.369Z" transform="translate(-72.666 -150.162)"/><path class="l" d="M242.5,281.208,90.665,427.88l1.276-.175h0L262.114,424l166.146-42.489Z" transform="translate(-90.665 -281.208)"/></g><g transform="translate(323.452 133.44)"><path class="m" d="M369.782,213.145a59.959,59.959,0,0,0-7.026-23.069A68.24,68.24,0,0,0,347.183,170.8a95.033,95.033,0,0,0-22.034-14.176,102.861,102.861,0,0,0-27.262-8.205,121.763,121.763,0,0,0-60.191,5.669,102.747,102.747,0,0,0-25.25,13.15,95.034,95.034,0,0,0-19,18.04,68.241,68.241,0,0,0-11.7,21.848,59.835,59.835,0,0,0,7.677,52.21,77.087,77.087,0,0,0,22.532,21.828,101.373,101.373,0,0,0,31.9,13.024,116.418,116.418,0,0,0,37.623,2.424,118.337,118.337,0,0,0,35.919-9.081l23.155,13.31q12.9,6.531,17.542,2.845t.5-18.344l-6.63-22.17a72.721,72.721,0,0,0,14.419-23.707A59.614,59.614,0,0,0,369.782,213.145Z" transform="translate(-178.879 -146.904)"/><g transform="translate(47.136 63.68)"><path class="n" d="M225.314,183.461a9.916,9.916,0,1,1,8.938,10.805A9.914,9.914,0,0,1,225.314,183.461Z" transform="translate(-153.934 -167.74)"/><path class="n" d="M211.347,182.142a9.916,9.916,0,1,1,8.941,10.805A9.915,9.915,0,0,1,211.347,182.142Z" transform="translate(-175.636 -169.79)"/><path class="n" d="M197.381,180.823a9.916,9.916,0,1,1,8.938,10.8A9.914,9.914,0,0,1,197.381,180.823Z" transform="translate(-197.336 -171.839)"/></g></g><g transform="translate(780.357 561.491)"><path class="o" d="M385.2,338.476a49.775,49.775,0,0,1,14.217-14.125,56.713,56.713,0,0,1,18.982-7.993,78.975,78.975,0,0,1,21.71-1.711,85.475,85.475,0,0,1,23.186,4.712,101.234,101.234,0,0,1,41.842,27.824,85.381,85.381,0,0,1,13.316,19.56,79,79,0,0,1,6.819,20.681,56.731,56.731,0,0,1-.026,20.6,49.728,49.728,0,0,1-26.156,35.21A64.043,64.043,0,0,1,474,450.349a84.208,84.208,0,0,1-28.478-3.011,96.742,96.742,0,0,1-28.5-13.024A98.241,98.241,0,0,1,394.3,413.541l-22.19.638q-12.017-.291-13.964-4.816t6.849-13.627l13.574-13.625a60.472,60.472,0,0,1-1.233-23.028A49.557,49.557,0,0,1,385.2,338.476Z" transform="translate(-357.79 -314.516)"/><g transform="translate(59.39 50.622)"><path class="n" d="M396.883,345.782a8.242,8.242,0,1,0-10.795,4.4A8.242,8.242,0,0,0,396.883,345.782Z" transform="translate(-381.046 -334.338)"/><path class="n" d="M407.629,350.309a8.242,8.242,0,1,0-10.795,4.4A8.242,8.242,0,0,0,407.629,350.309Z" transform="translate(-364.35 -327.304)"/><path class="n" d="M418.371,354.836a8.24,8.24,0,1,0-10.792,4.4A8.241,8.241,0,0,0,418.371,354.836Z" transform="translate(-347.655 -320.27)"/></g></g><g transform="translate(405.815 199.923)"><path class="d" d="M552.239,403.261l43.52-193.247L346.693,187,311.224,361.356l-46.035,24.572L211.13,594.922,547.5,666.664l43.777-205.247Z" transform="translate(-211.13 -151.077)"/><g transform="translate(11.209 0)"><path class="p" d="M418.613,230.55,232.661,313.917l1.216.259,155.714,52.445,164.777,15.912Z" transform="translate(-188.885 -83.416)"/><rect class="q" width="236.291" height="312.438" transform="translate(137.446 0) rotate(12.04)"/><path class="r" d="M416.226,315.9,260.512,263.454l-1.216-.259L215.52,468.442l321.707,68.616L581,331.81Z" transform="translate(-215.52 -32.692)"/><path class="j" d="M403.462,307.765l-187.708,91.6,320.49,68.356Z" transform="translate(-215.156 36.563)"/><path class="s" d="M401.472,310.919,215.52,394.286,537.226,462.9Z" transform="translate(-215.52 41.463)"/><rect class="t" width="188.411" height="6.84" transform="translate(156.596 26.601) rotate(12.04)"/><rect class="t" width="179.395" height="6.84" transform="translate(152.204 47.191) rotate(12.04)"/><rect class="t" width="188.411" height="6.84" transform="matrix(0.978, 0.209, -0.209, 0.978, 147.813, 67.781)"/><rect class="t" width="179.395" height="6.84" transform="translate(143.421 88.37) rotate(12.04)"/><rect class="t" width="188.411" height="6.84" transform="matrix(0.978, 0.209, -0.209, 0.978, 139.03, 108.96)"/><rect class="t" width="142.406" height="6.84" transform="matrix(0.978, 0.209, -0.209, 0.978, 134.638, 129.55)"/><rect class="t" width="188.411" height="6.84" transform="matrix(0.978, 0.209, -0.209, 0.978, 130.247, 150.14)"/><rect class="t" width="175.664" height="6.84" transform="translate(125.855 170.729) rotate(12.04)"/><rect class="t" width="188.411" height="6.84" transform="translate(121.464 191.319) rotate(12.04)"/><rect class="t" width="175.664" height="6.84" transform="matrix(0.978, 0.209, -0.209, 0.978, 117.072, 211.909)"/><rect class="t" width="188.411" height="6.84" transform="translate(112.681 232.499) rotate(12.04)"/></g></g><path class="n" d="M389.129,419.194h0a28.088,28.088,0,0,0,21.779,21.779h0a28.088,28.088,0,0,0-21.779,21.779h0a28.088,28.088,0,0,0-21.779-21.779h0a28.088,28.088,0,0,0,21.779-21.779Z" transform="translate(437.422 409.626)"/><path class="n" d="M378.787,365.156h0a31.855,31.855,0,0,0,24.7,24.693h0a31.857,31.857,0,0,0-24.7,24.7h0a31.851,31.851,0,0,0-24.693-24.7h0a31.848,31.848,0,0,0,24.693-24.693Z" transform="translate(416.824 325.66)"/><path class="n" d="M248.869,232.142h0a35.236,35.236,0,0,0,27.318,27.318h0a35.236,35.236,0,0,0-27.318,27.318h0a35.235,35.235,0,0,0-27.318-27.318h0a35.236,35.236,0,0,0,27.318-27.318Z" transform="translate(210.876 118.98)"/><path class="n" d="M226.4,219.044h0a14.369,14.369,0,0,0,11.145,11.145h0A14.375,14.375,0,0,0,226.4,241.336h0a14.382,14.382,0,0,0-11.147-11.147h0A14.375,14.375,0,0,0,226.4,219.044Z" transform="translate(201.092 98.629)"/><path class="n" d="M104.918,297.134h0a14.382,14.382,0,0,0,11.147,11.147h0a14.375,14.375,0,0,0-11.147,11.145h0a14.369,14.369,0,0,0-11.145-11.145h0a14.375,14.375,0,0,0,11.145-11.147Z" transform="translate(12.332 219.966)"/><path class="n" d="M72.256,238.475h0A14.379,14.379,0,0,0,83.4,249.62h0a14.379,14.379,0,0,0-11.145,11.145h0A14.383,14.383,0,0,0,61.111,249.62h0a14.383,14.383,0,0,0,11.145-11.145Z" transform="translate(-38.419 128.821)"/><path class="n" d="M255.551,380.232h0A14.375,14.375,0,0,0,266.7,391.377h0a14.382,14.382,0,0,0-11.147,11.147h0a14.375,14.375,0,0,0-11.145-11.147h0a14.369,14.369,0,0,0,11.145-11.145Z" transform="translate(246.389 349.086)"/><path class="n" d="M236.992,422.8h0a16.647,16.647,0,0,0,12.9,12.9h0a16.641,16.641,0,0,0-12.9,12.9h0a16.637,16.637,0,0,0-12.9-12.9h0a16.643,16.643,0,0,0,12.9-12.9Z" transform="translate(214.819 415.229)"/><path class="n" d="M223.712,421.212h0a32.6,32.6,0,0,0,25.273,25.275h0a32.6,32.6,0,0,0-25.273,25.275h0a32.6,32.6,0,0,0-25.275-25.275h0a32.6,32.6,0,0,0,25.275-25.275Z" transform="translate(174.961 412.761)"/><path class="n" d="M76.189,407.381h0a14.372,14.372,0,0,0,11.145,11.145h0a14.372,14.372,0,0,0-11.145,11.145h0a14.379,14.379,0,0,0-11.147-11.145h0a14.379,14.379,0,0,0,11.147-11.145Z" transform="translate(-32.31 391.27)"/><path class="n" d="M92.039,381.16h0A22.236,22.236,0,0,0,109.28,398.4h0a22.239,22.239,0,0,0-17.241,17.241h0A22.236,22.236,0,0,0,74.8,398.4h0A22.233,22.233,0,0,0,92.039,381.16Z" transform="translate(-17.151 350.528)"/><path class="n" d="M170.864,173.977h0a12.791,12.791,0,0,0,9.916,9.916h0a12.788,12.788,0,0,0-9.916,9.916h0a12.788,12.788,0,0,0-9.916-9.916h0a12.792,12.792,0,0,0,9.916-9.916Z" transform="translate(116.709 28.603)"/><path class="n" d="M214.081,132.484h0a12.792,12.792,0,0,0,9.914,9.917h0a12.789,12.789,0,0,0-9.914,9.914h0a12.8,12.8,0,0,0-9.917-9.914h0a12.8,12.8,0,0,0,9.917-9.917Z" transform="translate(183.86 -35.87)"/><path class="n" d="M250.922,215.4h0a12.788,12.788,0,0,0,9.914,9.916h0a12.789,12.789,0,0,0-9.914,9.916h0a12.8,12.8,0,0,0-9.916-9.916h0a12.8,12.8,0,0,0,9.916-9.916Z" transform="translate(241.104 92.97)"/><path class="n" d="M263.052,363.9h0a12.788,12.788,0,0,0,9.914,9.916h0a12.788,12.788,0,0,0-9.914,9.917h0a12.8,12.8,0,0,0-9.917-9.917h0a12.8,12.8,0,0,0,9.917-9.916Z" transform="translate(259.952 323.715)"/><path class="n" d="M381.911,387.214h0a12.788,12.788,0,0,0,9.916,9.917h0a12.788,12.788,0,0,0-9.916,9.917h0a12.788,12.788,0,0,0-9.917-9.917h0a12.788,12.788,0,0,0,9.917-9.917Z" transform="translate(444.639 359.935)"/><path class="n" d="M415.022,439.158h0a12.8,12.8,0,0,0,9.916,9.914h0a12.8,12.8,0,0,0-9.916,9.916h0a12.8,12.8,0,0,0-9.914-9.916h0a12.789,12.789,0,0,0,9.914-9.914Z" transform="translate(496.091 440.646)"/><path class="n" d="M176.516,190.129h0A35.717,35.717,0,0,0,204.21,217.82h0a35.723,35.723,0,0,0-27.694,27.694h0a35.717,35.717,0,0,0-27.691-27.694h0a35.71,35.71,0,0,0,27.691-27.691Z" transform="translate(97.873 53.7)"/><path class="n" d="M98.047,302.541h0a39.208,39.208,0,0,0,30.4,30.4h0a39.214,39.214,0,0,0-30.4,30.4h0a39.217,39.217,0,0,0-30.4-30.4h0a39.211,39.211,0,0,0,30.4-30.4Z" transform="translate(-28.264 228.368)"/><g transform="translate(391.103 693.978)"><path class="d" d="M580.617,446.98,411.972,374.26a33.3,33.3,0,0,0-43.767,17.394L210.279,757.9a33.3,33.3,0,0,0,17.394,43.767l168.644,72.72a33.3,33.3,0,0,0,43.767-17.394L598.011,490.748A33.3,33.3,0,0,0,580.617,446.98Z" transform="translate(-201.984 -358.414)"/><path class="u" d="M571.422,437.8,413.234,369.591a39,39,0,0,0-51.25,20.367L208.568,745.743a38.995,38.995,0,0,0,20.367,51.25L387.121,865.2a38.994,38.994,0,0,0,51.25-20.367L591.789,489.054A39,39,0,0,0,571.422,437.8Z" transform="translate(-205.37 -366.394)"/><path class="c" d="M19.434,0H410.71a19.435,19.435,0,0,1,19.435,19.435V194.49a19.434,19.434,0,0,1-19.434,19.434H19.434A19.434,19.434,0,0,1,0,194.49V19.434A19.434,19.434,0,0,1,19.434,0Z" transform="translate(11.427 406.144) rotate(-66.674)"/><rect class="u" width="100.49" height="19.664" rx="3.112" transform="translate(236.691 27.737) rotate(23.326)"/><path class="u" d="M345.387,410.923l4.615,2,2.337-5.383-4.615-2Zm-5.381-2.337,4.612,2,2.337-5.383-4.615-2Zm16.148,7.008a.847.847,0,0,1-1.1.434l-15.379-6.673a.847.847,0,0,1-.434-1.1l2.334-5.381a.8.8,0,0,1,.462-.442.81.81,0,0,1,.641.005l15.379,6.673a.809.809,0,0,1,.442.465.793.793,0,0,1-.008.638Zm3.54-3.948-.541-.232-.227-.1.335-.769a1.707,1.707,0,0,0-.871-2.206l-15.379-6.673a1.6,1.6,0,0,0-1.292-.018,1.636,1.636,0,0,0-.914.889l-2.337,5.383a1.634,1.634,0,0,0-.023,1.274,1.594,1.594,0,0,0,.894.93l15.379,6.673a1.7,1.7,0,0,0,2.206-.871l.335-.769.227.1.541.235a.854.854,0,0,0,1.1-.437l1-2.306a.793.793,0,0,0,.008-.638A.809.809,0,0,0,359.693,411.646Z" transform="translate(1.219 -311.814)"/><path class="u" d="M290.465,382a.225.225,0,0,1-.1-.107,8.561,8.561,0,0,0-1.566-2.316,7.285,7.285,0,0,0-4.9-2.125,8.5,8.5,0,0,0-2.761.437.217.217,0,0,1-.151,0,1.786,1.786,0,0,1-.35-.669,1.747,1.747,0,0,1-.2-.733.208.208,0,0,1,.117-.11,8.28,8.28,0,0,1,3.317-.552,8.972,8.972,0,0,1,6.139,2.664,8.272,8.272,0,0,1,1.864,2.8.212.212,0,0,1,0,.158c-.031.069-.255.186-.677.35A1.788,1.788,0,0,1,290.465,382Zm-2.263.894a.255.255,0,0,1-.112-.1,7.6,7.6,0,0,0-1.078-1.537,4.293,4.293,0,0,0-1.435-.965,4.363,4.363,0,0,0-1.05-.3,5.217,5.217,0,0,0-1-.066,8.072,8.072,0,0,0-.817.074,6,6,0,0,0-.6.11,1.668,1.668,0,0,1-.235.049c-.066-.028-.181-.25-.347-.669a1.753,1.753,0,0,1-.2-.73.192.192,0,0,1,.115-.1,5.77,5.77,0,0,1,2.38-.386,6.489,6.489,0,0,1,4.426,1.92,5.761,5.761,0,0,1,1.346,2,.188.188,0,0,1,0,.153c-.031.069-.253.187-.672.352A1.82,1.82,0,0,1,288.2,382.9Zm-2.278.894a2.676,2.676,0,0,1-.169-.248,3.559,3.559,0,0,0-.465-.546,2.172,2.172,0,0,0-1.5-.649,3.33,3.33,0,0,0-.715.036,2.337,2.337,0,0,1-.3.043,1.765,1.765,0,0,1-.355-.674,1.74,1.74,0,0,1-.2-.733.192.192,0,0,1,.115-.107,3.457,3.457,0,0,1,1.448-.209,4.054,4.054,0,0,1,2.715,1.177,3.48,3.48,0,0,1,.835,1.2.191.191,0,0,1,0,.158c-.031.069-.255.186-.674.35A1.721,1.721,0,0,1,285.925,383.79Zm-1.53.7a1.593,1.593,0,0,1-.725.191c-.079-.033-.2-.255-.358-.664a1.622,1.622,0,0,1-.189-.728c.054-.125.222-.179.5-.158a2,2,0,0,1,.659.135,2.086,2.086,0,0,1,.546.388c.207.191.284.347.227.472C285.023,384.212,284.8,384.332,284.395,384.5Z" transform="translate(-88.748 -351.748)"/><path class="u" d="M344.977,400.695a.255.255,0,0,1,.146.146.259.259,0,0,1-.008.2l-3.172,7.309a.258.258,0,0,1-.143.146.266.266,0,0,1-.207-.008l-.73-.317a.255.255,0,0,1-.146-.146.259.259,0,0,1,.008-.2l3.172-7.309a.255.255,0,0,1,.146-.146.26.26,0,0,1,.2.008Zm-2.584.615a.256.256,0,0,1,.146.146.249.249,0,0,1-.008.2l-2.536,5.848a.258.258,0,0,1-.146.143.249.249,0,0,1-.2-.005l-.73-.317a.262.262,0,0,1-.145-.145.259.259,0,0,1,.008-.2l2.536-5.848a.254.254,0,0,1,.145-.146.259.259,0,0,1,.2.008Zm-2.582.618a.253.253,0,0,1,.138.347l-1.9,4.388a.262.262,0,0,1-.35.138l-.73-.319a.253.253,0,0,1-.138-.347l1.9-4.388a.26.26,0,0,1,.35-.138Zm-5.166,1.231a.255.255,0,0,1,.146.146.259.259,0,0,1-.008.2l-.636,1.461a.251.251,0,0,1-.143.146.259.259,0,0,1-.2-.008l-.733-.317a.258.258,0,0,1-.143-.146.249.249,0,0,1,.005-.2l.636-1.461a.259.259,0,0,1,.143-.146.266.266,0,0,1,.207.008Zm2.582-.615a.259.259,0,0,1,.146.143.266.266,0,0,1-.008.207l-1.267,2.922a.256.256,0,0,1-.146.146.259.259,0,0,1-.2-.008l-.73-.317a.258.258,0,0,1-.145-.143.265.265,0,0,1,.008-.207l1.267-2.922a.255.255,0,0,1,.146-.145.259.259,0,0,1,.2.008Z" transform="translate(-7.205 -313.628)"/><path class="u" d="M295.919,386.516a2.019,2.019,0,0,1-1.113-2.592,2.023,2.023,0,0,1,2.592-1.113,1.939,1.939,0,0,1,1.093,1.07,1.956,1.956,0,0,1-1.042,2.613A1.931,1.931,0,0,1,295.919,386.516Zm-8.016-5.348a1.9,1.9,0,0,1,1.075-1.085,1.972,1.972,0,0,1,2.61,1.042,1.994,1.994,0,0,1-2.559,2.641,1.943,1.943,0,0,1-1.1-1.07A1.915,1.915,0,0,1,287.9,381.168Zm9.922.572a2.865,2.865,0,0,0-1.213-.209,3.3,3.3,0,0,0-1.185.26,3.369,3.369,0,0,0-1,.669,3.105,3.105,0,0,0-.674,1.042,2.81,2.81,0,0,0-.209,1.062,3.876,3.876,0,0,0,.153,1.065l-2.439-.976a3.732,3.732,0,0,0,.843-.664,2.823,2.823,0,0,0,.582-.914,3.131,3.131,0,0,0,.227-1.223,3.275,3.275,0,0,0-.945-2.178,2.9,2.9,0,0,0-1.027-.684,2.988,2.988,0,0,0-1.226-.215,3.3,3.3,0,0,0-1.185.26,3.156,3.156,0,0,0-.991.674,2.979,2.979,0,0,0-.687,1.037,2.949,2.949,0,0,0-.217,1.226,3.164,3.164,0,0,0,.255,1.17,3.257,3.257,0,0,0,.679,1.006,3,3,0,0,0,1.037.687l6.893,2.75a2.991,2.991,0,0,0,1.226.217,3.3,3.3,0,0,0,1.185-.263,3.109,3.109,0,0,0,.991-.672,3.043,3.043,0,0,0,.9-2.265,3.148,3.148,0,0,0-.253-1.167,3.27,3.27,0,0,0-.679-1.006A2.963,2.963,0,0,0,297.824,381.74Z" transform="translate(-79.112 -347.159)"/></g><g transform="translate(27.521 704.974)"><rect class="d" width="236.291" height="312.437" transform="translate(0 152.206) rotate(-40.102)"/><rect class="v" width="236.291" height="312.438" transform="translate(1.932 162.959) rotate(-42.167)"/><rect class="t" width="188.411" height="6.84" transform="translate(34.71 162.984) rotate(-42.167)"/><rect class="t" width="179.395" height="6.84" transform="translate(48.842 178.588) rotate(-42.167)"/><rect class="t" width="188.411" height="6.84" transform="matrix(0.741, -0.671, 0.671, 0.741, 62.975, 194.192)"/><rect class="t" width="179.395" height="6.84" transform="translate(77.107 209.796) rotate(-42.167)"/><rect class="t" width="188.411" height="6.84" transform="translate(91.24 225.4) rotate(-42.167)"/><rect class="t" width="142.406" height="6.84" transform="translate(105.373 241.005) rotate(-42.167)"/><rect class="t" width="188.411" height="6.84" transform="translate(119.506 256.609) rotate(-42.167)"/><rect class="t" width="175.664" height="6.84" transform="translate(133.638 272.213) rotate(-42.167)"/><rect class="t" width="188.411" height="6.84" transform="translate(147.771 287.817) rotate(-42.167)"/><rect class="t" width="175.664" height="6.84" transform="translate(161.903 303.421) rotate(-42.167)"/><rect class="t" width="188.411" height="6.84" transform="translate(176.036 319.025) rotate(-42.167)"/></g></g></g></svg>