<?xml version="1.0" encoding="utf-8"?>
<!-- Generator: Adobe Illustrator 22.1.0, SVG Export Plug-In . SVG Version: 6.00 Build 0)  -->
<svg version="1.1" id="Layer_1" xmlns="http://www.w3.org/2000/svg" xmlns:xlink="http://www.w3.org/1999/xlink" x="0px" y="0px"
	 viewBox="0 0 418.4 97" style="enable-background:new 0 0 418.4 97;" xml:space="preserve">
<style type="text/css">
	.st0{fill:#CC181E;}
</style>
<g>
	<g>
		<g>
			<g>
				<g>
					<path class="st0" d="M188.1,37c0,24.3-21.2,24.3-21.2,24.3l21.2,21.2h-21.2l-21.2-21.2h-24.2v21.2h-15.1V12.8H164
						C163.9,12.8,188.1,12.8,188.1,37z M163.9,27.9h-42.4v18.2c0,0,39.4,0,42.4,0c6.1,0,9.1-3,9.1-9C172.9,31,169.9,27.9,163.9,27.9
						z"/>
				</g>
				<g>
					<path class="st0" d="M197.2,12.8h15.1v69.7h-15.1V12.8z"/>
				</g>
				<g>
					<path class="st0" d="M290.8,55.2h-36.1V43.1h34.4h14.1v23.5c0,5.3,0,6.4,0,15.9c-8.4,0-17.6,0-26,0h-25.5c0,0-30.3,0-30.3-36.4
						c0-33.3,30.3-33.3,30.3-33.3h48.5v15.1c0,0-42.4,0-48.5,0c0,0-15.1,0-15.1,18.2c0,21.2,15.1,21.2,15.1,21.2h39.2L290.8,55.2z"
						/>
				</g>
				<g>
					<path class="st0" d="M312.3,12.8h15.1v69.7h-15.1V12.8z"/>
				</g>
				<g>
					<path class="st0" d="M351.7,34v48.5h-15.1V12.8h15.1l51.5,48.5V12.8h15.1v69.7h-15.1L351.7,34z"/>
				</g>
			</g>
		</g>
	</g>
	<g>
		<g>
			<path class="st0" d="M19.9,63.5c-4-7.5-5-16.6-2.1-25.3C23,22.5,39,13.5,54.8,16.7c-13.3-4.8-26-6.2-40.1-0.7
				c-3.3,1.3-4.1,1.8-7.2,6.8c-2.3,3.7-3.5,5.8-5,10.3c-4.4,13.3-2.8,27.1,3.4,38.5l0,0C11.5,82,21,90.5,33.2,94.5
				c15.6,5.2,32,2,44.3-7.1C56,93.9,32.5,85.6,21.3,66C20.8,65.2,20.4,64.4,19.9,63.5"/>
		</g>
		<g>
			<path class="st0" d="M91.6,26L91.6,26C86,15.3,76.4,6.6,64,2.5c-16.3-5.4-33.3-1.8-45.8,8.2C39.5,3.5,63.1,11,75,29.7
				c0,0,1.8,2.7,2.6,4.3c3.7,7.4,4.6,16.3,1.8,24.8C73.8,75.5,56,84.6,39.2,79.5c13.7,6,31.6,8.8,45.9,0.7c0.6-0.4,1.5-1.3,3-3.4
				c3.2-4.5,4.9-7.8,6.6-12.9C99,50.9,97.6,37.3,91.6,26L91.6,26C91.7,26,91.7,26,91.6,26C91.7,26,91.6,26,91.6,26z"/>
		</g>
		<g>
			<path class="st0" d="M41.7,52.5c2.2,4.2,7.4,5.8,11.5,3.6c4.2-2.2,5.8-7.4,3.6-11.5c-2.2-4.2-7.4-5.8-11.5-3.6
				C41.1,43.1,39.5,48.3,41.7,52.5z"/>
		</g>
	</g>
</g>
</svg>
