<svg xmlns="http://www.w3.org/2000/svg" xmlns:xlink="http://www.w3.org/1999/xlink" width="586.07" height="527.437" viewBox="0 0 586.07 527.437"><defs><style>.a{fill:#0186ff;}.b{fill:#f5f5f5;}.c{fill:#e0e0e0;}.d{fill:#455a64;}.e{fill:#37474f;}.f{fill:#263238;}.g,.o,.p,.s{fill:#fff;}.g{opacity:0.8;}.h,.m{opacity:0.15;}.i,.p{opacity:0.3;}.j{opacity:0.5;}.k{opacity:0.35;}.l{opacity:0.23;}.n{opacity:0.4;}.o{opacity:0.6;}.q{opacity:0.1;}.r{opacity:0.2;}.t{clip-path:url(#a);}.u{fill:#ffa8a7;}.v{opacity:0.45;}.w{fill:#f28f8f;}.x{fill:#fafafa;}.y{fill:#b16668;}</style><clipPath id="a"><path class="a" d="M190.2,410.717l-13.336,7.7a3.986,3.986,0,0,1-3.617,0l-16.276-9.276a1.095,1.095,0,0,1,0-2.079l13.336-7.7a3.986,3.986,0,0,1,3.617,0c4.4,2.547,11.86,6.717,16.264,9.276a1.095,1.095,0,0,1,.012,2.079Z" transform="translate(-156.219 -398.927)"/></clipPath></defs><g transform="translate(-11.62 -46.33)"><g transform="translate(11.62 235.396)"><ellipse class="b" cx="293.035" cy="169.185" rx="293.035" ry="169.185"/></g><g transform="translate(44.997 273.89)"><path class="c" d="M501.755,392.021a2.144,2.144,0,0,0-.185-.32,2.457,2.457,0,0,0-.172-.2,1.1,1.1,0,0,0-.185-.234l-.221-.209a5.177,5.177,0,0,0-.787-.554L226.239,232.346a9.842,9.842,0,0,0-8.833,0L74.844,314.429a4.161,4.161,0,0,0-.517.332,1.566,1.566,0,0,0-.185.135,3.543,3.543,0,0,0-.738.837,1.227,1.227,0,0,0-.123.209,1.613,1.613,0,0,0-.148.344q-.037.134-.062.271a1.882,1.882,0,0,0,0,.443,2.461,2.461,0,0,0,0,.308,2.822,2.822,0,0,0,.086.344,2.079,2.079,0,0,0,.148.332,3.826,3.826,0,0,0,1.538,1.526L348.822,477.659a8.353,8.353,0,0,0,2.62.9,12.32,12.32,0,0,0,1.8.148,12.151,12.151,0,0,0,1.772-.135,4.375,4.375,0,0,0,.578-.111,8.32,8.32,0,0,0,1.587-.541c.172-.074.32-.172.48-.258l142.55-82.07C501.879,394.629,502.346,393.251,501.755,392.021Z" transform="translate(-30.85 -231.299)"/><ellipse class="c" cx="60.935" cy="35.185" rx="60.935" ry="35.185" transform="translate(392.489 48.018)"/><path class="c" d="M171.679,471.9a14.37,14.37,0,0,1-7.086-1.759L42.552,399.7l-.111-.086a7.086,7.086,0,0,1-3.691-6.065,7.271,7.271,0,0,1,3.986-6.151l80.508-46.479a15.341,15.341,0,0,1,14.173,0l121.857,70.432a7.271,7.271,0,0,1,3.974,6.151,7.025,7.025,0,0,1-3.555,5.917,4.842,4.842,0,0,1-.492.32l-60.922,35.148-19.536,11.281a14.369,14.369,0,0,1-7.086,1.747Z" transform="translate(-38.75 -206.459)"/></g><g transform="translate(92.054 260.049)"><path class="d" d="M488.462,376.477a1.5,1.5,0,0,0-.2-.32,2.25,2.25,0,0,0-.16-.2,1.11,1.11,0,0,0-.2-.234l-.209-.2a4.594,4.594,0,0,0-.8-.566L220.438,221.1a9.842,9.842,0,0,0-8.833,0L80.9,296.523l-.529.332L80.2,297a3.248,3.248,0,0,0-.738.824,1.809,1.809,0,0,0-.271.566,1.746,1.746,0,0,0,0,.271,1.809,1.809,0,0,0,0,.443,2.6,2.6,0,0,0,0,.307,3.517,3.517,0,0,0,.086.344,2.681,2.681,0,0,0,.135.332,3.85,3.85,0,0,0,1.575,1.526L347.413,455.5a8.032,8.032,0,0,0,2.62.886,10.831,10.831,0,0,0,1.8.16,10.655,10.655,0,0,0,1.772-.148,4.362,4.362,0,0,0,.578-.111,7.545,7.545,0,0,0,1.587-.541c.172-.074.32-.16.48-.246L486.9,380.057C488.634,379.086,489.1,377.708,488.462,376.477Zm-28.7-5.462-8.353,4.835L340.081,440.069a6.757,6.757,0,0,1-.9.443,7.467,7.467,0,0,1-5.733,0,6.76,6.76,0,0,1-.9-.443L121.181,318.04l-10.236-5.893a3.911,3.911,0,0,1-.96-.763c-1.058-1.156-.726-2.633.96-3.617L230.576,238.7a7.529,7.529,0,0,1,4.638-1.292,4.267,4.267,0,0,1,1.144.307,3.691,3.691,0,0,1,.591.283L459.76,366.635a2.534,2.534,0,0,1,0,4.38Z" transform="translate(-76.498 -220.049)"/><path class="e" d="M80.888,282.49A9.9,9.9,0,0,0,77,289.81v5.831a9.756,9.756,0,0,0,4.417,7.664L347.878,457.162a8.379,8.379,0,0,0,3.248,1c.394,0,.775.061,1.23.074h0V442.165h0a14.347,14.347,0,0,1-1.8-.148,8.134,8.134,0,0,1-2.633-.91L81.4,287.239C79.153,285.947,78.968,283.893,80.888,282.49Z" transform="translate(-77 -205.672)"/><path class="a" d="M357.96,373.015a17.777,17.777,0,0,0-15.772,0,6.361,6.361,0,0,0-2.362,2.153c-1.415,2.46,1.23,4.306,2.362,4.995a17.777,17.777,0,0,0,15.772,0,6.668,6.668,0,0,0,2.362-2.153C361.737,375.55,359.129,373.7,357.96,373.015Z" transform="translate(-16.576 -185.253)"/><path class="f" d="M143.337,257.737a1.316,1.316,0,0,0,0-2.461,4.773,4.773,0,0,0-4.318,0,1.316,1.316,0,0,0,0,2.461A4.773,4.773,0,0,0,143.337,257.737Z" transform="translate(-62.915 -212.057)"/><path class="f" d="M137.708,267.279a1.23,1.23,0,0,0,0-2.215,4.294,4.294,0,0,0-3.838,0,1.23,1.23,0,0,0,0,2.215,4.22,4.22,0,0,0,3.838,0Z" transform="translate(-64.065 -209.788)"/><path class="f" d="M143.05,266.66l21.456-12.389c1.23-.677,1.23-1.747.123-2.387a4.552,4.552,0,0,0-4.121.086l-21.456,12.376c-1.169.689-1.23,1.747-.123,2.387a4.552,4.552,0,0,0,4.121-.074Z" transform="translate(-62.923 -212.823)"/><path class="f" d="M436.463,346.29c1.821,1.415,1.624,3.42-.591,4.7L305.207,426.429a8.881,8.881,0,0,1-4.417,1.046V443.53a8.968,8.968,0,0,0,4.4-1.058L435.86,367.044a9.731,9.731,0,0,0,4.417-7.652v-5.844A9.9,9.9,0,0,0,436.463,346.29Z" transform="translate(-25.471 -190.981)"/><path class="d" d="M137.527,322.553a4.921,4.921,0,0,1,2.288,3.789,1.4,1.4,0,0,1-.64,1.329c-.271.16-1.3.775-1.6.935a1.685,1.685,0,0,1-1.649-.185L106.217,311.2a4.921,4.921,0,0,1-2.276-3.789,1.476,1.476,0,0,1,.578-1.3l1.649-.96a1.686,1.686,0,0,1,1.649.185Z" transform="translate(-70.798 -200.486)"/><path class="f" d="M135.927,323.271l-29.711-17.15c-1.23-.726-2.276-.209-2.276,1.156a4.921,4.921,0,0,0,2.276,3.789l29.711,17.224c1.23.726,2.288.209,2.288-1.156A4.921,4.921,0,0,0,135.927,323.271Z" transform="translate(-70.797 -200.306)"/><path class="d" d="M102.257,302.174a4.921,4.921,0,0,1,2.288,3.8,1.439,1.439,0,0,1-.627,1.329c-.283.148-1.316.775-1.6.935a1.685,1.685,0,0,1-1.649-.2l-14.013-8.083a4.921,4.921,0,0,1-2.276-3.789,1.415,1.415,0,0,1,.578-1.3c.271-.185,1.353-.8,1.649-.96a1.649,1.649,0,0,1,1.649.185Z" transform="translate(-75.302 -203.076)"/><path class="f" d="M100.669,302.924l-14.013-8.083c-1.23-.726-2.276-.209-2.276,1.156a4.921,4.921,0,0,0,2.276,3.789l14.013,8.083c1.23.726,2.276.209,2.276-1.156a4.921,4.921,0,0,0-2.276-3.789Z" transform="translate(-75.301 -202.904)"/><g transform="translate(32.894 17.344)"><path class="a" d="M454.105,367.707l-8.353,4.823L334.426,436.762a8.676,8.676,0,0,1-.9.443,7.468,7.468,0,0,1-5.733,0,8.679,8.679,0,0,1-.9-.443L115.526,314.733,105.3,308.827a3.616,3.616,0,0,1-.96-.75c-1.058-1.156-.726-2.645.96-3.629l119.63-69.054a7.529,7.529,0,0,1,4.638-1.23,4.268,4.268,0,0,1,1.144.307,3.692,3.692,0,0,1,.591.283l222.8,128.636a2.534,2.534,0,0,1,0,4.318Z" transform="translate(-103.737 -234.147)"/><path class="g" d="M454.105,367.707l-8.353,4.823L334.426,436.762a8.676,8.676,0,0,1-.9.443,7.468,7.468,0,0,1-5.733,0,8.679,8.679,0,0,1-.9-.443L115.526,314.733,105.3,308.827a3.616,3.616,0,0,1-.96-.75c-1.058-1.156-.726-2.645.96-3.629l119.63-69.054a7.529,7.529,0,0,1,4.638-1.23,4.268,4.268,0,0,1,1.144.307,3.692,3.692,0,0,1,.591.283l222.8,128.636a2.534,2.534,0,0,1,0,4.318Z" transform="translate(-103.737 -234.147)"/><path class="d" d="M126.16,287.925a.591.591,0,0,1-.172-.061l-.578-.344-1.415.824a.221.221,0,0,1-.246,0l-.209-.111-.1-.074a.532.532,0,0,1,0-.086l-.59-2.079a.282.282,0,0,1,0-.086.209.209,0,0,1,.074-.074l.2-.111a.344.344,0,0,1,.185,0,.455.455,0,0,1,.185.062l2.042,1.23.32-.172a.221.221,0,0,1,.16,0,.369.369,0,0,1,.185.062l.135.074c.062,0,.1.074.1.1s0,.062-.086.1l-.308.185.591.332a.234.234,0,0,1,.1.1s0,.062-.1.1l-.234.148a.455.455,0,0,1-.234-.111Zm-1.23-.738-1.452-.849.431,1.439Z" transform="translate(-99.337 -222.274)"/><path class="d" d="M127.127,287.1a3.937,3.937,0,0,1-1.772-.541c-.578-.344-.9-.677-.935-1.021s.2-.664.689-.96a4.212,4.212,0,0,1,.64-.283,3.423,3.423,0,0,1,.652-.135h.1l.123.234h-.086a2.386,2.386,0,0,0-.923.3c-.332.2-.492.418-.467.664s.271.48.726.738a2.868,2.868,0,0,0,1.23.431,2.03,2.03,0,0,0,1.095-.258l.32-.221a.9.9,0,0,0,.185-.209l-.96-.554-.591.332a.233.233,0,0,1-.172,0,.369.369,0,0,1-.172-.061l-.135-.074s-.1-.074-.1-.1,0-.061.086-.1l.935-.541a.418.418,0,0,1,.2,0,.357.357,0,0,1,.209.074l1.366.787a.221.221,0,0,1,.1.074s0,0,0,.074a1.587,1.587,0,0,1-.812.812A2.965,2.965,0,0,1,127.127,287.1Z" transform="translate(-98.976 -222.631)"/><path class="d" d="M136.5,280.886c.455.271.455.689,0,.947a1.747,1.747,0,0,1-1.636,0c-.455-.258-.455-.677,0-.947a1.821,1.821,0,0,1,1.636,0Z" transform="translate(-96.649 -223.43)"/><path class="d" d="M133.878,280.315c-.824.48-1.083,1.169-.763,1.772a.529.529,0,0,0,.492.185h0c.271,0,.467-.185.381-.332-.234-.431,0-.91.529-1.23a3.259,3.259,0,0,1,2.153-.308c.271,0,.541,0,.578-.221h0c0-.135-.111-.246-.32-.3A4.921,4.921,0,0,0,133.878,280.315Z" transform="translate(-97.004 -223.634)"/><path class="d" d="M132.909,279.767c-1.23.7-1.673,1.7-1.316,2.62,0,.135.258.221.492.209h0c.271,0,.443-.172.381-.32-.283-.75.074-1.562,1.07-2.141a6.25,6.25,0,0,1,3.691-.627c.271,0,.529,0,.554-.221h0c0-.135-.135-.258-.369-.283A7.48,7.48,0,0,0,132.909,279.767Z" transform="translate(-97.351 -223.836)"/><path class="d" d="M152.335,270.414a.26.26,0,0,1-.135,0v-.086l.246-1.23v-.086l.074-.074.431-.246a.246.246,0,0,1,.135,0,.259.259,0,0,1,.148,0l3.519,2.03a.074.074,0,0,1,0,.074.086.086,0,0,1,0,.086l-.443.258a.3.3,0,0,1-.148,0,.259.259,0,0,1-.148,0l-2.682-1.55-.148.714-.074.074a.332.332,0,0,1-.16,0Z" transform="translate(-92.579 -226.195)"/><path class="d" d="M154.579,269.124a.259.259,0,0,1-.148,0,.111.111,0,0,1,0-.086l.258-1.23a.233.233,0,0,1,0-.086l.062-.074.431-.246a.258.258,0,0,1,.148,0,.3.3,0,0,1,.148,0l3.506,2.03v.086a.086.086,0,0,1,0,.074l-.443.258a.258.258,0,0,1-.148,0h-.148l-2.682-1.55-.16.8a.173.173,0,0,1-.086.074.27.27,0,0,1-.148,0Z" transform="translate(-92.067 -226.492)"/><path class="d" d="M157.446,267a.332.332,0,0,1,.148,0,.258.258,0,0,1,.148,0l.541.308a.074.074,0,0,1,0,.074.1.1,0,0,1,0,.086l-.5.3h-.148a.258.258,0,0,1-.148,0l-.541-.307a.1.1,0,0,1,0-.086.11.11,0,0,1,0-.086Zm1.907,1.095a.32.32,0,0,1,.3,0l.529.308s.061,0,.061.086a.123.123,0,0,1-.061.086l-.5.283a.308.308,0,0,1-.3,0l-.529-.308s-.062,0-.062-.086a.086.086,0,0,1,.061-.074Z" transform="translate(-91.489 -226.585)"/><path class="d" d="M162.647,267.458a.32.32,0,0,1-.3,0l-.652-.369-1.685.972h-.148a.272.272,0,0,1-.148,0l-.381-.221c-.062,0-.086-.062-.1-.1a.209.209,0,0,1,0-.123l-.418-2.153a.185.185,0,0,1,.086-.209l.418-.246h.283l2.178,1.23.467-.271h.3l.381.234a.086.086,0,0,1,.062.074.1.1,0,0,1-.062.086l-.467.271.664.381s.062,0,0,.086a.1.1,0,0,1,0,.086Zm-1.636-.763-1.156-.677.234,1.23Z" transform="translate(-91.056 -227.041)"/><path class="d" d="M160.731,264.49a.123.123,0,0,1,0-.086v-.086l2.042-1.23a.308.308,0,0,1,.3,0l.381.221s.062,0,.062.086,0,.061-.062.086l-1.526.873.64.443a.9.9,0,0,1,.221-.209l.221-.148a3.036,3.036,0,0,1,.652-.271,2.619,2.619,0,0,1,.689-.123,2.573,2.573,0,0,1,.689,0,2.46,2.46,0,0,1,.652.246,1.23,1.23,0,0,1,.48.418.554.554,0,0,1,.1.406.652.652,0,0,1-.209.394,2.7,2.7,0,0,1-.492.369,4.1,4.1,0,0,1-.726.32,3.578,3.578,0,0,1-.677.123,3.282,3.282,0,0,1-.615,0,2.03,2.03,0,0,1-.5-.172s-.061,0-.061-.086,0-.062.061-.086l.443-.258h.283a1.516,1.516,0,0,0,.308.061h.3l.271-.086.246-.123c.209-.123.32-.246.332-.394s-.074-.258-.271-.369a1,1,0,0,0-.59-.123,1.427,1.427,0,0,0-.677.185,1.8,1.8,0,0,0-.234.16.718.718,0,0,0-.1.123.246.246,0,0,1,0,.1.234.234,0,0,1-.1.086l-.5.3h-.283Z" transform="translate(-90.616 -227.492)"/><path class="d" d="M113.412,295.326l-1.132-.652,1.5-.874,1.132.652Z" transform="translate(-101.77 -220.412)"/><path class="d" d="M115.464,294.388l-2.264-1.3,1.5-.874,2.264,1.3Z" transform="translate(-101.559 -220.778)"/><path class="d" d="M117.516,293.45l-3.4-1.968,1.5-.861,3.408,1.956Z" transform="translate(-101.347 -221.144)"/><path class="d" d="M119.567,292.514l-4.527-2.62,1.513-.874,4.515,2.62Z" transform="translate(-101.135 -221.512)"/><path class="d" d="M203.165,240.382a1.686,1.686,0,0,0-.886.135l-5.647,3.248c-.369.209-.271.6.209.886l2.067,1.23a2.46,2.46,0,0,0,1,.3,1.76,1.76,0,0,0,.443,0,1.23,1.23,0,0,0,.443-.123l5.647-3.248c.357-.221.271-.6-.221-.886l-2.055-1.23A2.46,2.46,0,0,0,203.165,240.382Zm-3.322,5.536a.96.96,0,0,1-.418-.148l-2.067-1.23c-.357-.209-.431-.517-.16-.677l5.647-3.248a.652.652,0,0,1,.234-.074h.135a1,1,0,0,1,.431.148l2.055,1.23c.357.209.431.517.172.664l-5.647,3.26a.787.787,0,0,1-.381.074Z" transform="translate(-82.399 -232.714)"/><path class="d" d="M198.356,242.92l2.461,1.4-.886.517a.542.542,0,0,1-.308,0l-1.808-1.046c-.258-.148-.32-.381-.123-.5Z" transform="translate(-82.131 -232.127)"/><path class="d" d="M198.55,242.845l1.058-.615,2.436,1.4-1.07.615Z" transform="translate(-81.906 -232.286)"/><path class="d" d="M199.75,242.155l1.046-.615,2.448,1.415-1.058.615Z" transform="translate(-81.63 -232.445)"/><path class="d" d="M202.163,240.934l1.759,1.021c.32.185.258.455-.185.7l-.357.209-2.461-1.415.849-.48a.5.5,0,0,1,.394-.037Z" transform="translate(-81.361 -232.59)"/><path class="d" d="M202.943,240.521a1.513,1.513,0,0,1,1.046.283l.381.221c.418.246.652.517.492.615l-.258.172-1.944-1.12Z" transform="translate(-80.96 -232.681)"/><path class="d" d="M190.21,248.811l4.38-3.8,2.313,3.285-3.026-.824Z" transform="translate(-83.827 -231.646)"/></g><g transform="translate(232.469 128.963)"><path class="a" d="M266,390.294v1.083a5.93,5.93,0,0,0,2.694,4.663l21.111,12.18a5.942,5.942,0,0,0,5.389,0l104.043-60.1a5.967,5.967,0,0,0,2.694-4.675v-1.07a5.967,5.967,0,0,0-2.694-4.675l-21.111-12.18a5.942,5.942,0,0,0-5.388,0l-104.043,60.11A5.967,5.967,0,0,0,266,390.294Z" transform="translate(-265.951 -324.875)"/><path class="h" d="M394.594,335.5c1.12.849,1,2.091-.357,2.866l-104.043,60.11a5.673,5.673,0,0,1-2.694.652v7.283a5.462,5.462,0,0,0,2.707-.64l104.03-60.1A6,6,0,0,0,396.931,341v-1.07a5.991,5.991,0,0,0-2.337-4.429Z" transform="translate(-261 -322.429)"/><path class="i" d="M268.248,374.49a6.028,6.028,0,0,0-2.288,4.38v1.083a5.917,5.917,0,0,0,2.707,4.663l21.1,12.18a5.389,5.389,0,0,0,2.694.64v-7.283a5.634,5.634,0,0,1-2.694-.652l-21.111-12.18C267.313,376.557,267.24,375.351,268.248,374.49Z" transform="translate(-265.96 -313.451)"/><path class="d" d="M293.654,368.278a1.083,1.083,0,0,1,.541-.148,2.534,2.534,0,0,1,.48.062l11.072,3.1.246.086a.2.2,0,0,1,.111.172.184.184,0,0,1-.111.16l-1.648.947a.972.972,0,0,1-.48.148.983.983,0,0,1-.357,0l-1.452-.418-3.469,2.005.726.837a.3.3,0,0,1,.074.209c0,.086-.086.172-.258.271l-1.649.947a.5.5,0,0,1-.283.074.554.554,0,0,1-.3-.074.345.345,0,0,1-.135-.135l-5.389-6.4a.479.479,0,0,1-.1-.271c0-.111.086-.209.258-.308Zm3.592,4.515,2.116-1.23-4.2-1.23Z" transform="translate(-260.13 -314.915)"/><path class="d" d="M300.675,364.538a8.218,8.218,0,0,1,1.919-.8,9.655,9.655,0,0,1,2.03-.307,7.764,7.764,0,0,1,2.005.185,7.383,7.383,0,0,1,1.821.64l.5.283.443.258.431.246.467.283a3.691,3.691,0,0,1,1.144,1.058,1.87,1.87,0,0,1,.32,1.132,2.2,2.2,0,0,1-.517,1.169,4.787,4.787,0,0,1-1.366,1.095l-3.519,2.03a.64.64,0,0,1-.357.086.6.6,0,0,1-.344-.086l-8.44-4.859c-.1-.061-.148-.123-.148-.209a.221.221,0,0,1,.148-.2Zm5.3,1.083a3.236,3.236,0,0,0-3.272.16l-1.329.775,4.921,2.866,1.39-.812c1.095-.627,1.169-1.23.209-1.858l-.5-.308-.468-.271-.455-.258Z" transform="translate(-258.797 -315.999)"/><path class="d" d="M308.345,360.108a8.216,8.216,0,0,1,1.919-.8,9.645,9.645,0,0,1,2.042-.308,8.29,8.29,0,0,1,1.993.185,7.086,7.086,0,0,1,1.821.64l.517.283.431.258.431.246.48.283a3.791,3.791,0,0,1,1.132,1.058,1.8,1.8,0,0,1,.32,1.132,2.079,2.079,0,0,1-.5,1.169,4.92,4.92,0,0,1-1.366,1.1l-3.531,2.03a.628.628,0,0,1-.344.086.64.64,0,0,1-.357-.086l-8.44-4.86a.271.271,0,0,1-.148-.209.234.234,0,0,1,.148-.2Zm5.3,1.083a3.236,3.236,0,0,0-3.272.16l-1.329.775,4.921,2.866,1.4-.812c1.095-.627,1.156-1.23.209-1.858l-.5-.308c-.16-.086-.32-.172-.467-.271l-.467-.258Z" transform="translate(-257.031 -317.018)"/><path class="d" d="M321.04,353.016a.627.627,0,0,1,.344-.086.639.639,0,0,1,.357.086l1.39.8a.221.221,0,0,1,.135.2.234.234,0,0,1-.135.209l-2.3,1.255,6.693,3.863c.1,0,.148.123.148.209a.234.234,0,0,1-.148.2l-1.71.984a.6.6,0,0,1-.344.086.64.64,0,0,1-.357-.086l-6.693-3.863-2.3,1.329a.8.8,0,0,1-.357.086.713.713,0,0,1-.344-.086l-1.39-.8c-.1-.061-.148-.123-.148-.209a.234.234,0,0,1,.148-.2Z" transform="translate(-254.926 -318.415)"/><path class="d" d="M323.6,355.092a3.691,3.691,0,0,1-1.058-.984,1.722,1.722,0,0,1-.332-1.107,2.252,2.252,0,0,1,.5-1.169,5.264,5.264,0,0,1,1.415-1.144,8.3,8.3,0,0,1,1.981-.812,8.98,8.98,0,0,1,2.018-.3,7.587,7.587,0,0,1,1.919.2,7.1,7.1,0,0,1,1.7.6l1.23.664,1.12.677a3.691,3.691,0,0,1,1.058.984,1.723,1.723,0,0,1,.332,1.107,2.03,2.03,0,0,1-.5,1.23,4.786,4.786,0,0,1-1.415,1.132,8.1,8.1,0,0,1-1.981.837,8.853,8.853,0,0,1-2.018.283,7.593,7.593,0,0,1-1.919-.2,7.3,7.3,0,0,1-1.7-.6c-.381-.2-.763-.418-1.23-.652Zm7.984-2.005-.492-.32-.566-.344-.6-.332-.529-.271a3.125,3.125,0,0,0-.738-.271,3.37,3.37,0,0,0-.787-.1,3.233,3.233,0,0,0-.824.111,3.615,3.615,0,0,0-.824.332,1.833,1.833,0,0,0-.578.48.787.787,0,0,0-.185.48.763.763,0,0,0,.16.455,1.759,1.759,0,0,0,.468.418,4.423,4.423,0,0,0,.467.308c.185.111.369.234.578.344l.591.332a5.954,5.954,0,0,0,.554.283,3.579,3.579,0,0,0,1.538.369,3.025,3.025,0,0,0,1.636-.455c.541-.308.787-.615.763-.935A1.23,1.23,0,0,0,331.585,353.087Z" transform="translate(-253.008 -319.187)"/><path class="d" d="M335.931,348.042l.455.283.615.357.627.369.5.258a3.063,3.063,0,0,0,.689.258,3.183,3.183,0,0,0,.775.123,3.862,3.862,0,0,0,.824-.1,3.05,3.05,0,0,0,.874-.357,2.128,2.128,0,0,0,.615-.48,1.07,1.07,0,0,0,.221-.418.579.579,0,0,0,0-.357,1.228,1.228,0,0,0-.2-.283.724.724,0,0,1-.148-.258.645.645,0,0,1,.221-.221l1.71-.984a.677.677,0,0,1,.566,0,2.374,2.374,0,0,1,.935.91,1.586,1.586,0,0,1,.16,1.083,2.719,2.719,0,0,1-.6,1.144,5,5,0,0,1-1.353,1.07,7.9,7.9,0,0,1-1.956.8,8.245,8.245,0,0,1-2.018.3,7.629,7.629,0,0,1-1.932-.2,6.352,6.352,0,0,1-1.685-.6c-.381-.185-.763-.406-1.23-.64a10.357,10.357,0,0,1-1.144-.7,3.371,3.371,0,0,1-1.058-.96,1.845,1.845,0,0,1-.32-1.12,2.129,2.129,0,0,1,.492-1.169,4.711,4.711,0,0,1,1.4-1.132,8.007,8.007,0,0,1,1.858-.775,10.209,10.209,0,0,1,1.968-.357,7.918,7.918,0,0,1,1.882.1,4.846,4.846,0,0,1,1.575.529.209.209,0,0,1,.123.172.172.172,0,0,1-.123.16l-1.71,1a.763.763,0,0,1-.381.123,2.914,2.914,0,0,1-.431-.086,2.645,2.645,0,0,0-.492-.111,2.464,2.464,0,0,0-.615,0,4.271,4.271,0,0,0-.726.123,3.69,3.69,0,0,0-.837.369,1.8,1.8,0,0,0-.615.5.763.763,0,0,0-.172.467.787.787,0,0,0,.2.455,2.915,2.915,0,0,0,.455.357Z" transform="translate(-250.736 -320.502)"/><path class="d" d="M342.372,340.148a1.083,1.083,0,0,1,.541-.148,2.537,2.537,0,0,1,.48.062l11.072,3.1.246.086c.086,0,.123.1.123.172s0,.111-.123.16l-1.636.947a1.058,1.058,0,0,1-.492.148,1.228,1.228,0,0,1-.344,0l-1.452-.418-3.482,2.005.726.837a.3.3,0,0,1,.074.209c0,.086-.086.172-.258.271l-1.649.96a.677.677,0,0,1-.566,0,.419.419,0,0,1-.148-.148l-5.376-6.4a.406.406,0,0,1-.1-.271c0-.111.074-.209.246-.32Zm3.592,4.515,2.116-1.23-4.2-1.23Z" transform="translate(-248.91 -321.392)"/><path class="d" d="M349.481,336.375a9.66,9.66,0,0,1,1.722-.775,7.222,7.222,0,0,1,1.7-.357,5.882,5.882,0,0,1,1.673.123,5.512,5.512,0,0,1,1.575.615,2.657,2.657,0,0,1,1.23,1.23,1.23,1.23,0,0,1-.16,1.23l4.724.861a.456.456,0,0,1,.185.062c.086,0,.123.1.123.172s0,.111-.123.16l-1.772,1.021a.812.812,0,0,1-.492.148h-.406l-4.244-.775-1.23.689,2.793,1.612c.1,0,.148.123.148.209a.234.234,0,0,1-.148.2l-1.71.984a.628.628,0,0,1-.344.086.64.64,0,0,1-.357-.086l-8.44-4.86a.234.234,0,0,1-.135-.209.246.246,0,0,1,.135-.209Zm2.461,3.137,1.489-.873a1.636,1.636,0,0,0,.7-.64c.1-.221,0-.443-.394-.652a1.674,1.674,0,0,0-1.12-.221,3.051,3.051,0,0,0-1.12.394l-1.476.861Z" transform="translate(-247.579 -322.491)"/><path class="d" d="M359.728,330.636a.787.787,0,0,1,.714,0l1.378.8a.234.234,0,0,1,.148.2c0,.086,0,.148-.148.209l-2.3,1.329,6.7,3.863a.234.234,0,0,1,.135.209.222.222,0,0,1-.135.2l-1.71,1a.9.9,0,0,1-.714,0l-6.693-3.875-2.3,1.329a.75.75,0,0,1-.344.086.762.762,0,0,1-.357-.086l-1.39-.8a.259.259,0,0,1-.135-.209.234.234,0,0,1,.135-.2Z" transform="translate(-246.015 -323.568)"/><path class="d" d="M280.465,374.268c-3.309,1.907-3.309,4.995,0,6.889a13.189,13.189,0,0,0,11.946,0c3.3-1.895,3.3-4.982,0-6.889A13.188,13.188,0,0,0,280.465,374.268Zm9.842,2.251-2.214,1.23,2.214,1.23a.443.443,0,0,1,0,.849,1.611,1.611,0,0,1-1.464,0l-2.227-1.23-2.214,1.23a1.612,1.612,0,0,1-1.464,0,.443.443,0,0,1,0-.849l2.214-1.23-2.214-1.23a.443.443,0,0,1,0-.849,1.611,1.611,0,0,1,1.464,0l2.214,1.23,2.227-1.23a1.611,1.611,0,0,1,1.464,0,.446.446,0,1,1-.1.886Z" transform="translate(-263.192 -313.831)"/></g></g><g transform="translate(196.626 185.409)"><g transform="translate(0)"><path class="e" d="M301.916,311.538a18.282,18.282,0,0,0-8.194-14.394c-2.387-1.4-4.54-1.464-6.065-.467h0l-5.6,3.149,11.749,20.262,5.549-3.149h0C300.908,316.09,301.892,314.232,301.916,311.538Z" transform="translate(-134.356 -127.921)"/><path class="d" d="M288.367,299.826a18.343,18.343,0,0,1,8.194,14.394c0,5.29-3.765,7.382-8.317,4.737a18.343,18.343,0,0,1-8.194-14.394C280.087,299.273,283.815,297.156,288.367,299.826Z" transform="translate(-134.818 -127.306)"/><path class="f" d="M284.49,306.519c0-2.067,1.23-3.014,2.817-2.1a6.68,6.68,0,0,1,2.768,5.376c0,2.067-1.23,3-2.817,2.1A6.742,6.742,0,0,1,284.49,306.519Z" transform="translate(-133.796 -126.063)"/><path class="h" d="M296.559,313.891a15.194,15.194,0,0,0-1.132-5.536L281.217,300.1a7.111,7.111,0,0,0-1.156,4.134v.2L296.546,314A.95.95,0,0,0,296.559,313.891Z" transform="translate(-134.817 -126.977)"/><path class="d" d="M268.835,370.35a17.729,17.729,0,0,1-8.759-1.575L182.569,324.1c-4.687-2.362-9.953-8.489-10.285-14.3l-2.374-55.251,4.318-.246,2.387,55.263c.221,3.937,4.343,8.882,7.886,10.654l77.568,44.683a14.9,14.9,0,0,0,13.016-.75l51.671-29.8c1.23-.812,1.956-1.784,1.907-2.608s-.824-1.636-2.141-2.3l-83.03-48.2c-4.675-2.35-9.916-8.489-10.248-14.3l-1.156-30.646,4.318-.234,1.156,30.633c.221,3.961,4.343,8.895,7.874,10.666l83.03,48.214c2.768,1.39,4.367,3.494,4.515,5.918s-1.23,4.773-3.851,6.471l-51.671,29.8A17.925,17.925,0,0,1,268.835,370.35Z" transform="translate(-160.179 -141.718)"/><path class="e" d="M242.716,347.119a18.282,18.282,0,0,0-8.194-14.394c-2.387-1.4-4.54-1.476-6.053-.468h0l-5.61,3.149,11.749,20.262,5.548-3.149h0C241.683,351.671,242.716,349.813,242.716,347.119Z" transform="translate(-147.987 -119.729)"/><path class="d" d="M229.144,335.408a18.282,18.282,0,0,1,8.194,14.406c0,5.278-3.752,7.382-8.317,4.724a18.306,18.306,0,0,1-8.181-14.394C220.877,334.866,224.592,332.713,229.144,335.408Z" transform="translate(-148.452 -119.115)"/><path class="f" d="M225.27,342.1c0-2.067,1.23-3.014,2.817-2.1a6.656,6.656,0,0,1,2.768,5.376c0,2.055-1.23,3-2.805,2.091A6.693,6.693,0,0,1,225.27,342.1Z" transform="translate(-147.432 -117.87)"/><path class="e" d="M196.132,320.272a18.282,18.282,0,0,0-8.157-14.406c-2.4-1.4-4.54-1.476-6.065-.48h0l-5.61,3.137,11.712,20.287,5.561-3.149h0C195.123,324.824,196.107,322.966,196.132,320.272Z" transform="translate(-158.708 -125.914)"/><path class="d" d="M182.607,308.548a18.306,18.306,0,0,1,8.169,14.357c0,5.278-3.777,7.382-8.329,4.712a18.282,18.282,0,0,1-8.157-14.406C174.327,307.97,178.055,305.866,182.607,308.548Z" transform="translate(-159.17 -125.3)"/><path class="f" d="M178.72,315.216c0-2.055,1.23-3,2.817-2.091a6.7,6.7,0,0,1,2.768,5.376c0,2.067-1.23,3-2.83,2.1A6.754,6.754,0,0,1,178.72,315.216Z" transform="translate(-158.15 -124.057)"/><path class="d" d="M162.467,205.269a14.406,14.406,0,0,1,5.524-15.329l51.56-29.145c4.687-3.076,9.842-.935,11.466,4.417l3.58,11.6-3.543,2.067L227.2,167.156A3.9,3.9,0,0,0,221.052,165L170.846,193.36a9.461,9.461,0,0,0-3.6,9.842l3.026,11.134-4.22,2.461Z" transform="translate(-162 -159.379)"/><path class="a" d="M240.143,242.12l-69.263,40,101.226,58.437,69.263-40Z" transform="translate(-159.955 -140.327)"/><path class="j" d="M240.143,242.12l-69.263,40,101.226,58.437,69.263-40Z" transform="translate(-159.955 -140.327)"/><path class="a" d="M165.29,213.6l68.55-40.045,7.591,84.346-69.263,40Z" transform="translate(-161.243 -156.113)"/><path class="k" d="M165.29,213.6l68.55-40.045,7.591,84.346-69.263,40Z" transform="translate(-161.243 -156.113)"/><path class="a" d="M221,173.56l7.591,84.346,101.226,58.437,15.993-70.752Zm35.395,81.1a5.819,5.819,0,0,1-7.259-3.765L232.4,207.478a5.462,5.462,0,1,1,10.125-3.851l16.731,43.416a5.807,5.807,0,0,1-2.854,7.615ZM288,269.52a5.8,5.8,0,0,1-7.258-3.752l-16.682-43.416a5.462,5.462,0,1,1,10.113-3.9L290.9,261.868a5.794,5.794,0,0,1-2.891,7.652Zm31.605,14.874a5.8,5.8,0,0,1-7.259-3.691l-16.719-43.416a5.45,5.45,0,1,1,10.1-3.9L322.459,276.8a5.8,5.8,0,0,1-2.842,7.591Z" transform="translate(-148.415 -156.113)"/><path class="l" d="M221,173.56l7.591,84.346,101.226,58.437,15.993-70.752Zm35.395,81.1a5.819,5.819,0,0,1-7.259-3.765L232.4,207.478a5.462,5.462,0,1,1,10.125-3.851l16.731,43.416a5.807,5.807,0,0,1-2.854,7.615ZM288,269.52a5.8,5.8,0,0,1-7.258-3.752l-16.682-43.416a5.462,5.462,0,1,1,10.113-3.9L290.9,261.868a5.794,5.794,0,0,1-2.891,7.652Zm31.605,14.874a5.8,5.8,0,0,1-7.259-3.691l-16.719-43.416a5.45,5.45,0,1,1,10.1-3.9L322.459,276.8a5.8,5.8,0,0,1-2.842,7.591Z" transform="translate(-148.415 -156.113)"/><path class="a" d="M165.29,206.11l6.877,84.3,101.225,58.437,15.993-70.74Zm39.959,82.981a5.819,5.819,0,0,1-7.259-3.765L181.271,241.91a5.45,5.45,0,1,1,10.1-3.888l16.731,43.4a5.807,5.807,0,0,1-2.854,7.664Zm31.605,14.862A5.8,5.8,0,0,1,229.6,300.2l-16.682-43.416a5.462,5.462,0,1,1,10.113-3.9L239.745,296.3a5.8,5.8,0,0,1-2.891,7.652Zm31.605,14.874a5.782,5.782,0,0,1-7.246-3.752l-16.732-43.416a5.462,5.462,0,1,1,10.113-3.9l16.719,43.416a5.8,5.8,0,0,1-2.854,7.652Z" transform="translate(-161.243 -148.618)"/><g class="m" transform="translate(4.047 57.492)"><path d="M165.29,206.11l6.877,84.3,101.225,58.437,15.993-70.74Zm39.959,82.981a5.819,5.819,0,0,1-7.259-3.765L181.271,241.91a5.45,5.45,0,1,1,10.1-3.888l16.731,43.4a5.807,5.807,0,0,1-2.854,7.664Zm31.605,14.862A5.8,5.8,0,0,1,229.6,300.2l-16.682-43.416a5.462,5.462,0,1,1,10.113-3.9L239.745,296.3a5.8,5.8,0,0,1-2.891,7.652Zm31.605,14.874a5.782,5.782,0,0,1-7.246-3.752l-16.732-43.416a5.462,5.462,0,1,1,10.113-3.9l16.719,43.416a5.8,5.8,0,0,1-2.854,7.652Z" transform="translate(-165.29 -206.11)"/></g><path class="a" d="M269.141,272.116l69.263-40-15.981,70.752L253.16,342.855Z" transform="translate(-141.01 -142.63)"/><path class="n" d="M269.141,272.116l69.263-40-15.981,70.752L253.16,342.855Z" transform="translate(-141.01 -142.63)"/></g></g><g transform="translate(302.108 139.83)"><path class="e" d="M295.339,144.659l-8,4.687.025-24.224-4.847-2.793L260.572,135l-.037,29.883-12.795,7.246,28.64,18.577,23.805-43.256Z" transform="translate(-247.74 -122.33)"/><path class="d" d="M264.512,137.272l-.037,29.883-12.795,7.259,23.793,15.772,23.805-43.256-12.856,7.554.037-29.883Z" transform="translate(-246.833 -121.807)"/><path class="f" d="M258.177,132.63l4.847,2.793-.037,29.883-4.847-2.793Z" transform="translate(-245.345 -119.958)"/></g><g transform="translate(192.652 46.33)"><g transform="translate(0)"><path class="a" d="M177.57,178.881l69.362-40.045L241.15,55.4,177.57,92.111Z" transform="translate(-154.441 -44.241)"/><path class="o" d="M177.57,178.881l69.362-40.045L241.15,55.4,177.57,92.111Z" transform="translate(-154.441 -44.241)"/><path class="a" d="M180.817,93.985V87.3L163.47,83.971,227.05,47.26l5.782,10.014H244.4Z" transform="translate(-157.688 -46.115)"/><path class="p" d="M180.817,93.985V87.3L163.47,83.971,227.05,47.26l5.782,10.014H244.4Z" transform="translate(-157.688 -46.115)"/><path class="a" d="M215.15,47.26V67.289l5.782-3.334v-6.68Z" transform="translate(-145.788 -46.115)"/><path class="q" d="M215.15,47.26V67.289l5.782-3.334v-6.68Z" transform="translate(-145.788 -46.115)"/><path class="a" d="M231.414,55.4H219.85v6.68Z" transform="translate(-144.706 -44.241)"/><path class="r" d="M231.414,55.4H219.85v6.68Z" transform="translate(-144.706 -44.241)"/><path class="a" d="M164.552,77.1l-5.782,83.436L181.9,173.884V80.434Z" transform="translate(-158.77 -39.245)"/><path class="q" d="M164.552,77.1l-5.782,83.436L181.9,173.884V80.434Z" transform="translate(-158.77 -39.245)"/><path class="a" d="M179.734,79.81,168.17,166.58l11.564,6.68Z" transform="translate(-156.606 -38.621)"/><path class="r" d="M179.734,79.81,168.17,166.58l11.564,6.68Z" transform="translate(-156.606 -38.621)"/><path class="a" d="M181.9,158.374l-10.6-13.914-12.524.566Z" transform="translate(-158.77 -23.734)"/><path class="e" d="M178.71,77c0,1.132.787,1.6,1.772,1.033a3.961,3.961,0,0,0,1.784-3.088c0-1.132-.8-1.6-1.784-1.033A3.949,3.949,0,0,0,178.71,77Z" transform="translate(-154.179 -40.033)"/><path class="e" d="M197.94,66.153c0,1.132.8,1.6,1.784,1.021a3.924,3.924,0,0,0,1.784-3.076c0-1.132-.8-1.6-1.784-1.033A3.949,3.949,0,0,0,197.94,66.153Z" transform="translate(-149.751 -42.532)"/><path class="e" d="M180.261,82.008a.6.6,0,0,1-.59-.591V66.838c0-6.36,5.438-14.665,12.13-18.528,3.691-2.153,7.258-2.571,9.707-1.156,1.956,1.12,3.026,3.309,3.026,6.151V68.069a.6.6,0,0,1-.6.591.591.591,0,0,1-.59-.591V53.306c0-2.461-.849-4.232-2.461-5.142-2.067-1.23-5.179-.775-8.513,1.156-6.36,3.691-11.54,11.515-11.54,17.494v14.6a.6.6,0,0,1-.566.591Z" transform="translate(-153.958 -46.33)"/><path class="d" d="M193,85.143c0,1.132.8,1.587,1.784,1.021a3.924,3.924,0,0,0,1.784-3.076c0-1.132-.8-1.6-1.784-1.033A3.949,3.949,0,0,0,193,85.143Z" transform="translate(-150.888 -38.159)"/><path class="d" d="M212.26,74.293c0,1.132.8,1.587,1.784,1.021a3.924,3.924,0,0,0,1.784-3.076c0-1.144-.8-1.6-1.784-1.033A3.924,3.924,0,0,0,212.26,74.293Z" transform="translate(-146.454 -40.658)"/><path class="d" d="M194.578,90.136a.591.591,0,0,1-.578-.578v-14.6c0-6.348,5.438-14.652,12.13-18.454,3.691-2.153,7.259-2.571,9.707-1.156,1.944,1.12,3.014,3.309,3.014,6.151V76.259a.59.59,0,0,1-.59.6.6.6,0,0,1-.6-.6V61.5c0-2.461-.837-4.22-2.461-5.13-2.067-1.23-5.167-.775-8.513,1.156-6.36,3.691-11.528,11.515-11.528,17.482V89.558a.6.6,0,0,1-.578.578Z" transform="translate(-150.658 -44.444)"/></g></g><g transform="translate(48.521 403.144)"><path class="a" d="M176.343,456.936l80.5-46.479a3.789,3.789,0,0,0,2.178-3.322v-5.708s-2.153,3.076-2.19,3.1l-60.959,35.185-19.549,11.282a11.651,11.651,0,0,1-10.593,0L43.808,380.611s-2.067-2.46-2.116-2.46-.111,4.207,0,5.61a3.691,3.691,0,0,0,2.116,2.817l121.931,70.371a11.638,11.638,0,0,0,10.6-.012Z" transform="translate(-41.611 -326.74)"/><path class="h" d="M176.343,456.936l80.5-46.479a3.789,3.789,0,0,0,2.178-3.322v-5.708s-2.153,3.076-2.19,3.1l-60.959,35.185-19.549,11.282a11.651,11.651,0,0,1-10.593,0L43.808,380.611s-2.067-2.46-2.116-2.46-.111,4.207,0,5.61a3.691,3.691,0,0,0,2.116,2.817l121.931,70.371a11.638,11.638,0,0,0,10.6-.012Z" transform="translate(-41.611 -326.74)"/><path class="e" d="M197.7,413.556h0V419.5l23.2-13.4a3.789,3.789,0,0,0,2.178-3.322V397.07s-2.153,3.076-2.19,3.1Z" transform="translate(-5.675 -322.384)"/><path class="a" d="M256.855,414.149a.283.283,0,0,0,.111-.1c2.8-1.661,2.756-4.367-.111-6.028l-121.943-70.4a11.724,11.724,0,0,0-10.593,0L43.811,384.106c-2.9,1.673-2.916,4.367-.111,6.041l.111.086L165.73,460.616a11.651,11.651,0,0,0,10.593,0l19.549-11.281Z" transform="translate(-41.615 -336.362)"/><path class="d" d="M222.5,427.534l23.215-13.385a.283.283,0,0,0,.111-.1c2.8-1.661,2.756-4.367-.111-6.028l-121.943-70.4a11.724,11.724,0,0,0-10.592,0L90,351.024Z" transform="translate(-30.474 -336.362)"/><path class="h" d="M41.689,378.17s-.111,4.207,0,5.61a3.691,3.691,0,0,0,2.116,2.793l121.931,70.371a11.22,11.22,0,0,0,6.717,1.23v-5.942a11.466,11.466,0,0,1-6.73-1.23l-121.918-70.4S41.738,378.195,41.689,378.17Z" transform="translate(-41.609 -326.736)"/><path class="s" d="M74.234,372.551l-2.362-1.366a.308.308,0,0,1-.172-.209.186.186,0,0,1,.123-.209.738.738,0,0,1,.357-.074.861.861,0,0,1,.369.1l.787.455,3.408-2.005a.406.406,0,0,0,.246-.406c0-.172-.135-.308-.344-.443h0a.32.32,0,0,1-.185-.221.221.221,0,0,1,.135-.2.529.529,0,0,1,.394.037.713.713,0,0,1,.369.1h0a1.23,1.23,0,0,1,.714.873.812.812,0,0,1-.492.824L74.124,371.7l.787.455c.111.061.172.135.172.221a.186.186,0,0,1-.123.209.64.64,0,0,1-.357,0,.689.689,0,0,1-.369-.037Z" transform="translate(-34.687 -329.088)"/><path class="s" d="M80.489,373.747l-1.575-.91a1.613,1.613,0,0,0-.75-.2,1.305,1.305,0,0,0-.714.148l-.5.283s-.074.061,0,.111,0,.074.086.111l3.346,1.932a.308.308,0,0,1,.172.209.2.2,0,0,1-.123.209.64.64,0,0,1-.357.074.922.922,0,0,1-.381-.111l-3.925-2.264a.32.32,0,0,1-.185-.221.2.2,0,0,1,.123-.2l1.021-.591a2.558,2.558,0,0,1,1.427-.3,3.333,3.333,0,0,1,1.513.406l1.562.91a1.722,1.722,0,0,0,.763.209,1.229,1.229,0,0,0,.714-.148l.677-.381a.418.418,0,0,0,.258-.418.689.689,0,0,0-.369-.443l-1.562-.9a1.673,1.673,0,0,0-.763-.209,1.3,1.3,0,0,0-.714.148.712.712,0,0,1-.344.074.775.775,0,0,1-.381-.111.32.32,0,0,1-.185-.209.209.209,0,0,1,.135-.209,2.46,2.46,0,0,1,1.415-.3,3.15,3.15,0,0,1,1.513.418l1.575.91a1.23,1.23,0,0,1,.714.873.812.812,0,0,1-.5.812l-.677.394a2.559,2.559,0,0,1-1.427.3,3.236,3.236,0,0,1-1.575-.418Z" transform="translate(-33.794 -328.513)"/><path class="s" d="M86.726,377.845l-.344.2a2.633,2.633,0,0,1-1.415.283,3.285,3.285,0,0,1-1.538-.48l-1.575-.91a1.23,1.23,0,0,1-.714-.873.837.837,0,0,1,.5-.824.64.64,0,0,1,.357-.061.8.8,0,0,1,.381.1.332.332,0,0,1,.172.221.185.185,0,0,1-.123.2.406.406,0,0,0-.246.418.59.59,0,0,0,.357.431l1.562.91a1.674,1.674,0,0,0,.763.209,1.23,1.23,0,0,0,.7-.148l.344-.2a.406.406,0,0,0,.246-.406.59.59,0,0,0-.357-.443l-.381-.221c-.111-.074-.172-.135-.185-.221s0-.148.123-.209a.787.787,0,0,1,.738,0l.394.221a1.625,1.625,0,0,0,.75.209,1.231,1.231,0,0,0,.714-.148l.344-.2a.406.406,0,0,0,.246-.406.615.615,0,0,0-.357-.443l-1.575-.9a1.624,1.624,0,0,0-.75-.209,1.3,1.3,0,0,0-.714.148.628.628,0,0,1-.357.061.763.763,0,0,1-.381-.1.344.344,0,0,1-.172-.209.209.209,0,0,1,.123-.209,2.559,2.559,0,0,1,1.427-.3,3.236,3.236,0,0,1,1.513.418l1.562.9a1.23,1.23,0,0,1,.714.873.812.812,0,0,1-.5.824l-.332.2a2.213,2.213,0,0,1-.714.246,4.794,4.794,0,0,1-.849,0,.689.689,0,0,1,0,.492A1.23,1.23,0,0,1,86.726,377.845Z" transform="translate(-32.514 -327.85)"/><path class="s" d="M89.727,381.67a.762.762,0,0,1-.381-.1.332.332,0,0,1-.172-.221.2.2,0,0,1,.123-.2l1.895-1.095a3.126,3.126,0,0,1-.972-.344l-1.575-.91a1.23,1.23,0,0,1-.714-.873.812.812,0,0,1,.5-.812l1.7-.984a.762.762,0,0,1,.357-.074.8.8,0,0,1,.381.1.332.332,0,0,1,.172.222.186.186,0,0,1-.123.209l-1.7.984a.418.418,0,0,0-.258.406.652.652,0,0,0,.357.431l1.575.91a1.661,1.661,0,0,0,.75.209,1.23,1.23,0,0,0,.714-.148l1.7-.984a.8.8,0,0,1,.357-.074.923.923,0,0,1,.381.1.32.32,0,0,1,.172.221.2.2,0,0,1-.123.209l-4.761,2.756a.627.627,0,0,1-.357.062Z" transform="translate(-30.951 -327.222)"/><path class="s" d="M99.973,383.366v.111a.221.221,0,0,0,.086.111l2.165,1.23a1.23,1.23,0,0,1,.714.873.824.824,0,0,1-.5.824l-.677.394a2.671,2.671,0,0,1-1.427.283,3.273,3.273,0,0,1-1.5-.406l-1.575-.91A1.23,1.23,0,0,1,96.54,385a.824.824,0,0,1,.5-.824.763.763,0,0,1,.357-.074.983.983,0,0,1,.381.111.332.332,0,0,1,.172.221.2.2,0,0,1-.123.2.406.406,0,0,0-.258.418.652.652,0,0,0,.357.431l1.575.91a1.612,1.612,0,0,0,.75.2,1.231,1.231,0,0,0,.714-.135l.677-.394a.418.418,0,0,0,.258-.418.652.652,0,0,0-.357-.431l-2.362-1.366a.652.652,0,0,1-.357-.431.394.394,0,0,1,.258-.406l1.7-.984a.554.554,0,0,1,.357-.074.75.75,0,0,1,.369.1l3.937,2.264a.332.332,0,0,1,.172.221.186.186,0,0,1-.123.209.738.738,0,0,1-.357.074.862.862,0,0,1-.369-.111l-3.346-1.931h-.185a.3.3,0,0,0-.185,0Z" transform="translate(-28.968 -325.866)"/><path class="s" d="M105.71,386.8l1.575.91a1.23,1.23,0,0,1,.714.873.824.824,0,0,1-.5.824l-.677.394a2.645,2.645,0,0,1-1.427.283,3.237,3.237,0,0,1-1.513-.418l-1.562-.9a1.23,1.23,0,0,1-.714-.873.812.812,0,0,1,.492-.824l2.731-1.575a2.632,2.632,0,0,1,1.415-.283,3.284,3.284,0,0,1,1.513.406l1.575.91a1.23,1.23,0,0,1,.714.873.824.824,0,0,1-.5.824.529.529,0,0,1-.357.074.812.812,0,0,1-.369-.111.32.32,0,0,1-.185-.209.186.186,0,0,1,.123-.209.468.468,0,0,0,.258-.406.627.627,0,0,0-.369-.443l-1.562-.91a1.661,1.661,0,0,0-.763-.2,1.353,1.353,0,0,0-.7.135l-.873.5a3.236,3.236,0,0,1,.972.345Zm-2.83.726a.406.406,0,0,0-.246.406.615.615,0,0,0,.357.443l1.575.91a1.662,1.662,0,0,0,.75.209,1.23,1.23,0,0,0,.714-.148l.689-.394a.406.406,0,0,0,.246-.406.627.627,0,0,0-.369-.443l-1.562-.91a1.673,1.673,0,0,0-.763-.209,1.23,1.23,0,0,0-.7.148Z" transform="translate(-27.803 -325.116)"/><path class="s" d="M113.358,391.609l-4.663.652h-.738a.443.443,0,0,1-.2-.209.3.3,0,0,1,.148-.221,1.684,1.684,0,0,1,.541-.074c1.489-.209,2.928-.431,4.318-.652a1.229,1.229,0,0,0,.406-.111l.332-.123.111-.061a.406.406,0,0,0,.246-.418.59.59,0,0,0-.357-.431l-.787-.455-.381-.221-1.575-.91a.32.32,0,0,1-.185-.221.2.2,0,0,1,.123-.2.566.566,0,0,1,.357-.074.763.763,0,0,1,.381.1l1.575.91.394.221.787.455a1.23,1.23,0,0,1,.7.873.812.812,0,0,1-.492.824,4.176,4.176,0,0,1-.554.234,2.812,2.812,0,0,1-.492.111Z" transform="translate(-26.384 -324.501)"/><path class="s" d="M117.371,395.484l-.344.2a2.46,2.46,0,0,1-1.415.3,3.15,3.15,0,0,1-1.513-.418l-1.575-.9a1.23,1.23,0,0,1-.714-.873.837.837,0,0,1,.5-.824l.344-.2a2.239,2.239,0,0,1,.7-.246,3.238,3.238,0,0,1,.849,0,.763.763,0,0,1,0-.492,1.23,1.23,0,0,1,.431-.406l.332-.2a2.67,2.67,0,0,1,1.427-.283,3.37,3.37,0,0,1,1.513.406l1.562.91a1.23,1.23,0,0,1,.714.874.812.812,0,0,1-.492.824l-.344.2a2.212,2.212,0,0,1-.714.234,3.235,3.235,0,0,1-.849,0,.689.689,0,0,1,0,.492,1.021,1.021,0,0,1-.418.406Zm1.6-1.821a.406.406,0,0,0,.246-.418.615.615,0,0,0-.357-.431l-1.575-.91a1.625,1.625,0,0,0-.75-.209,1.576,1.576,0,0,0-.714.148l-.332.2a.406.406,0,0,0-.258.418.652.652,0,0,0,.357.431l1.575.91a1.612,1.612,0,0,0,.75.2,1.4,1.4,0,0,0,.714-.135Zm-2.387,1.366a.381.381,0,0,0,.246-.406.591.591,0,0,0-.357-.431l-1.562-.91a1.673,1.673,0,0,0-.763-.209,1.23,1.23,0,0,0-.7.148l-.344.2a.406.406,0,0,0-.246.406.591.591,0,0,0,.357.443l1.562.9a1.538,1.538,0,0,0,.763.209,1.231,1.231,0,0,0,.7-.148Z" transform="translate(-25.452 -323.751)"/><path class="s" d="M124.319,401.465l-1.575-.91a1.23,1.23,0,0,1-.714-.861.812.812,0,0,1,.5-.824.738.738,0,0,1,.357-.074.813.813,0,0,1,.381.111.345.345,0,0,1,.172.209.209.209,0,0,1-.123.209.418.418,0,0,0-.258.406.639.639,0,0,0,.357.443l1.575.9a1.673,1.673,0,0,0,.763.209,1.427,1.427,0,0,0,.714-.135l.861-.5a3.127,3.127,0,0,1-.984-.357l-1.562-.9a1.23,1.23,0,0,1-.714-.873.824.824,0,0,1,.5-.824l.677-.394a2.669,2.669,0,0,1,1.427-.283,3.273,3.273,0,0,1,1.5.406l1.575.91a1.23,1.23,0,0,1,.714.873.812.812,0,0,1-.492.824l-2.731,1.562a2.461,2.461,0,0,1-1.415.3,3.15,3.15,0,0,1-1.513-.418Zm4.921-1.895a.406.406,0,0,0,.246-.418.59.59,0,0,0-.357-.431l-1.575-.91a1.661,1.661,0,0,0-.75-.209,1.231,1.231,0,0,0-.714.148l-.677.394a.419.419,0,0,0-.258.406.64.64,0,0,0,.357.443l1.575.9a1.489,1.489,0,0,0,.75.209,1.329,1.329,0,0,0,.726-.135Z" transform="translate(-23.099 -322.399)"/><path class="s" d="M129.145,404.261l-2.35-1.366a.32.32,0,0,1-.185-.221.185.185,0,0,1,.123-.2.554.554,0,0,1,.357-.074.762.762,0,0,1,.381.1l.787.455,3.4-1.968a.431.431,0,0,0,.258-.406.628.628,0,0,0-.344-.431h0a.32.32,0,0,1-.185-.209.186.186,0,0,1,.123-.209.763.763,0,0,1,.357-.074.664.664,0,0,1,.381.111h0a1.23,1.23,0,0,1,.714.861.824.824,0,0,1-.5.824l-3.4,1.968.775.455a.32.32,0,0,1,.185.209.209.209,0,0,1-.135.209.6.6,0,0,1-.344.074.921.921,0,0,1-.394-.111Z" transform="translate(-22.044 -321.788)"/><path class="s" d="M133.259,406.625l-1.575-.9a1.23,1.23,0,0,1-.714-.873.824.824,0,0,1,.5-.824l2.719-1.575a2.67,2.67,0,0,1,1.427-.283,3.274,3.274,0,0,1,1.5.406l1.575.91a1.23,1.23,0,0,1,.714.873.824.824,0,0,1-.5.824l-2.719,1.562a2.559,2.559,0,0,1-1.427.3A3.137,3.137,0,0,1,133.259,406.625Zm-.9-1.292,1.575.91a1.966,1.966,0,0,0,.455.16l.529-3.457-2.682,1.538a.418.418,0,0,0-.258.406.64.64,0,0,0,.381.443Zm5.659-1.452-1.575-.91a1.659,1.659,0,0,0-.455-.16l-.529,3.457,2.657-1.538a.418.418,0,0,0,.258-.418.652.652,0,0,0-.357-.431Z" transform="translate(-21.041 -321.211)"/><path class="s" d="M138.085,409.425l-2.362-1.366a.332.332,0,0,1-.172-.221.185.185,0,0,1,.123-.2.554.554,0,0,1,.357-.074.763.763,0,0,1,.381.1l.787.455,3.4-1.968a.418.418,0,0,0,.258-.406.652.652,0,0,0-.357-.431h0a.344.344,0,0,1-.172-.209.186.186,0,0,1,.123-.209.787.787,0,0,1,.738,0h0a1.23,1.23,0,0,1,.714.861.812.812,0,0,1-.5.824l-3.408,1.968.787.455a.32.32,0,0,1,.185.221.221.221,0,0,1-.135.2.615.615,0,0,1-.357.074.909.909,0,0,1-.381-.074Z" transform="translate(-19.986 -320.603)"/><path class="s" d="M147.025,414.584l-2.362-1.366a.344.344,0,0,1-.172-.209.2.2,0,0,1,.123-.209.763.763,0,0,1,.357-.074.922.922,0,0,1,.381.1l.787.455,3.4-1.968a.418.418,0,0,0,.258-.406.627.627,0,0,0-.344-.431h0c-.111-.074-.172-.135-.185-.221s0-.148.123-.209a.762.762,0,0,1,.357-.074.921.921,0,0,1,.381.111h0a1.23,1.23,0,0,1,.714.873.824.824,0,0,1-.5.812l-3.408,1.968.787.455a.32.32,0,0,1,.185.221.221.221,0,0,1-.135.2.529.529,0,0,1-.357.074.75.75,0,0,1-.381-.1Z" transform="translate(-17.927 -319.414)"/><path class="s" d="M153.276,415.788l-1.562-.91a1.672,1.672,0,0,0-.763-.209,1.23,1.23,0,0,0-.7.148l-.517.3a.1.1,0,0,0,0,.1.16.16,0,0,0,.086.111l3.346,1.932c.111,0,.172.135.172.221a.186.186,0,0,1-.123.209.738.738,0,0,1-.357.074.862.862,0,0,1-.369-.111l-3.937-2.264a.3.3,0,0,1-.172-.221.186.186,0,0,1,.123-.209l1.021-.591a2.632,2.632,0,0,1,1.415-.283,3.284,3.284,0,0,1,1.513.406l1.575.91a1.625,1.625,0,0,0,.75.209,1.23,1.23,0,0,0,.714-.148l.689-.394a.406.406,0,0,0,.246-.406.64.64,0,0,0-.357-.443l-1.575-.91a1.66,1.66,0,0,0-.75-.2,1.231,1.231,0,0,0-.714.148.664.664,0,0,1-.357,0,.763.763,0,0,1-.381-.1.332.332,0,0,1-.172-.221.184.184,0,0,1,.123-.2,2.535,2.535,0,0,1,1.427-.3,3.138,3.138,0,0,1,1.5.418l1.575.9a1.23,1.23,0,0,1,.714.873.8.8,0,0,1-.492.824l-.689.394a2.461,2.461,0,0,1-1.415.3,3.383,3.383,0,0,1-1.587-.357Z" transform="translate(-17.031 -318.847)"/><path class="s" d="M155.965,419.744l-2.362-1.366a.344.344,0,0,1-.172-.209.2.2,0,0,1,.123-.209.763.763,0,0,1,.357-.074.923.923,0,0,1,.381.1l.787.455,3.4-1.956a.406.406,0,0,0,.246-.406.591.591,0,0,0-.344-.443h0a.332.332,0,0,1-.172-.221c0-.086,0-.148.123-.2a.639.639,0,0,1,.357-.086.981.981,0,0,1,.381.111h0a1.23,1.23,0,0,1,.714.873.812.812,0,0,1-.5.812l-3.408,1.968.787.455a.32.32,0,0,1,.185.221.222.222,0,0,1-.135.2.53.53,0,0,1-.357.074A.751.751,0,0,1,155.965,419.744Z" transform="translate(-15.869 -318.226)"/><path class="s" d="M163.339,422.044l-.332.2a2.67,2.67,0,0,1-1.427.283,3.273,3.273,0,0,1-1.5-.406l-1.575-.91a1.23,1.23,0,0,1-.714-.873.824.824,0,0,1,.5-.824.6.6,0,0,1,.345-.061.763.763,0,0,1,.381.1.32.32,0,0,1,.185.221.221.221,0,0,1-.123.2.406.406,0,0,0-.258.418.615.615,0,0,0,.357.431l1.575.91a1.623,1.623,0,0,0,.75.209,1.23,1.23,0,0,0,.714-.148l.344-.2a.406.406,0,0,0,.246-.418.615.615,0,0,0-.357-.431l-.394-.221a.369.369,0,0,1-.185-.221.234.234,0,0,1,.135-.209.713.713,0,0,1,.344-.074.923.923,0,0,1,.381.111l.394.221a1.673,1.673,0,0,0,.763.209,1.3,1.3,0,0,0,.714-.148l.332-.2a.431.431,0,0,0,.258-.406.664.664,0,0,0-.357-.443l-1.575-.9a1.537,1.537,0,0,0-.763-.209,1.23,1.23,0,0,0-.7.148.8.8,0,0,1-.357.074.922.922,0,0,1-.381-.111.32.32,0,0,1-.185-.221.221.221,0,0,1,.135-.2,2.46,2.46,0,0,1,1.415-.3,3.148,3.148,0,0,1,1.513.418l1.575.9a1.231,1.231,0,0,1,.714.873.824.824,0,0,1-.5.824l-.344.2a2.238,2.238,0,0,1-.7.246,4.791,4.791,0,0,1-.849,0,.726.726,0,0,1,0,.48,1.082,1.082,0,0,1-.492.455Z" transform="translate(-14.865 -317.647)"/><path class="s" d="M141.686,421.491l-1.378-.8s-.1-.074-.1-.123v-.123a.528.528,0,0,1,.209,0,.431.431,0,0,1,.221.061l.468.258,1.981-1.144a.234.234,0,0,0,.148-.234.393.393,0,0,0-.2-.258h0a.234.234,0,0,1-.111-.135.135.135,0,0,1,.074-.111.382.382,0,0,1,.209,0,.592.592,0,0,1,.221.062h0a.726.726,0,0,1,.418.517.492.492,0,0,1-.3.48l-1.981,1.144.455.258a.234.234,0,0,1,.111.135.111.111,0,0,1-.086.111.332.332,0,0,1-.2,0,.588.588,0,0,1-.172-.1Z" transform="translate(-18.913 -317.365)"/><path class="s" d="M145.344,422.212l-.91-.529a1.033,1.033,0,0,0-.443-.123.847.847,0,0,0-.418.086l-.3.172a.062.062,0,0,0,0,.062.086.086,0,0,0,0,.062l1.956,1.132c.062,0,.1.074.1.123a.11.11,0,0,1-.074.123.283.283,0,0,1-.209,0,.417.417,0,0,1-.209,0l-2.3-1.316a.172.172,0,0,1-.1-.135.1.1,0,0,1,.062-.111l.6-.344a1.439,1.439,0,0,1,.824-.172,1.859,1.859,0,0,1,.886.234l.923.529a.848.848,0,0,0,.443.123.6.6,0,0,0,.406-.086l.406-.221a.246.246,0,0,0,.148-.246c0-.1-.086-.172-.221-.258l-.91-.529a.984.984,0,0,0-.443-.111.64.64,0,0,0-.418.086.494.494,0,0,1-.209,0,.419.419,0,0,1-.209-.062.209.209,0,0,1-.111-.123.148.148,0,0,1,.074-.123,1.562,1.562,0,0,1,.837-.172,1.809,1.809,0,0,1,.874.246l.923.529a.726.726,0,0,1,.418.5.468.468,0,0,1-.3.48l-.394.234a1.587,1.587,0,0,1-.837.172,1.906,1.906,0,0,1-.873-.234Z" transform="translate(-18.399 -317.04)"/><path class="s" d="M149.824,424.786l-.923-.529a.848.848,0,0,0-.443-.111.714.714,0,0,0-.406.074l-.308.172v.061a.1.1,0,0,0,.062,0l1.944,1.132a.209.209,0,0,1,.111.123.135.135,0,0,1-.074.123.381.381,0,0,1-.209,0,.588.588,0,0,1-.221-.062l-2.337-1.218c-.062,0-.1-.074-.1-.123a.1.1,0,0,1,.074-.123l.59-.344a1.587,1.587,0,0,1,.837-.172,1.809,1.809,0,0,1,.873.246l.923.529a.984.984,0,0,0,.443.123.849.849,0,0,0,.418-.086l.394-.234c.111,0,.16-.135.148-.234a.381.381,0,0,0-.209-.258l-.923-.529a.984.984,0,0,0-.443-.123.713.713,0,0,0-.406.086.381.381,0,0,1-.209,0,.591.591,0,0,1-.221,0,.234.234,0,0,1-.111-.135.148.148,0,0,1,.074-.123,1.488,1.488,0,0,1,.837-.16,1.9,1.9,0,0,1,.886.234l.91.529a.726.726,0,0,1,.418.517.492.492,0,0,1-.3.48l-.394.221a1.439,1.439,0,0,1-.824.172,1.819,1.819,0,0,1-.886-.258Z" transform="translate(-17.368 -316.44)"/><path class="s" d="M153.446,427.165l-.2.111a1.439,1.439,0,0,1-.824.172,1.907,1.907,0,0,1-.886-.246l-.91-.529a.689.689,0,0,1-.418-.5.468.468,0,0,1,.3-.48.32.32,0,0,1,.2,0,.418.418,0,0,1,.221,0,.234.234,0,0,1,.111.135.148.148,0,0,1-.074.123c-.111.061-.16.135-.148.234a.381.381,0,0,0,.209.258l.91.529a1.083,1.083,0,0,0,.443.123.848.848,0,0,0,.418-.086l.2-.123c.111,0,.16-.135.148-.234a.382.382,0,0,0-.209-.258l-.234-.135s-.1-.074-.1-.123a.11.11,0,0,1,.074-.123.491.491,0,0,1,.209,0,.455.455,0,0,1,.221,0l.221.135a.911.911,0,0,0,.443.111.64.64,0,0,0,.418-.086l.2-.111a.234.234,0,0,0,.148-.234.381.381,0,0,0-.209-.258l-.91-.529a1.083,1.083,0,0,0-.443-.123.848.848,0,0,0-.418.086.3.3,0,0,1-.209,0,.587.587,0,0,1-.221,0,.172.172,0,0,1-.1-.135.145.145,0,0,1,.074-.123,1.55,1.55,0,0,1,.824-.16,1.893,1.893,0,0,1,.886.234l.91.529a.726.726,0,0,1,.418.517.492.492,0,0,1-.3.48l-.2.111a1.231,1.231,0,0,1-.406.135,1.725,1.725,0,0,1-.5,0,.418.418,0,0,1,0,.3.566.566,0,0,1-.283.283Z" transform="translate(-16.61 -316.051)"/><path class="s" d="M145.052,423.91h0a.16.16,0,0,1,.086-.2l3.986-1.661a.154.154,0,0,1,.123.283L145.261,424a.16.16,0,0,1-.209-.086Z" transform="translate(-17.8 -316.634)"/><path class="a" d="M190.2,410.717l-13.336,7.7a3.986,3.986,0,0,1-3.617,0l-16.276-9.276a1.095,1.095,0,0,1,0-2.079l13.336-7.7a3.986,3.986,0,0,1,3.617,0c4.4,2.547,11.86,6.717,16.264,9.276a1.095,1.095,0,0,1,.012,2.079Z" transform="translate(-15.226 -321.956)"/><g class="t" transform="translate(140.993 76.971)"><path class="g" d="M190.2,410.717l-13.336,7.7a3.986,3.986,0,0,1-3.617,0l-16.276-9.276a1.095,1.095,0,0,1,0-2.079l13.336-7.7a3.986,3.986,0,0,1,3.617,0c4.4,2.547,11.86,6.717,16.264,9.276a1.095,1.095,0,0,1,.012,2.079Z" transform="translate(-156.219 -398.927)"/><path class="a" d="M188.432,414.644l1.218-.246L162.99,399.13l-1.23.234Z" transform="translate(-154.944 -398.881)"/><path class="a" d="M169.65,410.695l1.23.234L177.671,407l-1.23-.234Z" transform="translate(-153.127 -397.121)"/><path class="a" d="M164.49,407.832l1.23.234,6.779-3.912-1.218-.234Z" transform="translate(-154.315 -397.778)"/><path class="a" d="M182.89,417.834l1.23-.234-26.66-15.28-1.23.246Z" transform="translate(-156.217 -398.146)"/></g><path class="d" d="M127.568,414.122l-63.7-36.772a4.429,4.429,0,0,0-4.011,0l-.283.16a1.23,1.23,0,0,0,0,2.313l63.715,36.785a4.429,4.429,0,0,0,4.011,0l.271-.16a1.23,1.23,0,0,0,0-2.325Z" transform="translate(-37.667 -327.035)"/><path class="a" d="M111.091,350.808a.972.972,0,0,1,.369,0,.763.763,0,0,1,.32.086l1,.578c.1.061.148.123.148.2s0,.148-.148.2a5.449,5.449,0,0,1-1.23.443,6.506,6.506,0,0,1-1.587.148,8.054,8.054,0,0,1-1.8-.271,7.6,7.6,0,0,1-1.907-.8,4.342,4.342,0,0,1-1.23-1.021,1.734,1.734,0,0,1-.406-1.058,1.685,1.685,0,0,1,.369-1.033,4.378,4.378,0,0,1,1.07-.972l1.021-.615,1.07-.591a7.271,7.271,0,0,1,1.685-.615,7.381,7.381,0,0,1,1.8-.221,7.7,7.7,0,0,1,1.821.234,6.939,6.939,0,0,1,1.772.738,4.92,4.92,0,0,1,1.39,1.095,1.981,1.981,0,0,1,.455,1.046,1.378,1.378,0,0,1-.258.91,3.063,3.063,0,0,1-.75.738.615.615,0,0,1-.332.086.947.947,0,0,1-.344-.086l-1.009-.59a.259.259,0,0,1-.148-.172.319.319,0,0,1,.111-.221,1.143,1.143,0,0,0,.308-.381.824.824,0,0,0,0-.455,1.23,1.23,0,0,0-.3-.529,2.855,2.855,0,0,0-.726-.554,3.433,3.433,0,0,0-1-.394,3.952,3.952,0,0,0-1-.123,4.292,4.292,0,0,0-.972.123,4.022,4.022,0,0,0-.886.344l-1.07.578-1.009.615a2.8,2.8,0,0,0-.591.517.947.947,0,0,0-.209.554.886.886,0,0,0,.2.578,2.165,2.165,0,0,0,.7.578,4.06,4.06,0,0,0,.96.418,4.256,4.256,0,0,0,.9.172,3.521,3.521,0,0,0,.812,0,2.462,2.462,0,0,0,.627-.271Z" transform="translate(-27.107 -334.314)"/><path class="a" d="M122.415,350.492c1.033.6,1.587,1.23,1.636,1.784s-.332,1.119-1.23,1.612a5.1,5.1,0,0,1-1.968.652,5.672,5.672,0,0,1-2.165-.16l-1.353,2.768-.1.1a.639.639,0,0,1-.283.062.628.628,0,0,1-.271-.061l-1.058-.615c-.16-.086-.246-.185-.246-.271a.443.443,0,0,1,0-.234l1.23-2.608-1.649-.947-2.891,1.673a.737.737,0,0,1-.332.074.751.751,0,0,1-.344-.074l-1-.578a.234.234,0,0,1-.135-.2.221.221,0,0,1,.135-.2l8.009-4.626a.627.627,0,0,1,.344-.086.578.578,0,0,1,.332.086Zm-5.77,1.23,1.8,1.046a3.924,3.924,0,0,0,1.378.5,2.141,2.141,0,0,0,1.366-.3c.467-.271.64-.529.517-.787a2.251,2.251,0,0,0-.9-.787l-1.8-1.033Z" transform="translate(-25.809 -333.554)"/><path class="a" d="M124.266,359.815a.2.2,0,0,1,0,.381l-.886.517a.787.787,0,0,1-.664,0l-5.45-3.149a.221.221,0,0,1-.135-.2.234.234,0,0,1,.135-.2l8.021-4.626a.665.665,0,0,1,.332-.074.7.7,0,0,1,.332.074l5.352,3.088a.234.234,0,0,1,.135.2.259.259,0,0,1-.135.2l-.886.5a.788.788,0,0,1-.664,0l-4.011-2.313-1.981,1.132,3.691,2.165a.221.221,0,0,1,.135.2.2.2,0,0,1-.135.184l-.873.517a.75.75,0,0,1-.344.074.665.665,0,0,1-.332-.074l-3.691-2.165-2.055,1.23Z" transform="translate(-24.227 -332.653)"/><path class="a" d="M135.229,357.905a4.922,4.922,0,0,1,1.353,1.07,1.759,1.759,0,0,1,.443,1.046,1.6,1.6,0,0,1-.394,1.021,4.294,4.294,0,0,1-1.12.984c-.578.381-1.23.726-1.833,1.07a8.5,8.5,0,0,1-1.71.64,6.682,6.682,0,0,1-1.772.234,7.016,7.016,0,0,1-1.8-.246,7.58,7.58,0,0,1-1.808-.763l-3.125-1.808a.2.2,0,0,1,0-.381l8.021-4.638a.7.7,0,0,1,.332-.074.751.751,0,0,1,.344.074Zm-1.39,3.162a2.459,2.459,0,0,0,.578-.517.947.947,0,0,0,.209-.566.984.984,0,0,0-.234-.6,2.769,2.769,0,0,0-.787-.615l-1.661-.96-5.585,3.223,1.722,1a4.1,4.1,0,0,0,2.042.566,4.3,4.3,0,0,0,.972-.123,4.121,4.121,0,0,0,.9-.344,19.108,19.108,0,0,0,1.87-1.058Z" transform="translate(-22.802 -331.827)"/><path class="a" d="M130.6,365.253a.2.2,0,0,1-.135-.185.209.209,0,0,1,.135-.2l8.009-4.626a.627.627,0,0,1,.344-.086.578.578,0,0,1,.332.086l1.009.578a.2.2,0,0,1,0,.381l-8.021,4.638a.737.737,0,0,1-.332.074.752.752,0,0,1-.344-.074Z" transform="translate(-21.158 -330.883)"/><path class="a" d="M147.323,365.148a.221.221,0,0,1,.135.2q0,.111-.148.184l-.873.517a.737.737,0,0,1-.332.074.75.75,0,0,1-.344-.074l-2.227-1.23-6.8,3.925a.874.874,0,0,1-.332.086.947.947,0,0,1-.344-.086l-1-.578a.259.259,0,0,1-.148-.2.234.234,0,0,1,.148-.184l6.8-3.937-2.239-1.292a.2.2,0,0,1-.135-.185.209.209,0,0,1,.135-.2l.886-.517a.665.665,0,0,1,.332-.074.7.7,0,0,1,.332.074Z" transform="translate(-20.133 -330.556)"/><path class="a" d="M149.051,372.74a.775.775,0,0,1,.369-.062.7.7,0,0,1,.308.086l1.009.578a.222.222,0,0,1,.148.2q0,.111-.148.185a5.452,5.452,0,0,1-1.23.443,6.506,6.506,0,0,1-1.587.148,8,8,0,0,1-1.8-.258,7.222,7.222,0,0,1-1.907-.812,3.987,3.987,0,0,1-1.23-1.021,1.7,1.7,0,0,1-.406-1.046,1.624,1.624,0,0,1,.369-1.046,4.393,4.393,0,0,1,1.07-.972l1.021-.615c.381-.221.738-.406,1.07-.578a7.665,7.665,0,0,1,1.685-.627,6.824,6.824,0,0,1,1.8-.209,7.109,7.109,0,0,1,1.821.234,6.482,6.482,0,0,1,1.772.726,4.711,4.711,0,0,1,1.39,1.107,1.907,1.907,0,0,1,.455,1.033,1.39,1.39,0,0,1-.258.923,2.817,2.817,0,0,1-.75.726.542.542,0,0,1-.344.086.739.739,0,0,1-.332-.086l-1.009-.578a.308.308,0,0,1-.148-.185.232.232,0,0,1,.1-.221,1.12,1.12,0,0,0,.32-.369.861.861,0,0,0,0-.467,1.23,1.23,0,0,0-.3-.517,2.855,2.855,0,0,0-.726-.554,3.862,3.862,0,0,0-1-.406,4,4,0,0,0-1-.111,3.691,3.691,0,0,0-.972.123,4.707,4.707,0,0,0-.886.332l-1.07.591-1.009.615a2.25,2.25,0,0,0-.591.517,1.058,1.058,0,0,0-.221.554,1.046,1.046,0,0,0,.209.578,2.338,2.338,0,0,0,.7.578,4.636,4.636,0,0,0,.96.418,5.213,5.213,0,0,0,.9.172,4.387,4.387,0,0,0,.812,0A2.46,2.46,0,0,0,149.051,372.74Z" transform="translate(-18.367 -329.278)"/><path class="a" d="M160.985,372.437c.123.074.2.16.185.234a.492.492,0,0,1-.135.283l-4.81,6.287h-.074a.788.788,0,0,1-.664,0l-.9-.517c-.16-.1-.246-.185-.246-.258a.529.529,0,0,1,.074-.209l.837-1.095-3.924-2.264-1.907.48a1.34,1.34,0,0,1-.344,0,.8.8,0,0,1-.455-.135l-.886-.517a.209.209,0,0,1-.135-.2.221.221,0,0,1,.135-.185h.1l10.888-2.768a2.068,2.068,0,0,1,.492-.086.837.837,0,0,1,.406.111Zm-4.773,3.543,2.178-2.83-4.921,1.23Z" transform="translate(-17.211 -328.274)"/><path class="a" d="M167.415,376.471c1.033.591,1.575,1.23,1.636,1.772s-.344,1.132-1.23,1.624a5.166,5.166,0,0,1-1.968.652,5.67,5.67,0,0,1-2.165-.16l-1.353,2.756a.246.246,0,0,1-.1.1.505.505,0,0,1-.283.074.492.492,0,0,1-.271-.074l-1.046-.6c-.172-.1-.258-.2-.258-.283a.591.591,0,0,1,0-.221l1.23-2.608-1.649-.947-2.891,1.661a.577.577,0,0,1-.332.086.553.553,0,0,1-.332-.086l-1.009-.578a.209.209,0,0,1-.135-.2.2.2,0,0,1,.135-.185l8.157-4.638a.787.787,0,0,1,.664,0Zm-5.782,1.23,1.8,1.033a4.2,4.2,0,0,0,1.39.517,2.055,2.055,0,0,0,1.353-.308q.7-.406.517-.775a2.092,2.092,0,0,0-.9-.787l-1.8-1.046Z" transform="translate(-15.447 -327.572)"/><path class="a" d="M174.114,380.346a4.788,4.788,0,0,1,1.353,1.058,1.649,1.649,0,0,1,.443,1.046,1.71,1.71,0,0,1-.381,1.033,4.844,4.844,0,0,1-1.132.984c-.578.369-1.23.726-1.833,1.058a8.735,8.735,0,0,1-1.71.652,7.113,7.113,0,0,1-1.759.221,7.034,7.034,0,0,1-1.808-.246,7.748,7.748,0,0,1-1.8-.75l-3.125-1.809a.234.234,0,0,1-.135-.2.221.221,0,0,1,.135-.2l8.009-4.626a.614.614,0,0,1,.344-.074.577.577,0,0,1,.332.074Zm-1.39,3.149a2.461,2.461,0,0,0,.591-.517.947.947,0,0,0,.209-.566,1.009,1.009,0,0,0-.246-.6,2.645,2.645,0,0,0-.775-.6l-1.661-.96-5.585,3.223,1.722,1a3.8,3.8,0,0,0,1.021.418,3.691,3.691,0,0,0,1.021.135,3.766,3.766,0,0,0,.972-.123,4.382,4.382,0,0,0,.9-.345,13.892,13.892,0,0,0,1.833-1.009Z" transform="translate(-13.842 -326.66)"/></g><g transform="translate(432.881 72.296)"><g transform="translate(0 0)"><path class="u" d="M394.217,124.542c-3.58,7.7-9.707,20.447-13.065,27.509l-13.139-15.477H356.94s13.287,28.3,21.21,34.915a6.25,6.25,0,0,0,9.067-.541,116.867,116.867,0,0,0,8.895-12.3c6.274-9.694,9.079-13.877,9.079-13.877l7.9-33.217C406.224,111.034,399.187,113.851,394.217,124.542Z" transform="translate(-353.368 -57.292)"/><path class="a" d="M408.992,111.533c-4.22-.16-8.809-.689-12.832,2.83a32.725,32.725,0,0,0-8.784,12.3c-2.719,6.4-6.926,14.5-6.926,14.5a35.371,35.371,0,0,0,7.874,8.218,19.942,19.942,0,0,0,9.461,3.974Z" transform="translate(-347.955 -57.311)"/><path class="v" d="M408.992,111.533c-4.22-.16-8.809-.689-12.832,2.83a32.725,32.725,0,0,0-8.784,12.3c-2.719,6.4-6.926,14.5-6.926,14.5a35.371,35.371,0,0,0,7.874,8.218,19.942,19.942,0,0,0,9.461,3.974Z" transform="translate(-347.955 -57.311)"/><path class="w" d="M376.62,144.739a46.976,46.976,0,0,1,4.048,5.512s-1.415-5.216-3.334-7Z" transform="translate(-348.837 -49.98)"/><path class="d" d="M354.318,115.429h0l1.046-1.095h0a1.316,1.316,0,0,1,1.169-.246l12.721,2.165a4.564,4.564,0,0,1,3.039,2.325l11.441,24.864a1.23,1.23,0,0,1,0,1.341h0l-1.083,1.132h0a1.3,1.3,0,0,1-1.23.246l-12.672-2.153a4.577,4.577,0,0,1-3.039-2.337l-11.441-24.864C353.986,116.192,353.986,115.7,354.318,115.429Z" transform="translate(-354.031 -56.705)"/><path class="f" d="M382.657,144.348l-11.441-24.876a4.589,4.589,0,0,0-3.039-2.325l-12.721-2.141c-1.23-.2-1.722.517-1.23,1.612l11.441,24.863a4.577,4.577,0,0,0,3.039,2.337l12.721,2.153C382.607,146.156,383.161,145.43,382.657,144.348Z" transform="translate(-354.037 -56.49)"/><path class="e" d="M366.69,117.4a4.5,4.5,0,0,1,1.624,1.759l11.441,24.851a1.23,1.23,0,0,1,0,1.3l1.021-1.058h0a1.23,1.23,0,0,0,0-1.329l-11.441-24.863a4.256,4.256,0,0,0-1.5-1.661Z" transform="translate(-351.123 -56.162)"/><path class="u" d="M359.967,138.117c-5.266-6.041-5.118-13.607-2.694-15.8l1.6,3.494s8.058,1.8,11.934,1.5,7.037-1.23,8.1-.468c2.251,1.587,2.9,8.329-3.543,10.789C369.883,139.716,359.967,138.117,359.967,138.117Z" transform="translate(-353.664 -54.799)"/><g transform="translate(20.898 109.916)"><path class="u" d="M436.895,300.636c-3.408,1.833-7.554,1.685-11.589,0L423.62,278.59l13.275,1.735Z" transform="translate(-358.913 -128.732)"/><path class="u" d="M403.942,289.848c-2.866,6.213-8.058,4.49-13.9.517l1.033-22.145H405.16Z" transform="translate(-366.645 -131.12)"/><path class="f" d="M414.272,316.827a5.057,5.057,0,0,0,.148,3.408c.443.689,2.977,2.866,7.578,3.186,4.392.32,8.316-.271,10.888-1.907s3.826-3.445,4.072-5.942,0-4.921,1.156-6.853,2.854-3.777,3.236-4.737a9.694,9.694,0,0,0,0-5.093Z" transform="translate(-361.117 -124.058)"/><path class="e" d="M426.276,296.655a12.2,12.2,0,0,1-.529,2.78,26,26,0,0,1-2.694,5.512,25.157,25.157,0,0,1-1.833,2.584c-1.329,1.575-2.977,2.867-4.38,4.392a8.919,8.919,0,0,0-2.719,5.388c-.185,3.445,3.555,4.614,6.434,5.13a21.247,21.247,0,0,0,9.35-.468,8.612,8.612,0,0,0,6.3-6.865c.16-.96.1-1.944.221-2.9a13.644,13.644,0,0,1,2.67-6.028,17.566,17.566,0,0,0,2.055-3.273c.9-2.141.184-4.54-.394-6.656-.492-1.833-1.058-3.912-1.7-3.691a2.276,2.276,0,0,1-.16,1.107,4.917,4.917,0,0,0-.5,1.083,8.48,8.48,0,0,1-.517,1.415,3.69,3.69,0,0,1-1.538,1.685c0-1.23-.086-2.6-.123-3.9a1.821,1.821,0,0,0-.3-1.144,1.858,1.858,0,0,0-1.107-.48,24.053,24.053,0,0,0-7.382-.6,1.23,1.23,0,0,0-.984.431,1.428,1.428,0,0,0-.172.873,33.3,33.3,0,0,1,0,3.629Z" transform="translate(-361.101 -125.724)"/><path class="b" d="M421.009,303.512c1.23-.96,4.158-.972,5.733-.8a9.56,9.56,0,0,1,4.466,1.562,1.021,1.021,0,0,0,1.316-.1h0a.972.972,0,0,0-.1-1.464,9.694,9.694,0,0,0-5.032-1.87c-3.863-.271-4.995.394-4.995.394S420.652,302.417,421.009,303.512Z" transform="translate(-359.525 -123.624)"/><path class="b" d="M418.62,306.4c1.624-.947,4.773-.812,6.348-.652a9.043,9.043,0,0,1,4.343,1.661,1.009,1.009,0,0,0,1.316-.111h0a.947.947,0,0,0-.1-1.464,10.075,10.075,0,0,0-5.13-2.005c-3.863-.271-4.921.517-4.921.517A3.2,3.2,0,0,0,418.62,306.4Z" transform="translate(-360.064 -122.934)"/><path class="b" d="M428.531,297.9a9.411,9.411,0,0,0-4.859.406c-.677.381-1.132,1.452-.689,1.722a9.03,9.03,0,0,1,4.306-.591,12.857,12.857,0,0,1,4.183,1.156c.332.148.726.344,1.07.541a.91.91,0,0,0,1.23-.394h0a.849.849,0,0,0-.332-1.107,12.364,12.364,0,0,0-4.909-1.735Z" transform="translate(-359.1 -124.321)"/><path class="f" d="M371.32,298.752a4.17,4.17,0,0,0,.172,3.063c.431.9,5.118,3.543,11.441,3.113A26.217,26.217,0,0,0,396,300.364c2.461-1.6,4.921-1.895,8.046-2.079s7.246-1.735,7.923-3.2a6.926,6.926,0,0,0-.1-3.986Z" transform="translate(-371.004 -125.852)"/><path class="e" d="M396.744,281.72l-1.636-.64a1.316,1.316,0,0,0-.935-.1c-.406.148-.566.627-.677,1.046a15.71,15.71,0,0,1-.689,2.743,6.705,6.705,0,0,1-1.772,1.858,28.816,28.816,0,0,1-5.056,3.26c-2.067,1.107-4.084,1.968-6.225,2.928s-5.056,1.575-6.754,2.731c-2.46,1.673-2.8,5.868,0,7.529,2.461,1.427,8.846,2.977,15.575,1.07,3.691-1.033,7.726-4.921,12.536-5.327,3.063-.234,8.846-1.095,10.814-3.42.726-1.033-.246-4.294-1.033-7.111-.873-3.088-1.23-7.9-2.227-7.628-.074,1.021-.96,1.624-1.5,2.461a19,19,0,0,0-1.1,2.46,4.416,4.416,0,0,1-1.6,2.1,2.03,2.03,0,0,1-2.461-.135c-.9-.935-.369-2.571-1.021-3.691a3.8,3.8,0,0,0-2.153-1.415Z" transform="translate(-371.023 -128.258)"/><path class="b" d="M385.5,287.131a2.866,2.866,0,0,1,2.264-1.513c1.39-.258,3.851.763,5.376,2.03a1.132,1.132,0,0,1-.172,1.882h0a1.132,1.132,0,0,1-1.3-.148,8.723,8.723,0,0,0-6.164-2.251Z" transform="translate(-367.69 -127.124)"/><path class="b" d="M382,289.058a3.272,3.272,0,0,1,2.682-1.378,10.223,10.223,0,0,1,5.881,2.2,1.107,1.107,0,0,1-.148,1.821h0a1.07,1.07,0,0,1-1.23-.135A8.747,8.747,0,0,0,382,289.058Z" transform="translate(-368.496 -126.639)"/><path class="b" d="M378.12,290.8a3.691,3.691,0,0,1,2.78-1.23,9.743,9.743,0,0,1,5.635,2.227,1.107,1.107,0,0,1-.148,1.821h0a1.1,1.1,0,0,1-1.23-.148,8.39,8.39,0,0,0-7.037-2.67Z" transform="translate(-369.389 -126.204)"/><path class="e" d="M442.893,162.734c.787,24.125.726,82.427.726,82.427.258,3,1.476,9.165,2.46,21.173,1.3,15.637-1.513,50-1.513,50a15.993,15.993,0,0,1-12.6.074s-7.529-48.927-9.867-64.379c-2.1-13.533-6.225-44.092-6.225-44.092L411.115,247.6a81.014,81.014,0,0,1-.48,19.832c-1.107,7.111-6.028,36.342-6.028,36.342a24.926,24.926,0,0,1-13.976-.529s-.455-50.65-.591-57.232c-.135-7.517,3.334-89.231,3.334-89.231Z" transform="translate(-366.645 -156.78)"/><path class="f" d="M414.541,203.253l-3.568-19.77s-9.842-.861-15.354-6.373c0,0,.972,5.4,13.41,8.612l3.555,20-2.8,37.154Z" transform="translate(-365.36 -152.099)"/></g><path class="x" d="M394,130.089c1.058-7.726,2.079-18.109,14.05-18.589l15.452.738c3.8,1,18.589,2.743,18.589,2.743l.283,33.512s.935,24.162.652,37.092c-11.072,7.012-35.124,9.288-50.244-2.19C392.323,172.73,392.938,137.741,394,130.089Z" transform="translate(-345.151 -57.29)"/><path class="e" d="M395.918,81.9a15.292,15.292,0,0,0,6.766,21.37l-2.78,1.919,27.779,2.461-.357,6.693a5,5,0,0,0,2.965-2.239c1-1.784,3.691-12.733,3.691-12.733,2.608-5.979,3.888-12.13,2.018-14.173a5.216,5.216,0,0,0-2.768-1.6l3.691-1.858a2.965,2.965,0,0,0-4.023-1.464,3.053,3.053,0,0,0-.837.627,7.759,7.759,0,0,0,.185-1.23,5.462,5.462,0,0,0-.824-3.482,6.52,6.52,0,0,0-1.956-1.71c-3.125-1.956-6.828-2.682-10.31-3.912-1.968-.7-3.875-1.562-5.819-2.35a7.381,7.381,0,0,0-4.084-.738,2.707,2.707,0,0,0-2.227,3.113,5.241,5.241,0,0,0-5.733-.873,4.564,4.564,0,0,0-2.805,4.527,5.647,5.647,0,0,0-3.765.369,3.248,3.248,0,0,0-1.833,3.125,7.468,7.468,0,0,0,3.026,4.158Z" transform="translate(-345.092 -67.436)"/><path class="u" d="M414.718,82.745c2.559-.308,5.093-.726,7.628-1.12a.849.849,0,0,1,.677.086.688.688,0,0,1,.209.381c1.673,4.921,1.624,10.15,2.953,15.108.123.455.406,1.23.947,1.23.984.111,1.661-.763,2.079-1.526l.947-1.71a4.45,4.45,0,0,1,.7-.873c1.23-1.095,4.712-2.461,6.348,1.3s-1.87,8.833-4.7,9.621c-4.921,1.366-5.524-1.772-5.524-1.772l-.935,17.47c-4.33,4.527-18.565,2.953-15.747-.984l.185-5.315a30.2,30.2,0,0,1-6.545.123c-3.543-.664-5.684-3.543-6.643-7.382-1.538-6.25-1.366-13.89-.16-23.375a13.021,13.021,0,0,1,.873-3.272C402.994,83.52,409.059,83.422,414.718,82.745Z" transform="translate(-344.331 -64.373)"/><path class="w" d="M407.822,109.552s8.009-1.341,10.839-2.731a9.153,9.153,0,0,0,3.961-3.691,12.622,12.622,0,0,1-2.325,4.417c-2.116,2.534-12.536,4.109-12.536,4.109Z" transform="translate(-341.667 -59.217)"/><path class="f" d="M408.74,92.652A1.71,1.71,0,1,0,410.5,90.93a1.747,1.747,0,0,0-1.759,1.722Z" transform="translate(-341.441 -62.027)"/><path class="f" d="M410.67,86.781l3.58,1.538A2.042,2.042,0,0,0,413.2,85.7a1.907,1.907,0,0,0-2.534,1.083Z" transform="translate(-340.997 -63.266)"/><path class="y" d="M411.47,99.88l-5.61,1.907a2.9,2.9,0,0,0,3.691,1.956,3.1,3.1,0,0,0,1.919-3.863Z" transform="translate(-342.104 -59.966)"/><path class="w" d="M409.165,103.445a3.014,3.014,0,0,0,1.944-2.141,2.46,2.46,0,0,0-3.518,2.2,2.756,2.756,0,0,0,1.575-.062Z" transform="translate(-341.706 -59.693)"/><path class="f" d="M397.2,88.206l3.568-1.366a1.845,1.845,0,0,0-2.46-1.083,1.956,1.956,0,0,0-1.107,2.448Z" transform="translate(-344.123 -63.251)"/><path class="f" d="M398.2,92.655a1.722,1.722,0,1,0,1.772-1.735,1.759,1.759,0,0,0-1.772,1.735Z" transform="translate(-343.868 -62.029)"/><path class="w" d="M406.034,91.915l-.258,9.448-5.266-1.526,4.921-8A1.415,1.415,0,0,1,406.034,91.915Z" transform="translate(-343.336 -61.818)"/><path class="a" d="M392.339,139.727c.406-9.781,1.23-18.454,4.823-23.018s5.6-5.462,14.234-5.327v.591a3.2,3.2,0,0,0-2.461,1.415,50.934,50.934,0,0,0-6.643,14.763c-2.461,9.51-2.94,30.756-3.076,42.186s0,20.656,0,20.656-5.782-1.353-7.566-4.244C391.65,186.748,391.921,149.52,392.339,139.727Z" transform="translate(-345.376 -57.32)"/><path class="k" d="M392.339,139.727c.406-9.781,1.23-18.454,4.823-23.018s5.6-5.462,14.234-5.327v.591a3.2,3.2,0,0,0-2.461,1.415,50.934,50.934,0,0,0-6.643,14.763c-2.461,9.51-2.94,30.756-3.076,42.186s0,20.656,0,20.656-5.782-1.353-7.566-4.244C391.65,186.748,391.921,149.52,392.339,139.727Z" transform="translate(-345.376 -57.32)"/><path class="a" d="M416.926,123.876c1.23-5.216,3.777-8.612,4.921-11.306l10.8,1.526c3.974,1.833,9.141,6.151,8.759,10.58l-2.83,32.061.787,30.363c-6.151,9.584-24.605,7.812-24.605,7.812s-.529-13.656.062-40.033C415.191,140.091,415.364,130.519,416.926,123.876Z" transform="translate(-340.105 -57.044)"/><path class="k" d="M416.926,123.876c1.23-5.216,3.777-8.612,4.921-11.306l10.8,1.526c3.974,1.833,9.141,6.151,8.759,10.58l-2.83,32.061.787,30.363c-6.151,9.584-24.605,7.812-24.605,7.812s-.529-13.656.062-40.033C415.191,140.091,415.364,130.519,416.926,123.876Z" transform="translate(-340.105 -57.044)"/><path class="e" d="M416.07,127.1c.714-3.346,1.095-9.571,1.685-10.826s3.8-3.691,3.925-5.425V109.75a5.438,5.438,0,0,1,2.707,1.39c1.009.9,3.986,2.977,3.986,2.977a13.606,13.606,0,0,1-2.239,5.758c-1.772,2.547-4.232,4.207-4.613,3.58s-.32-1.587-.972-3.063c-.812-1.858-1.009-2.645-1.87-.812C418.038,121.044,416.07,127.1,416.07,127.1Z" transform="translate(-339.753 -57.693)"/><path class="e" d="M401.136,125.181c-.874,2.83,1.427-9.768,2.928-11.983s5.315-3.088,5.315-3.088l-.16,2.719a4.121,4.121,0,0,0-2.46,1.7,46.121,46.121,0,0,0-5.622,10.654Z" transform="translate(-343.236 -57.61)"/><path class="a" d="M415.778,126a233.616,233.616,0,0,1,24.605,3.851l-.086.91A231.889,231.889,0,0,0,415.63,126.9,4.893,4.893,0,0,0,415.778,126Z" transform="translate(-339.854 -53.951)"/><path class="a" d="M392.848,126c2.694-.32,5.758-.6,9.116-.763l-.221.923c-3.322.16-6.348.443-8.993.763C392.775,126.618,392.812,126.3,392.848,126Z" transform="translate(-345.123 -54.126)"/><path class="u" d="M458.552,157.036c-11.54-29.3-14.062-38.421-22.206-41.829a21.9,21.9,0,0,0-6.7-1.427c-2.005,3.691-4.921,17.863,4.7,27.73,0,0,6.988,17.224,10.506,25.368-.111,8.194.48,15.021-2.018,26.094a7.381,7.381,0,0,1-2.78,3.691c-2.928,1.612-3.42,3.432-5.585,5.512-1.685,1.624-3.162,2.005-2.916,2.547a3.174,3.174,0,0,0,3.691,1.3,27.462,27.462,0,0,0,4.54-2.374c.283.332-2.46,4.7-5.3,7.886-4.22,4.687-5.241,8.07,3.186,8.4,5.278.209,10.974-4.121,14.554-14.64.7-2.079,1.439-5.081,2.19-8.009.541-1.23,4.4-20.988,5.216-27.066C460.705,162.72,460.435,161.8,458.552,157.036Z" transform="translate(-337.097 -56.765)"/><path class="a" d="M428.34,113.841a16.732,16.732,0,0,1,10.223,1.8c4.564,2.756,6.151,5.167,11.651,17.986s6.582,15.292,6.582,15.292-2.46,7.308-17.15,8.144l-6.582-15.009s-5.462-6.8-5.967-15.206S428.34,113.841,428.34,113.841Z" transform="translate(-337.235 -56.79)"/><path class="v" d="M428.34,113.841a16.732,16.732,0,0,1,10.223,1.8c4.564,2.756,6.151,5.167,11.651,17.986s6.582,15.292,6.582,15.292-2.46,7.308-17.15,8.144l-6.582-15.009s-5.462-6.8-5.967-15.206S428.34,113.841,428.34,113.841Z" transform="translate(-337.235 -56.79)"/></g></g></g></svg>