<svg xmlns="http://www.w3.org/2000/svg" width="540.127" height="455.334" viewBox="0 0 540.127 455.334"><defs><style>.a{fill:#455a64;}.b{fill:#263238;}.c{fill:rgba(250,255,254,0.98);}.d{fill:#0186ff;}.e{fill:#e0e0e0;}.f{fill:#2286ff;}.g{opacity:0.8;}.h{fill:#fff;}.i{opacity:0.4;}.j{opacity:0.5;}.k{fill:#fafafa;}</style></defs><g transform="translate(-380.467 -1802.673)"><g transform="translate(228.987 1735.003)"><path class="a" d="M672.745,62.06H164.319A15.874,15.874,0,0,0,148.48,77.922v359.05a15.874,15.874,0,0,0,15.839,15.874H359.453s12.406,38.378-26.066,58.235H515.824s-43.4-14.89-32.274-58.235h189.2a15.874,15.874,0,0,0,15.862-15.874V77.922A15.862,15.862,0,0,0,672.745,62.06Z" transform="translate(3 11.924)"/><path class="b" d="M387.253,363.843c6.912,9.887-3.913,20.712-13.8,13.8a3.446,3.446,0,0,1-.843-.855c-6.9-9.876,3.913-20.688,13.788-13.788A3.655,3.655,0,0,1,387.253,363.843Z" transform="translate(37.547 50.272)"/><path class="c" d="M167.3,67.67H667.156a11.363,11.363,0,0,1,11.363,11.363V386.2H156V79.033A11.363,11.363,0,0,1,167.3,67.67Z" transform="translate(0.775)"/><path class="d" d="M166.672,67.67H669.709a8.81,8.81,0,0,1,8.774,8.81V94.134H156V78.389A10.719,10.719,0,0,1,166.672,67.67Z" transform="translate(0.775)"/><circle class="e" cx="3.667" cy="3.667" r="3.667" transform="translate(169.697 77.792)"/><circle class="e" cx="3.667" cy="3.667" r="3.667" transform="translate(180.638 77.792)"/><circle class="e" cx="3.667" cy="3.667" r="3.667" transform="translate(191.041 77.792)"/><path class="b" d="M565.68,395.725c0,.176-72.339.3-161.548.3s-161.572-.129-161.572-.3,72.328-.3,161.572-.3S565.68,395.561,565.68,395.725Z" transform="translate(15.619 56.205)"/><path class="f" d="M473.869,132.816,394.208,103.47l-78.9,28.959c-10.075,4.873-18.908,7.8-18.908,17.42V197.81a184.674,184.674,0,0,0,26,95.383c14.714,24.5,37.488,49.718,72.632,65.756,32.251-10.743,56.325-39.385,71.039-63.893a184.6,184.6,0,0,0,26-95.371V156.55C492,142.82,484.916,136.119,473.869,132.816Z" transform="translate(24.852 6.139)"/><g class="g" transform="translate(321.25 109.609)"><path class="h" d="M473.869,132.816,394.208,103.47l-78.9,28.959c-10.075,4.873-18.908,7.8-18.908,17.42V197.81a184.674,184.674,0,0,0,26,95.383c14.714,24.5,37.488,49.718,72.632,65.756,32.251-10.743,56.325-39.385,71.039-63.893a184.6,184.6,0,0,0,26-95.371V156.55C492,142.82,484.916,136.119,473.869,132.816Z" transform="translate(-296.398 -103.47)"/></g><path class="f" d="M435.656,250.865H421.012V171.2a34.014,34.014,0,1,0-68.028,0v79.661H338.34V171.2a48.661,48.661,0,1,1,97.321,0Z" transform="translate(32.044 9.41)"/><g class="i" transform="translate(370.384 131.95)"><path d="M435.656,250.865H421.012V171.2a34.014,34.014,0,1,0-68.028,0v79.661H338.34V171.2a48.661,48.661,0,1,1,97.321,0Z" transform="translate(-338.34 -122.54)"/></g><rect class="f" width="131.148" height="84.136" rx="5.81" transform="translate(353.468 224.825)"/><g class="j" transform="translate(408.07 244.967)"><path d="M392.44,229.986a10.965,10.965,0,1,0-13.952,10.543v16.4h5.986v-16.4a10.93,10.93,0,0,0,7.966-10.543Z" transform="translate(-370.509 -219.014)"/></g><path class="k" d="M329.949,276c-.3,0-.539-14.058-.539-31.337s.234-31.337.539-31.337.551,14.058.551,31.337S330.253,276,329.949,276Z" transform="translate(30.513 24.979)"/><path class="k" d="M373.608,244.482a5.117,5.117,0,0,1-1.289-.726,13.155,13.155,0,0,1-2.823-2.882,15.358,15.358,0,0,1,5.459-23.055,13.473,13.473,0,0,1,3.866-1.3,3.514,3.514,0,0,1,1.476-.082c0,.211-2.074.41-4.92,2.062a15.229,15.229,0,0,0-5.19,21.942,32.425,32.425,0,0,0,3.421,4.042Z" transform="translate(36.853 25.504)"/><path class="f" d="M494.526,333.28s.316-.445.949-1.277l.527-.7c.187-.269.351-.586.539-.926a13.862,13.862,0,0,0,1.172-2.4c.187-.48.41-.972.6-1.511s.316-1.172.48-1.734a10.852,10.852,0,0,0,.4-1.933,19.9,19.9,0,0,0,.3-2.132,40.884,40.884,0,0,0-.469-10.274c-1.172-7.7-4.452-16.741-9.442-26.581a207.092,207.092,0,0,0-20.267-31.513,322.659,322.659,0,0,0-30.224-33.973,369.17,369.17,0,0,0-39.667-33.868c-7.416-5.436-15.229-10.719-23.43-15.7a228.3,228.3,0,0,0-26.054-13.66,121.835,121.835,0,0,0-28.983-9.079,51.44,51.44,0,0,0-15.464-.387,29.159,29.159,0,0,0-7.462,2.167,18.6,18.6,0,0,0-10.157,11.328,28.842,28.842,0,0,0-1.3,7.662,51.239,51.239,0,0,0,2.12,15.323,121.543,121.543,0,0,0,12.324,27.764,227.487,227.487,0,0,0,16.542,24.344c5.857,7.615,12.019,14.772,18.263,21.509a369.25,369.25,0,0,0,38.167,35.578,324.325,324.325,0,0,0,37.171,26.159,207.143,207.143,0,0,0,33.61,16.541c10.344,3.843,19.7,6.045,27.483,6.349a39.95,39.95,0,0,0,10.262-.7,20.615,20.615,0,0,0,2.073-.527,13.7,13.7,0,0,0,1.886-.621l1.664-.679c.515-.246.984-.527,1.429-.761a15.137,15.137,0,0,0,2.261-1.476c.3-.234.609-.422.855-.633l.633-.609,1.172-1.089-1.113,1.171-.633.633c-.246.211-.539.41-.855.656a15.226,15.226,0,0,1-2.249,1.5c-.445.246-.914.527-1.429.785l-1.675.691a11.862,11.862,0,0,1-1.886.633,20.8,20.8,0,0,1-2.085.562,40.612,40.612,0,0,1-10.309.761c-7.814-.269-17.209-2.46-27.589-6.267a206.515,206.515,0,0,1-33.715-16.506,319.3,319.3,0,0,1-37.265-26.136,368.568,368.568,0,0,1-38.261-35.578c-6.268-6.748-12.418-13.917-18.31-21.544a229.118,229.118,0,0,1-16.6-24.39,122.619,122.619,0,0,1-12.394-27.9A51.91,51.91,0,0,1,286,166.788a29.006,29.006,0,0,1,1.336-7.837,19.142,19.142,0,0,1,10.438-11.715,29.172,29.172,0,0,1,7.626-2.214,51.546,51.546,0,0,1,15.651.387,121.706,121.706,0,0,1,29.123,9.138,224.678,224.678,0,0,1,26.03,13.742c8.2,4.991,16.073,10.286,23.43,15.733a370.32,370.32,0,0,1,39.7,33.973,322.784,322.784,0,0,1,30.2,34.043,207.007,207.007,0,0,1,20.232,31.63c4.967,9.876,8.2,18.966,9.372,26.686a40.556,40.556,0,0,1,.41,10.333,19.653,19.653,0,0,1-.3,2.144,13.529,13.529,0,0,1-.422,1.945c-.176.609-.34,1.171-.492,1.745a13.055,13.055,0,0,1-.621,1.511,13.39,13.39,0,0,1-1.242,2.4c-.2.34-.363.656-.551.925l-.551.691C494.819,332.87,494.526,333.28,494.526,333.28Z" transform="translate(23.068 13.193)"/><path class="f" d="M535.867,235.695s-.058-.539-.141-1.582a6.106,6.106,0,0,0-.07-.879,6.713,6.713,0,0,0-.211-1.054,14.546,14.546,0,0,0-.7-2.6c-.176-.48-.34-1-.551-1.523s-.527-1.043-.808-1.617a12.282,12.282,0,0,0-1.031-1.746c-.387-.562-.715-1.171-1.172-1.781a40.488,40.488,0,0,0-7.193-7.357c-6.01-4.944-14.468-9.536-24.73-13.554a207.667,207.667,0,0,0-36.105-10.028A322.6,322.6,0,0,0,418,186.762a370.2,370.2,0,0,0-52.155,1.172c-9.149.867-18.5,2.132-27.952,3.9a227.384,227.384,0,0,0-28.537,7.146,122.055,122.055,0,0,0-27.706,12.511,51.546,51.546,0,0,0-11.715,10,28.654,28.654,0,0,0-4.124,6.584,18.591,18.591,0,0,0,0,15.229,29.053,29.053,0,0,0,4.124,6.584,51.231,51.231,0,0,0,11.715,9.946,121.833,121.833,0,0,0,27.694,12.523,226.379,226.379,0,0,0,28.537,7.146c9.454,1.781,18.8,3.034,27.952,3.9a368.424,368.424,0,0,0,52.155,1.171,322.4,322.4,0,0,0,45.149-5.213,207.083,207.083,0,0,0,36.105-10.028c10.274-4.018,18.744-8.61,24.73-13.554a40.106,40.106,0,0,0,7.193-7.357,19.741,19.741,0,0,0,1.172-1.781,11.628,11.628,0,0,0,.984-1.71l.808-1.617c.211-.527.375-1.043.551-1.523a14.527,14.527,0,0,0,.7-2.6c.07-.375.164-.726.211-1.043s0-.621.07-.879c.082-1.054.141-1.582.141-1.582s0,.539-.082,1.582v.89a6.587,6.587,0,0,1-.2,1.054,14.652,14.652,0,0,1-.679,2.612c-.176.492-.328,1.007-.551,1.546l-.785,1.628a12.209,12.209,0,0,1-.984,1.722c-.387.574-.715,1.23-1.172,1.816a40.19,40.19,0,0,1-7.2,7.427c-6.01,4.991-14.48,9.63-24.754,13.683a207.566,207.566,0,0,1-36.164,10.1,322.678,322.678,0,0,1-45.208,5.307,369.308,369.308,0,0,1-52.237-1.09c-9.161-.867-18.521-2.12-28.01-3.889a228.447,228.447,0,0,1-28.608-7.146,122.409,122.409,0,0,1-27.835-12.582,52.308,52.308,0,0,1-11.926-10.133,29.287,29.287,0,0,1-4.217-6.748,19.2,19.2,0,0,1,0-15.663,29.614,29.614,0,0,1,4.217-6.736,51.769,51.769,0,0,1,11.937-10.122,121.837,121.837,0,0,1,27.823-12.57,226.442,226.442,0,0,1,28.608-7.158c9.477-1.769,18.837-3.022,28-3.889a369.234,369.234,0,0,1,52.237-1.078,320.983,320.983,0,0,1,45.219,5.33,207.134,207.134,0,0,1,36.14,10.133c10.286,4.065,18.744,8.692,24.765,13.683a40.607,40.607,0,0,1,7.181,7.439,19.994,19.994,0,0,1,1.172,1.8,13.676,13.676,0,0,1,.984,1.722l.785,1.64c.223.527.375,1.054.551,1.535a14.5,14.5,0,0,1,.68,2.624c.07.375.152.726.2,1.054a5.479,5.479,0,0,1,0,.879A10.9,10.9,0,0,1,535.867,235.695Z" transform="translate(19.214 20.257)"/><path class="f" d="M479.294,132.844s-.469-.281-1.336-.855l-.738-.48c-.281-.164-.621-.3-.961-.48A14.855,14.855,0,0,0,473.776,130c-.492-.152-1-.351-1.546-.5l-1.792-.4a12.512,12.512,0,0,0-1.956-.269c-.691,0-1.394-.176-2.144-.152a41,41,0,0,0-10.227,1.171c-7.58,1.71-16.4,5.588-25.855,11.246a206.766,206.766,0,0,0-30.049,22.387,322.279,322.279,0,0,0-31.782,32.485,369.956,369.956,0,0,0-31.056,41.916c-4.92,7.767-9.653,15.921-14.058,24.484a228.669,228.669,0,0,0-11.832,26.944,121.706,121.706,0,0,0-7.029,29.545,51.1,51.1,0,0,0,.691,15.452,28.584,28.584,0,0,0,2.671,7.3,18.568,18.568,0,0,0,12,9.313,28.622,28.622,0,0,0,7.732.773,51.229,51.229,0,0,0,15.136-3.175,121.834,121.834,0,0,0,26.862-14.21,226.807,226.807,0,0,0,23.137-18.182c7.193-6.385,13.917-13,20.208-19.7a368.779,368.779,0,0,0,32.8-40.522,322.369,322.369,0,0,0,23.582-38.847,207.807,207.807,0,0,0,14.187-34.676c3.116-10.543,4.686-20.068,4.44-27.846a40.073,40.073,0,0,0-1.406-10.192,19.8,19.8,0,0,0-.679-2.038,12.383,12.383,0,0,0-.738-1.828c-.281-.562-.539-1.172-.785-1.617s-.6-.949-.867-1.371a14.509,14.509,0,0,0-1.628-2.156c-.246-.293-.469-.574-.691-.808l-.656-.6c-.773-.7-1.171-1.078-1.171-1.078l1.171,1.031.656.586c.234.234.457.515.715.808a13.109,13.109,0,0,1,1.652,2.144c.281.433.6.879.89,1.371l.8,1.617a11.878,11.878,0,0,1,.773,1.839c.211.656.527,1.312.691,2.05a40.7,40.7,0,0,1,1.476,10.227c.269,7.814-1.265,17.338-4.358,27.952a207,207,0,0,1-14.128,34.781,322.623,322.623,0,0,1-23.512,38.975,369.352,369.352,0,0,1-32.8,40.615c-6.3,6.724-13.027,13.355-20.232,19.763a227.006,227.006,0,0,1-23.2,18.228,121.647,121.647,0,0,1-26.944,14.28,51.382,51.382,0,0,1-15.405,3.222,29.554,29.554,0,0,1-7.908-.8,19.177,19.177,0,0,1-12.383-9.606,29.148,29.148,0,0,1-2.73-7.462,51.944,51.944,0,0,1-.7-15.628,122.314,122.314,0,0,1,7.111-29.7A228.236,228.236,0,0,1,322.783,262.2c4.4-8.575,9.149-16.741,14.058-24.519a369.552,369.552,0,0,1,31.138-41.939,322.726,322.726,0,0,1,31.888-32.485A206.186,206.186,0,0,1,430.1,140.81c9.512-5.647,18.357-9.5,25.984-11.188a39.937,39.937,0,0,1,10.274-1.172,20.653,20.653,0,0,1,2.156.164,12.631,12.631,0,0,1,1.968.281l1.781.375c.551.164,1.054.351,1.546.515a13.952,13.952,0,0,1,2.484,1.066c.351.176.679.328.961.492l.726.492C478.86,132.528,479.294,132.844,479.294,132.844Z" transform="translate(26.07 10.422)"/><circle class="f" cx="5.049" cy="5.049" r="5.049" transform="translate(272.94 310.602)"/><path class="f" d="M507.258,143.441a5.049,5.049,0,1,1-1.475-3.578,5.049,5.049,0,0,1,1.475,3.578Z" transform="translate(59.28 12.126)"/><path class="f" d="M290.117,290.669a1.289,1.289,0,1,1-1.277-1.289,1.289,1.289,0,0,1,1.277,1.289Z" transform="translate(23.333 38.021)"/><path class="f" d="M313.507,169.849a1.289,1.289,0,1,1-1.289-1.289A1.289,1.289,0,0,1,313.507,169.849Z" transform="translate(27.344 17.301)"/><path class="f" d="M484.5,228.579a1.277,1.277,0,1,1-.37-.91,1.289,1.289,0,0,1,.37.91Z" transform="translate(56.667 27.373)"/><path class="f" d="M499.727,177.487a1.289,1.289,0,1,1-1.277-1.277A1.289,1.289,0,0,1,499.727,177.487Z" transform="translate(59.278 18.613)"/></g></g></svg>