<svg xmlns="http://www.w3.org/2000/svg" xmlns:xlink="http://www.w3.org/1999/xlink" width="544.159" height="532.664" viewBox="0 0 544.159 532.664"><defs><style>.a,.g,.i{fill:#263238;}.a,.d,.e,.f,.n{stroke:#263238;}.a,.d,.e,.f,.m,.n{stroke-linecap:round;stroke-linejoin:round;}.b,.e{fill:#0186ff;}.c,.d,.h,.k{fill:#fff;}.c{opacity:0.7;}.f,.m,.n{fill:none;}.g{font-size:52px;font-family:SegoeUI, Segoe UI;}.h{opacity:0.5;}.j{clip-path:url(#a);}.k{opacity:0.4;}.l{clip-path:url(#b);}.m{stroke:#fff;stroke-width:0.75px;}.n{stroke-width:0.5px;}</style><clipPath id="a"><rect class="a" width="8.714" height="42.1"/></clipPath><clipPath id="b"><path class="a" d="M179.834,210.79s-64.347,4.516-67.348,8.729-.909,13.519,1.443,21.338,25.566,150.349,31.87,156.654,17.746,4.819,31.279,4.819,85.411-2.712,85.411-2.712,5.771,1.2,14.139-1.8,19.246-7.82,20.747-12.321.3-12.336-1.212-12.336-91.384-6.608-91.384-6.608Z" transform="translate(-111 -210.79)"/></clipPath></defs><g transform="translate(-1188 -3868)"><g transform="translate(1188 3868)"><path class="b" d="M408.027,532.63c59.788-11.715,113.357-39.027,150.753-86.479,59.571-75.557,71.142-217.264-8.916-299.718C513.146,108.648,458.523,87.9,409.772,76.272c-52.4-12.509-111.7-16.447-158.7,4.7C175.224,115.054,141.276,237.789,92.626,289.151s-41.84,160.708,46.4,201.105c46.659,21.367,96.087,36.935,145.718,44.538a347.216,347.216,0,0,0,68.848,4.328A371.2,371.2,0,0,0,408.027,532.63Z" transform="translate(-62.529 -66)"/><path class="c" d="M408.027,532.63c59.788-11.715,113.357-39.027,150.753-86.479,59.571-75.557,71.142-217.264-8.916-299.718C513.146,108.648,458.523,87.9,409.772,76.272c-52.4-12.509-111.7-16.447-158.7,4.7C175.224,115.054,141.276,237.789,92.626,289.151s-41.84,160.708,46.4,201.105c46.659,21.367,96.087,36.935,145.718,44.538a347.216,347.216,0,0,0,68.848,4.328A371.2,371.2,0,0,0,408.027,532.63Z" transform="translate(-62.529 -66)"/></g><g transform="translate(1406.001 3947.452)"><rect class="d" width="228.662" height="338.715" transform="translate(0 0)"/><rect class="e" width="7.228" height="338.715" transform="translate(221.434 0)"/><rect class="d" width="7.228" height="66.396" transform="translate(221.434 139.745)"/><rect class="e" width="228.662" height="26.128" transform="translate(0 0)"/><path class="d" d="M231.261,126.39H418.444a4.5,4.5,0,0,1,4.5,4.5v2.265a4.5,4.5,0,0,1-4.5,4.5H231.261a4.516,4.516,0,0,1-4.5-4.5v-2.265a4.516,4.516,0,0,1,4.516-4.5Z" transform="translate(-207.817 -118.715)"/><rect class="e" width="96.52" height="104.181" transform="translate(12.177 86.147)"/><rect class="e" width="96.52" height="104.181" transform="translate(12.177 216.038)"/><line class="f" x2="68.098" transform="translate(128.088 86.147)"/><line class="f" x2="68.098" transform="translate(128.088 114.107)"/><line class="f" x2="68.098" transform="translate(128.088 121.783)"/><line class="f" x2="68.098" transform="translate(128.088 129.444)"/><line class="f" x2="68.098" transform="translate(128.088 137.119)"/><line class="f" x2="68.098" transform="translate(128.088 144.78)"/><line class="f" x2="68.098" transform="translate(128.088 152.441)"/><line class="f" x2="68.098" transform="translate(128.088 160.117)"/><line class="f" x2="68.098" transform="translate(128.088 167.778)"/><line class="f" x2="68.098" transform="translate(128.088 175.453)"/><line class="f" x2="68.098" transform="translate(128.088 183.114)"/><line class="f" x2="39.228" transform="translate(128.088 93.822)"/><line class="f" x2="68.098" transform="translate(128.088 216.038)"/><line class="f" x2="68.098" transform="translate(128.088 243.999)"/><line class="f" x2="68.098" transform="translate(128.088 251.674)"/><line class="f" x2="68.098" transform="translate(128.088 259.335)"/><line class="f" x2="68.098" transform="translate(128.088 267.011)"/><line class="f" x2="68.098" transform="translate(128.088 274.672)"/><line class="f" x2="68.098" transform="translate(128.088 282.347)"/><line class="f" x2="68.098" transform="translate(128.088 290.008)"/><line class="f" x2="68.098" transform="translate(128.088 297.669)"/><line class="f" x2="68.098" transform="translate(128.088 305.344)"/><line class="f" x2="68.098" transform="translate(128.088 313.005)"/><line class="f" x2="39.228" transform="translate(128.088 223.713)"/><text class="g" transform="translate(11.383 70.514)"><tspan x="0" y="0">NEWS</tspan></text><rect class="b" width="91.471" height="5.612" transform="translate(106.216 65.804)"/></g><g transform="translate(1595.14 4103.053)"><ellipse class="b" cx="40.022" cy="10.676" rx="40.022" ry="10.676" transform="translate(20.061 252.237)"/><ellipse class="h" cx="40.022" cy="10.676" rx="40.022" ry="10.676" transform="translate(20.061 252.237)"/><path class="i" d="M344.934,261.512a5.858,5.858,0,0,1,4.7-7.329c4.891-.664,10.907,5.915,12.812,9.9.173.346,2.121,6.031,2.034,6.031s-8.656.188-12.235-1.356C349.233,267.427,345.756,264.917,344.934,261.512Zm125.852-15.091c-.721,3.419-4.126,6.031-7.113,7.43s-10.1,1.645-11.787,1.674c-.938,1.125-1.933,2.323-3.015,3.679-1.861,2.395-3.953,5.122-6.016,8.238-.548.822-1.111,1.746-1.674,2.611,1.255-1.27,2.987-3,3.174-3.16,3.448-2.741,11.744-6.031,15.87-3.3a5.843,5.843,0,0,1,1.024,8.657c-2.207,2.7-6.449,3.448-9.739,3.318s-9.883-3.261-11.3-3.968c-1.2,1.962-2.395,4-3.52,6.189a76.589,76.589,0,0,0-5.194,12.408l.26.13c1.01-1.327,3.188-4.054,3.39-4.328,3.131-3.116,11.008-7.214,15.394-5.021a5.771,5.771,0,0,1,1.977,8.469c-1.9,2.886-6.031,4.141-9.32,4.328-3.794.26-11.629-2.7-11.932-2.813a103.6,103.6,0,0,0-2.886,13.057c-.5,3.261-.894,6.593-1.241,9.926.678-.952,3.549-4.53,3.78-4.761,3.131-3.116,11.008-7.286,15.394-5.021a5.843,5.843,0,0,1,1.962,8.469c-1.9,2.885-6.031,4.141-9.32,4.328-3.694.26-11.21-2.539-11.845-2.784-.159,1.515-.332,3.03-.476,4.559-.491,4.963-.952,9.941-1.558,14.846-.2,1.688-.476,3.362-.736,5.035,1.068-1.443,3.059-3.881,3.246-4.069,3.131-3.116,11.008-7.3,15.409-5.035a5.858,5.858,0,0,1,1.962,8.483c-1.9,2.885-6.031,4.141-9.32,4.328s-9.681-1.991-11.47-2.64c-.462,2.77-.967,5.511-1.6,8.195-.3,1.14-.534,2.337-.88,3.419s-.664,2.193-.981,3.275c-.75,2.207-1.443,4.256-2.179,6.29-.375,1.039-.75,2.005-1.125,3,.88-1.558,2.294-4.025,2.453-4.227,2.626-3.564,9.767-8.873,14.428-7.3a5.771,5.771,0,0,1,3.232,8.079c-1.443,3.174-5.338,4.992-8.555,5.771-3.535.793-11.153-.75-12.076-.938-.923,2.438-1.847,4.8-2.756,7-2.885,6.969-5.482,12.667-7.387,16.635l-.3.635h13.851l-4.718,93.447a13.331,13.331,0,0,1-13.331,12.653h0a13.332,13.332,0,0,1-13.317-12.656l-4.847-93.3h14.875a20.349,20.349,0,0,0-.231-2.106c-.491-4.328-1.3-10.474-2.583-17.8-.375-2.121-.794-4.328-1.255-6.666-.967.13-8.657,1.111-12.119,0-3.145-.967-6.9-3.073-8.094-6.348a5.771,5.771,0,0,1,3.823-7.82c4.79-1.226,11.542,4.617,13.865,8.354.159.245,1.616,3.275,2.323,4.833-.289-1.443-.563-2.77-.88-4.2-.447-2.078-.981-4.328-1.443-6.363l-.909-3.289c-.289-1.125-.707-2.164-1.053-3.261-.548-1.6-1.2-3.217-1.832-4.848-2.078.577-8.224,2.179-11.383,1.717s-7.286-1.991-8.959-5.05a5.771,5.771,0,0,1,2.582-8.31c4.559-1.933,12.09,2.813,14.976,6.161.1.1.635.88,1.27,1.789-.678-1.558-1.342-3.116-2.078-4.689-2.078-4.415-4.328-8.873-6.579-13.331l-1.443-2.8c-1.746.491-8.382,2.28-11.7,1.789s-7.286-1.977-8.96-5.035a5.771,5.771,0,0,1,2.6-8.31c4.545-1.933,12.09,2.813,14.976,6.161.1.115.736,1.039,1.443,2.063-1.183-2.438-2.337-4.891-3.39-7.358a103.407,103.407,0,0,1-4.7-12.985c-.606.173-8.353,2.424-12.033,1.89-3.261-.476-7.214-1.991-8.974-5.05a5.858,5.858,0,0,1,2.6-8.31c4.545-1.933,12.09,2.813,14.976,6.16.2.231,2.5,3.578,3.275,4.8v-.159a75.762,75.762,0,0,1-2.251-13.374,102.567,102.567,0,0,1-.289-12.119c.087-3.751.4-7.214.693-10.215.188-1.63.375-3.131.563-4.53h-.087s-1.731-5.771-1.789-6.088c-.736-4.328.418-13.2,4.819-15.466a5.858,5.858,0,0,1,8.051,3.3c1.284,3.246-.13,7.315-1.847,10.1s-7.473,6.911-8.9,7.906c-.173,1.443-.332,3-.476,4.718-.245,3.03-.476,6.449-.491,10.2v3.1c.332-1.76.822-4.17.909-4.328,1.356-4.2,6.449-11.542,11.4-11.542a5.872,5.872,0,0,1,5.627,6.651c-.361,3.477-3.477,6.435-6.3,8.137s-10.1,2.727-11.542,2.885c.072,2.308.188,4.66.476,7.127a74.535,74.535,0,0,0,2.6,13.317h.274c.115-1.659.433-5.136.491-5.41.894-4.328,5.151-12.162,10.1-12.7a5.872,5.872,0,0,1,6.319,5.987c0,3.491-2.756,6.781-5.367,8.786-3.015,2.308-11.181,4.17-11.542,4.242a101.878,101.878,0,0,0,4.819,12.451c1.371,3,2.885,5.987,4.429,8.974,0-1.169.462-5.771.534-6.06.894-4.328,5.151-12.162,10.1-12.7a5.872,5.872,0,0,1,6.319,6c0,3.477-2.756,6.767-5.367,8.772-2.885,2.265-10.763,4.069-11.427,4.227.707,1.342,1.443,2.7,2.121,4.054,2.337,4.4,4.7,8.815,6.9,13.244.765,1.529,1.443,3.059,2.15,4.6.13-1.746.418-4.92.476-5.194.895-4.328,5.165-12.148,10.1-12.682a5.771,5.771,0,0,1,6.319,5.987c0,3.492-2.756,6.781-5.367,8.786s-9.161,3.679-11.023,4.126c1.154,2.568,2.236,5.136,3.188,7.719.375,1.125.837,2.236,1.154,3.333s.664,2.193.981,3.275c.592,2.251,1.154,4.328,1.659,6.464.26,1.068.49,2.078.721,3.116-.13-1.789-.3-4.631-.289-4.891.231-4.4,3.246-12.783,8.036-14.067a5.858,5.858,0,0,1,7.142,4.963,6.549,6.549,0,0,1,.087,1.3,22.608,22.608,0,0,1,3.044,11.052c0,.274-.462,3.607-.721,5.309.519-1.313,1.053-2.626,1.573-4,.779-1.977,1.529-4.083,2.28-6.117.346-1.082.693-2.164,1.053-3.261s.606-2.179.923-3.289c.418-1.63.779-3.347,1.14-5.05-2.063-.664-8.065-2.727-10.446-4.848s-4.977-5.684-4.689-9.162a5.843,5.843,0,0,1,6.752-5.5c4.848.895,8.527,9.017,9.089,13.389v2.193c.3-1.674.606-3.333.866-5.05.707-4.833,1.27-9.782,1.861-14.745.13-1.039.274-2.063.39-3.1-1.731-.548-8.253-2.727-10.749-4.963s-4.978-5.67-4.689-9.147a5.843,5.843,0,0,1,6.752-5.5c4.848.895,8.527,9.017,9.089,13.389v2.539c.361-2.7.765-5.382,1.226-8.022a104.106,104.106,0,0,1,3.261-13.418c-.62-.2-8.31-2.6-11.08-5.064-2.467-2.207-4.992-5.684-4.7-9.161a5.858,5.858,0,0,1,6.752-5.5c4.862.894,8.527,9.017,9.089,13.389,0,.317.115,4.328.087,5.771v-.159a77.73,77.73,0,0,1,5.5-12.393,104.217,104.217,0,0,1,6.449-10.258c2.15-3.087,4.328-5.771,6.218-8.137,1.053-1.27,2.034-2.409,2.972-3.463h-.115c-.087,0,1.717-5.771,1.876-6.074,1.789-4.04,7.632-10.777,12.537-10.244a5.771,5.771,0,0,1,4.963,7.214ZM414.114,365.015c-.837-.4-7.329-3.621-9.854-6.348a64.6,64.6,0,0,1-6.766,3.174c.577,2.539,1.111,5.021,1.573,7.358,1.443,7.387,2.409,13.591,3.015,17.948.13.923.231,1.746.332,2.51h.332c.317-.649.678-1.327,1.082-2.121,1.962-3.867,4.689-9.45,7.661-16.289C412.354,369.286,413.234,367.179,414.114,365.015Zm25.9-94.356c.072,0,1.573-5.771,1.63-6.146.606-4.328-.794-13.172-5.237-15.322a5.858,5.858,0,0,0-7.964,3.52c-1.2,3.289.317,7.3,2.106,10.1C432.653,266.028,440,270.659,440.011,270.659Z" transform="translate(-344.726 -228.92)"/></g><g transform="translate(1248.121 3999.55)"><ellipse class="b" cx="141.505" cy="26.691" rx="141.505" ry="26.691" transform="translate(0 347.732)"/><ellipse class="h" cx="141.505" cy="26.691" rx="141.505" ry="26.691" transform="translate(0 347.732)"/><rect class="i" width="8.714" height="42.1" transform="translate(80.145 262.567)"/><g class="j" transform="translate(80.145 262.567)"><rect class="k" width="8.714" height="42.1"/></g><rect class="f" width="8.714" height="42.1" transform="translate(80.145 262.567)"/><path class="i" d="M179.834,210.79s-64.347,4.516-67.348,8.729-.909,13.519,1.443,21.338,25.566,150.349,31.87,156.654,17.746,4.819,31.279,4.819,85.411-2.712,85.411-2.712,5.771,1.2,14.139-1.8,19.246-7.82,20.747-12.321.3-12.336-1.212-12.336-91.384-6.608-91.384-6.608Z" transform="translate(-101.189 -133.444)"/><g class="l" transform="translate(9.81 77.346)"><path class="k" d="M179.834,210.79s-64.347,4.516-67.348,8.729-.909,13.519,1.443,21.338,25.566,150.349,31.87,156.654,17.746,4.819,31.279,4.819,85.411-2.712,85.411-2.712,5.771,1.2,14.139-1.8,19.246-7.82,20.747-12.321.3-12.336-1.212-12.336-91.384-6.608-91.384-6.608Z" transform="translate(-111 -210.79)"/></g><path class="f" d="M179.834,210.79s-64.347,4.516-67.348,8.729-.909,13.519,1.443,21.338,25.566,150.349,31.87,156.654,17.746,4.819,31.279,4.819,85.411-2.712,85.411-2.712,5.771,1.2,14.139-1.8,19.246-7.82,20.747-12.321.3-12.336-1.212-12.336-91.384-6.608-91.384-6.608Z" transform="translate(-101.189 -133.444)"/><path class="a" d="M178.945,389.132c-14.139,0-24.354.909-26.763-5.771s-24.051-122.98-27.658-139.817-4.213-24.354-8.426-26.46a3.9,3.9,0,0,0-4.328,1.024c-1.9,4.617,0,12.985,2.193,20.025,2.409,7.82,25.566,150.349,31.87,156.654s17.746,4.819,31.279,4.819,85.382-2.655,85.382-2.655a26.344,26.344,0,0,0,11.138-.866,9.19,9.19,0,0,0,2.092-10.258C273.95,381.023,193.069,389.132,178.945,389.132Z" transform="translate(-101.195 -130.778)"/><path class="a" d="M249.845,190.8c-4.689-15.322-18.135-33.3-35.867-33.6-15.293-.245-23.084,2.51-30.832,23.575s-34.366,67.29-34.366,67.29.866.144,2.352.346c-1.789,2.063-2.8,3.261-2.8,3.261s-9.017,18.049-16.693,33.833-3.16,39.229,8.123,53.671,21.194,11.268,32.015-2.265,49.169-111.4,49.169-111.4l12.639-24.08c.981,1.14,1.76,1.789,2.207,1.659C237.553,202.583,252.6,199.828,249.845,190.8Z" transform="translate(-93.739 -157.18)"/><path class="m" d="M189.55,158.85s20.7,14.428,16.144,20.271" transform="translate(-66.411 -156.441)"/><path class="m" d="M215.979,171.5a164.15,164.15,0,0,1-16.534,21.064C183.3,210.353,150.608,226.916,148.53,235.6" transform="translate(-84.573 -150.84)"/><path class="m" d="M198.437,166.88a36.623,36.623,0,0,1-1.847,3.564" transform="translate(-63.294 -152.886)"/><path class="m" d="M151.669,210.26c-3.679,4.242-6.161,8.18-6.579,11.08" transform="translate(-86.096 -133.679)"/><path class="m" d="M196.678,160.017s-2.886-1.645-7.445,13.244-16.967,38.074-27.311,46.356a117.049,117.049,0,0,0-9.032,7.978" transform="translate(-82.642 -155.948)"/><path class="m" d="M137.073,251c-2.395,10.806-4.328,25.2-.866,35.117,6.2,17.789,14.067,14.889,15.308,6.622s-5.771-8.657-7.863-5.771,2.885,6.622,2.885,6.622" transform="translate(-90.862 -115.641)"/><path class="m" d="M139.854,240.6s-1.169,3.39-2.554,8.57" transform="translate(-89.545 -120.246)"/><path class="d" d="M221.663,290.02s26.576-5.266,30.846-1.76,2.251,26.085-9.277,32.1-37.613-2.005-37.613-2.005Z" transform="translate(-59.296 -99.677)"/><path class="d" d="M212.759,306.46s28.336,9.782,32.347,15.87,1.76,38.868.75,53.165-1.255,58.172,2.756,71.46,6.521,20.819,9.032,24.08,15.293,10.027,14.3,12.033-12.047,2.005-18.063.245-12.278-8.772-17.544-13.288-6.521-4.516-6.521-4.516l2.005,15.87-3.015-.505s-.491-10.272-2.51-15.8-4.761-6.262-2.756-10.777,10.287-9.782,10.287-9.782a173.723,173.723,0,0,0-5.021-33.1c-4.516-17.8-10.532-26.835-11.282-47.395s3.766-27.081,3.766-27.081l-30.1.505Z" transform="translate(-65.685 -91.086)"/><path class="a" d="M244.165,439.843c6.016,1.76,17.053,1.76,18.063-.245.866-1.746-8.657-7.1-12.84-10.6a16.068,16.068,0,0,1-3.217.317c-4.5,0-12.538-4.256-21.31-13.793-4.415-4.79-5.526-8.5-5.54-11.008a20.531,20.531,0,0,0-5.5,6.247c-2.005,4.516.75,5.266,2.756,10.777s2.51,15.8,2.51,15.8l3.015.5-2.005-15.87s1.255,0,6.521,4.516S238.149,438.083,244.165,439.843Z" transform="translate(-55.972 -47.674)"/><path class="d" d="M229.692,288.263c12.278-2.251,17.039-1.255,19.3,2.005s6.262,36.862,6.521,54.926,9.017,40.613,10.777,54.911a105.321,105.321,0,0,0,10.027,32.347c3.015,6.262,7.776,6.262,9.537,9.032s-6.521,3.246-11.037,3.246-14.3-6.767-17.053-12.278a12.062,12.062,0,0,0-7.517-6.521s-.75,12.985-1.76,13.548-1.76-.765-1.76-.765,0-8.267-.245-12.033-2.51-9.782-2.756-12.783,8.527-7.026,8.527-7.026-4.328-21.309-7.776-30.3-14.788-26.879-20.559-40.657-1.443-34.107-1.443-34.107" transform="translate(-52.522 -99.681)"/><path class="a" d="M271.606,398.808a7.862,7.862,0,0,1-4.328,1.89c-3.506.245-10.532-3.766-17.8-14.543-5.295-7.863-5.93-13.187-5.886-15.5-2.525,1.327-7.084,4.025-6.9,6.218.245,3,2.51,9.017,2.756,12.783s.245,12.033.245,12.033.765,1.255,1.76.765,1.76-13.548,1.76-13.548a12,12,0,0,1,7.517,6.521c2.756,5.511,12.538,12.278,17.053,12.278s12.783-.491,11.037-3.246C277.536,402.328,274.362,401.823,271.606,398.808Z" transform="translate(-45.541 -62.661)"/><path class="e" d="M195.081,219.187a12.985,12.985,0,0,1,6.521,8.772c1.241,6.276,3.751,70.2,4.5,71.46s18.756,16.058,18.756,16.058l-5.771,6.766s-18.554-9.032-24.325-13.793-8.022-6.766-7.012-15.048S191.5,244,191.5,237.741,191.315,216.2,195.081,219.187Z" transform="translate(-67.311 -129.896)"/><path class="e" d="M189.783,210s-23.82,8.772-32.852,12.033-18.063,2.51-18.554,5.266,6.016,38.118,10.777,52.906,7.776,24.08,7.026,28.855-21.064,30.6-15.293,54.161,43.629,22.565,66.194,22.319,21.641-1.255,21.641-1.255L257.3,323.357l-37.872,5.511s-15.538-11.542-14.038-17.8,8.786-19.059,10.532-25.825,4.516-22.06,2.005-31.842,3.52-27.585-1-30.3S194.775,210,189.783,210Z" transform="translate(-89.079 -133.794)"/><path class="f" d="M150.38,303.98s11.124-8.426,24.642-6.622,46.312,12.985,46.312,12.985" transform="translate(-83.754 -95.228)"/><path class="f" d="M145.58,304.52s3.015-6.622,12.985-9.32" transform="translate(-85.879 -96.071)"/><path class="d" d="M215.178,286.131a38.959,38.959,0,0,1,9.739-1.039,20.285,20.285,0,0,1,14.933,7.474s1.255,3.217-.822,3.419-6.377-2.251-10.33-2.453a45.972,45.972,0,0,1-7.733-1.183s4.776,3.953,3.318,4.328-5.771-1.861-7.459-2.482-5.4-1.241-7.055-2.885S215.178,286.131,215.178,286.131Z" transform="translate(-57.571 -100.55)"/><path class="n" d="M233.941,293.523a39.606,39.606,0,0,0-5.511-3.217c-1.847-.678-7.69-1.746-7.69-1.746" transform="translate(-52.601 -99.011)"/><path class="n" d="M222.56,287.26s5.064,1.6,7.127,2.525a16.2,16.2,0,0,1,4.328,3.679" transform="translate(-51.796 -99.587)"/><path class="d" d="M168.384,213.054s-5.771,4.155.62,25.046c3.665,11.888,17.8,48.9,18.049,46.89s3.766-25.335,3.506-38.118a98.756,98.756,0,0,0-5.006-30.6C183.042,209.505,173.4,208.048,168.384,213.054Z" transform="translate(-76.841 -133.761)"/><path class="d" d="M165.64,219.885a62.229,62.229,0,0,0,2.265,12.783c1.746,5.266,4.256,10.792,4.256,10.792s8.527-7.026,9.277-7.026,9.277,4.516,9.277,3.506a121.622,121.622,0,0,0-4.5-21.064c-3.015-9.522-10.994-12.191-15.5-8.657S165.64,219.885,165.64,219.885Z" transform="translate(-76.997 -134.359)"/><path class="d" d="M177.43,201.64l-6.06,17.313c.418,1.356.938,3.03,1.443,5.223,2.005,7.517,6.016,17.544,7.214,18.049s-.75-8.527,1.255-16.043,6.276-18.568,6.521-19.318l-8.281-5.612Z" transform="translate(-74.46 -137.668)"/><path class="d" d="M209.088,174.62c-5.583,7.214-13.158,16.52-19.867,23.5-12.538,12.985-14.875,14.428-12.653,15.683,3.246,2.886,13.071,11.715,16.664,13.4,4.328,2.005,6.016-2.005,12.538-8.022s12.538-24.325,11.282-30.1A30.558,30.558,0,0,0,209.088,174.62Z" transform="translate(-72.488 -149.459)"/><path class="f" d="M201.107,191.26s-2.756,6.016-2.756,9.522.75,3.261,0,3.52-5.771-2.265-5.771-2.265" transform="translate(-65.069 -142.091)"/><path class="f" d="M191.921,204.256s-5.021-.765-5.771-5.526" transform="translate(-67.916 -138.784)"/><path class="i" d="M193.479,192.681c-.418,1.024-1.125,1.717-1.573,1.529s-.476-1.169,0-2.193,1.111-1.7,1.558-1.529S193.883,191.671,193.479,192.681Z" transform="translate(-65.521 -142.445)"/><ellipse class="i" cx="2.005" cy="0.88" rx="2.005" ry="0.88" transform="translate(136.481 54.724) rotate(-67.96)"/><path class="f" d="M190,187.528s5.006-4.011,8.267-2.005" transform="translate(-66.212 -144.88)"/><path class="f" d="M200.75,187.265s3.766-.5,4.011,4.011" transform="translate(-61.452 -143.867)"/><path class="a" d="M223.88,246.885l4.776-22.824,11.787-1.76-4.5,21.237Z" transform="translate(-51.211 -128.348)"/><path class="d" d="M203.71,263.85l18.092-10.1,5.771-15.639a6.391,6.391,0,0,1,4.617-.606,12.046,12.046,0,0,0,4.011.808l11.023-3.217s1.01-.606,1.01,1.443-.606,2.8-2.005,4.6-1.443,4.415-2.005,7.214-4.011,4.819-6.622,5.612-11.239,6.218-12.437,7.026S205.9,272.016,205.9,272.016Z" transform="translate(-60.142 -122.72)"/><line class="d" x1="6.824" y2="2.799" transform="translate(169.293 115.535)"/><path class="e" d="M142,237.57s28.336,69.252,31.091,71.719S236.789,276,236.789,276l-6.262-11.787-45.894,15.308L162.069,227.11" transform="translate(-87.464 -126.219)"/><path class="a" d="M245.392,440.953l-40.715-15.135c9.089-1.8,32.938-6.521,34.4-6.521,1.818,0,.3-4.8.3-4.8l-47.8,3.03V366.68h-17.14V417.1l-42.1-.808-.606,3.607,31.7,6.391L116.41,446.06v4.5l69.757-17.053L245.7,446.493Z" transform="translate(-98.794 -64.423)"/><path class="a" d="M125.157,427.849a4.054,4.054,0,1,1-1.187-2.881,4.069,4.069,0,0,1,1.187,2.881Z" transform="translate(-98.524 -39.142)"/><path class="a" d="M208.937,425.139a4.054,4.054,0,1,1-1.187-2.881A4.069,4.069,0,0,1,208.937,425.139Z" transform="translate(-61.43 -40.342)"/><path class="a" d="M133.681,406.781a3.015,3.015,0,1,1-3.015-3,3.015,3.015,0,0,1,3.015,3Z" transform="translate(-93.817 -47.997)"/><path class="a" d="M203.911,406.151a3.015,3.015,0,1,1-3-3A3.015,3.015,0,0,1,203.911,406.151Z" transform="translate(-62.723 -48.276)"/></g></g></svg>