<svg xmlns="http://www.w3.org/2000/svg" xmlns:xlink="http://www.w3.org/1999/xlink" width="467.215" height="547.872" viewBox="0 0 467.215 547.872"><defs><style>.a{fill:url(#a);}</style><linearGradient id="a" x1="0.065" y1="0.216" x2="1.067" y2="0.709" gradientUnits="objectBoundingBox"><stop offset="0" stop-color="#03f2c4"/><stop offset="0.116" stop-color="#03e9cb" stop-opacity="0.914"/><stop offset="0.307" stop-color="#03cfdf" stop-opacity="0.776"/><stop offset="0.546" stop-color="#03a7ff" stop-opacity="0.6"/><stop offset="1" stop-color="#0086ff"/></linearGradient></defs><g transform="translate(-414.975 -376)"><g transform="translate(290.965 296.55)"><g transform="translate(124.01 79.45)"><path class="a" d="M530.743,627.322H428.032l-54.191-81.286a58.942,58.942,0,0,1-8.347.628h-7.718a228.46,228.46,0,0,1-61.909-8.347A235.291,235.291,0,0,1,132.357,374.807a234.344,234.344,0,0,1,0-123.973,230.571,230.571,0,0,1,23.628-55.765,237.711,237.711,0,0,1,36.706-47.256A231.257,231.257,0,0,1,240.1,111.269,238.291,238.291,0,0,1,295.867,87.8a234.344,234.344,0,0,1,123.973,0A233.21,233.21,0,0,1,582.878,250.834a233.051,233.051,0,0,1-.946,126.967,235.241,235.241,0,0,1-67.417,108.063A234.379,234.379,0,0,1,460.8,522.726ZM501.437,312.906A139.708,139.708,0,0,0,490.1,256.985a143.2,143.2,0,0,0-76.4-76.4,143.923,143.923,0,0,0-112,0A147.581,147.581,0,0,0,256.019,211.3a143.759,143.759,0,0,0-30.873,45.681,139.709,139.709,0,0,0-11.341,55.921,137.424,137.424,0,0,0,11.341,55.6,145.586,145.586,0,0,0,76.554,76.4,143.923,143.923,0,0,0,112,0,143.758,143.758,0,0,0,45.681-30.873A148.1,148.1,0,0,0,490.1,368.509,137.425,137.425,0,0,0,501.437,312.906Z" transform="translate(-124.01 -79.45)"/></g></g></g></svg>