<svg xmlns="http://www.w3.org/2000/svg" width="27.391" height="27.361" viewBox="0 0 27.391 27.361"><defs><style>.a{fill:#fab446;}.b{fill:#73af00;}.c{fill:#f5f5f5;}.d{fill:#41479b;}</style></defs><path class="a" d="M21.817.276H5.574A5.992,5.992,0,0,0,0,6.253V9.4H27.391V6.253A5.992,5.992,0,0,0,21.817.276Z" transform="translate(0 -0.276)"/><path class="b" d="M0,344.384a5.992,5.992,0,0,0,5.574,5.977H21.817a5.992,5.992,0,0,0,5.574-5.977v-3.143H0Z" transform="translate(0 -323)"/><rect class="c" width="27.391" height="9.12" transform="translate(0 9.12)"/><g transform="translate(10.569 10.554)"><path class="d" d="M200.679,203.806a3.127,3.127,0,1,1,3.127-3.127A3.13,3.13,0,0,1,200.679,203.806Zm0-5.672a2.545,2.545,0,1,0,2.545,2.545A2.548,2.548,0,0,0,200.679,198.134Z" transform="translate(-197.552 -197.552)"/><circle class="d" cx="0.354" cy="0.354" r="0.354" transform="translate(2.772 2.772)"/><path class="d" d="M205.825,253.5l-.9.091-1.935-.091V253.4l1.935-.091.9.091Z" transform="translate(-202.698 -250.323)"/><path class="d" d="M256,253.5l.9.091,1.935-.091V253.4l-1.935-.091-.9.091Z" transform="translate(-252.873 -250.323)"/><path class="d" d="M253.4,205.825l-.091-.9.091-1.935h.106l.091,1.935-.091.9Z" transform="translate(-250.323 -202.698)"/><path class="d" d="M253.4,256l-.091.9.091,1.935h.106l.091-1.935-.091-.9Z" transform="translate(-250.323 -252.873)"/><path class="d" d="M219.818,219.893l-.7-.573-1.3-1.433.075-.075,1.433,1.3.573.7Z" transform="translate(-216.729 -216.729)"/><path class="d" d="M255.3,255.372l.573.7,1.433,1.3.075-.075-1.3-1.433-.7-.573Z" transform="translate(-252.208 -252.208)"/><path class="d" d="M255.3,219.818l.573-.7,1.433-1.3.075.075-1.3,1.433-.7.573Z" transform="translate(-252.208 -216.729)"/><path class="d" d="M219.818,255.3l-.7.573-1.3,1.433.075.075,1.433-1.3.573-.7Z" transform="translate(-216.729 -252.208)"/><path class="d" d="M209.3,255.18l-.8.429-1.823.656-.041-.1,1.753-.825.867-.261Z" transform="translate(-206.158 -252.004)"/><path class="d" d="M255.661,235.979l.867-.261,1.753-.825-.041-.1-1.823.656-.8.429Z" transform="translate(-252.513 -232.803)"/><path class="d" d="M235.88,209.3l-.429-.8-.656-1.823.1-.041.825,1.753.261.867Z" transform="translate(-232.803 -206.158)"/><path class="d" d="M255.082,255.661l.261.867.825,1.753.1-.041-.656-1.823-.429-.8Z" transform="translate(-252.004 -252.513)"/><path class="d" d="M209.264,235.979l-.867-.261-1.753-.825.041-.1,1.823.656.8.429Z" transform="translate(-206.158 -232.803)"/><path class="d" d="M255.62,255.18l.8.429,1.823.656.041-.1-1.753-.825-.867-.261Z" transform="translate(-252.513 -252.004)"/><path class="d" d="M255.082,209.264l.261-.867.825-1.753.1.041-.656,1.823-.429.8Z" transform="translate(-252.004 -206.158)"/><path class="d" d="M235.88,255.62l-.429.8-.656,1.823.1.041.825-1.753.261-.867Z" transform="translate(-232.803 -252.513)"/></g><circle class="c" cx="0.388" cy="0.388" r="0.388" transform="translate(13.307 13.292)"/><circle class="d" cx="0.287" cy="0.287" r="0.287" transform="translate(13.409 13.394)"/></svg>