<svg xmlns="http://www.w3.org/2000/svg" width="617" height="463.008" viewBox="0 0 617 463.008"><defs><style>.a{fill:#ebebeb;}.b{fill:#e0e0e0;}.c{fill:#f5f5f5;}.d{fill:#e6e6e6;}.e,.h{fill:#0186ff;}.f,.i,.j,.k,.l,.m,.o{fill:#fff;}.f{opacity:0.8;}.g{opacity:0.1;}.h,.i{opacity:0.4;}.j{opacity:0.6;}.k{opacity:0.3;}.l,.p{opacity:0.2;}.n{fill:#e4897b;}.o{opacity:0.5;}.q{fill:#263238;}.r{fill:#ebb376;}.s{fill:#de5753;}</style></defs><g transform="translate(0 -55)"><g transform="translate(0 55)"><rect class="a" width="617" height="0.308" transform="translate(0 404.012)"/><rect class="a" width="40.87" height="0.308" transform="translate(514.307 423.867)"/><rect class="a" width="10.723" height="0.308" transform="translate(398.002 427.223)"/><rect class="a" width="23.68" height="0.308" transform="translate(489.392 412.415)"/><rect class="a" width="53.296" height="0.308" transform="translate(64.736 414.488)"/><rect class="a" width="7.811" height="0.308" transform="translate(129.027 414.488)"/><rect class="a" width="115.601" height="0.308" transform="translate(162.234 419.696)"/><path class="a" d="M283.517,403.975H45.244a7.046,7.046,0,0,1-7.034-7.046V61.984A7.046,7.046,0,0,1,45.244,55H283.517a7.046,7.046,0,0,1,7.046,7.046V396.929A7.046,7.046,0,0,1,283.517,403.975ZM45.244,55.247a6.738,6.738,0,0,0-6.725,6.738V396.929a6.738,6.738,0,0,0,6.725,6.738H283.517a6.75,6.75,0,0,0,6.738-6.738V61.984a6.75,6.75,0,0,0-6.738-6.738Z" transform="translate(8.941 -55)"/><path class="a" d="M499.832,403.975H261.546a7.059,7.059,0,0,1-7.046-7.046V61.984A7.058,7.058,0,0,1,261.546,55H499.832a7.046,7.046,0,0,1,7.021,6.984V396.929A7.046,7.046,0,0,1,499.832,403.975ZM261.546,55.247a6.75,6.75,0,0,0-6.738,6.738V396.929a6.75,6.75,0,0,0,6.738,6.738H499.832a6.75,6.75,0,0,0,6.738-6.738V61.984a6.75,6.75,0,0,0-6.738-6.738Z" transform="translate(59.553 -55)"/><path class="a" d="M424.508,358.775c.185-1.234,4.5-31.072-4.146-41.351a9.366,9.366,0,0,0-7.182-3.542c-17.473-.407-19.855,13.574-19.88,13.759l2.061.321c.074-.506,2.147-12.34,17.757-11.994a7.268,7.268,0,0,1,5.639,2.789c8.058,9.576,3.7,39.4,3.7,39.71Z" transform="translate(92.032 5.576)"/><path class="a" d="M419.443,356.127l2.086-.074c0-.271-.691-27.457,12.7-33.071,13.13-5.491,19.041,5.812,19.275,6.293l1.863-.938c-.062-.136-7-13.574-21.94-7.268C418.715,327.227,419.406,354.942,419.443,356.127Z" transform="translate(98.146 6.866)"/><path class="a" d="M419.783,363.355c0-.432.136-43.424,8.515-56,8.046-12.081,20.978-6.392,21.583-6.17l.851-1.9c-.148-.062-15.129-6.676-24.174,6.886-8.724,13.093-8.848,55.357-8.848,57.147Z" transform="translate(97.744 1.773)"/><path class="b" d="M412.265,315.894s7.626,2.814,5.356,9.44-26.371,17.56-26.371,17.56-10.106-9.255-.827-24.31S412.055,311.143,412.265,315.894Z" transform="translate(90.442 4.6)"/><path class="b" d="M427.531,305.472s-5.4-.58-4.936-3.875,21.04-11.785,33.207,1.937c0,0-7.787,13.377-19.041,13.574S427.531,305.472,427.531,305.472Z" transform="translate(98.881 1.387)"/><path class="b" d="M431.587,322.468s-3.7-3.011.3-4.479S455.7,316.927,455.9,336.5c0,0-23.039,3.838-25.914-3.628S431.587,322.468,431.587,322.468Z" transform="translate(100.391 6.418)"/><path class="a" d="M404.79,390.032h35.761l3.85-39.142H400.94Z" transform="translate(93.82 14.238)"/><rect class="b" width="47.287" height="8.638" transform="translate(540.134 369.447) rotate(180)"/><path class="a" d="M141.234,294.655s-4.455-9.7.629-19.275,6.553-11.822,3.319-13.784-4.726,7.663-4.726,7.663a21.558,21.558,0,0,1-.481-13.574c2.258-6.923,3.7-18.2.592-19.411s-.592,14.068-3.258,19.275a44.881,44.881,0,0,1-2.616-11.365c-.37-5.553.21-14.438-2.221-16.708s-4-.7-1.6,11.563a127.793,127.793,0,0,1,2.369,22.212s-5.282-16.042-8.823-16.573-3.529,4.751-.506,9.267,8.885,12.624,9.872,16.795c0,0-5.8-12.118-11.007-8.4s4.541,11.032,8.885,13.673,7.4,19.213,7.4,19.213Z" transform="translate(28.38 -14.846)"/><path class="c" d="M135.744,297.934s4.331-9.773-.864-19.263-6.7-11.723-3.48-13.734,4.813,7.589,4.813,7.589a21.657,21.657,0,0,0,.321-13.574c-2.345-6.886-3.887-18.14-.827-19.4s.753,14.055,3.492,19.226a45.251,45.251,0,0,0,2.468-11.4c.3-5.565-.383-14.425,2.024-16.745s3.986-.765,1.74,11.55a128.336,128.336,0,0,0-2.11,22.274s5.084-16.178,8.638-16.7,3.591,4.689.617,9.255-8.737,12.76-9.638,16.943c0,0,5.652-12.2,10.909-8.564s-4.405,11.106-8.724,13.8-7.133,19.324-7.133,19.324Z" transform="translate(30.352 -14.114)"/><path class="b" d="M157.576,279.33H121.79l2.9,25.618h30Z" transform="translate(28.499 -2.507)"/><path class="b" d="M49.97,299.61V402.032h7.4V314.418H174.6v87.614h8.638V299.61Z" transform="translate(11.693 2.239)"/><path class="a" d="M104.97,299.61V402.032h7.4V314.418H229.6v87.614h8.638V299.61Z" transform="translate(24.563 2.239)"/><path class="b" d="M233.632,352.48l-3.7-.518c.654-4.615,4.516-13.352,14.388-13.352,11.686,0,17.51,6.75,18.09,13.451l-3.7.321c-.432-5.01-5.059-10.069-14.4-10.069C235.249,342.312,233.718,352.073,233.632,352.48Z" transform="translate(53.804 11.365)"/><rect class="a" width="72.053" height="43.017" rx="4.83" transform="translate(264.656 360.587)"/><path class="b" d="M266.408,390.072c-50.939,0-53.408-34.935-53.408-35.3l2.073-4.048c.086,1.3,4.1,35.626,51.371,35.626,19.46,0,36.255,0,37.958-3.7,1.493-3.27-5.8-11.674-17.5-25.137V352.3c14.907,17.165,23.347,26.4,20.867,31.837C305.155,389.85,293.9,390.072,266.408,390.072Z" transform="translate(49.842 14.198)"/><path class="c" d="M52.11,73.444v36.465a3.468,3.468,0,0,0,3.7,3.418H178.99s14.24-6.639,13.228-15.919c-.814-7.4-1.641-13.438-2.332-18.029a11.328,11.328,0,0,0-11.279-9.65H55.812a3.7,3.7,0,0,0-3.7,3.714Z" transform="translate(12.194 -51.553)"/><path class="d" d="M52.11,73.444v36.465a3.468,3.468,0,0,0,3.7,3.418H66.671S80.924,106.688,79.9,97.409C79.1,90,78.258,83.97,77.58,79.38A11.34,11.34,0,0,0,66.3,69.73H55.812a3.7,3.7,0,0,0-3.7,3.714Z" transform="translate(12.194 -51.553)"/><path class="b" d="M185.571,94.53H77.978s-3.554,7.885-9.588,11.106H173.514S184.645,100.564,185.571,94.53Z" transform="translate(16.003 -45.75)"/><path class="a" d="M177.04,100.55H73.15l1.555,3.714H177.04Z" transform="translate(17.117 -44.341)"/><path class="a" d="M180.05,96.79H76.16L77.7,100.5H180.05Z" transform="translate(17.821 -45.221)"/><rect class="b" width="2.628" height="1.086" transform="translate(100.312 47.089) rotate(180)"/><rect class="b" width="2.628" height="1.086" transform="translate(104.039 47.089) rotate(180)"/></g><g transform="translate(69.24 486.801)"><ellipse class="c" cx="239.26" cy="13.969" rx="239.26" ry="13.969" transform="translate(0 0)"/></g><g transform="translate(212.791 159.544)"><path class="e" d="M482.31,148.432V355a8.7,8.7,0,0,1-8.7,8.7H181.152a8.712,8.712,0,0,1-8.712-8.7V148.432a8.712,8.712,0,0,1,8.712-8.712H473.61A8.712,8.712,0,0,1,482.31,148.432Z" transform="translate(-172.44 -139.72)"/><path class="f" d="M482.31,148.432V355a8.7,8.7,0,0,1-8.7,8.7H181.152a8.712,8.712,0,0,1-8.712-8.7V148.432a8.712,8.712,0,0,1,8.712-8.712H473.61A8.712,8.712,0,0,1,482.31,148.432Z" transform="translate(-172.44 -139.72)"/><path class="g" d="M482.3,148.432v16.042H172.46V148.432a8.712,8.712,0,0,1,8.712-8.712H473.63A8.712,8.712,0,0,1,482.3,148.432Z" transform="translate(-172.435 -139.72)"/><path class="h" d="M416.961,151.328a4.59,4.59,0,1,1-4.578-4.578A4.59,4.59,0,0,1,416.961,151.328Z" transform="translate(-117.37 -138.075)"/><path class="h" d="M403.461,151.328a4.59,4.59,0,1,1-4.578-4.578,4.59,4.59,0,0,1,4.578,4.578Z" transform="translate(-120.529 -138.075)"/><path class="h" d="M389.961,151.328a4.59,4.59,0,1,1-4.578-4.578A4.59,4.59,0,0,1,389.961,151.328Z" transform="translate(-123.688 -138.075)"/><rect class="i" width="298.603" height="16.918" transform="translate(5.59 35.354)"/><rect class="i" width="298.492" height="146.426" transform="translate(5.701 57.578)"/></g><g transform="translate(194.145 94.217)"><rect class="e" width="63.378" height="52.371" transform="translate(326.097 52.371) rotate(180)"/><path class="j" d="M370.23,86.78v52.371h63.378V86.78Zm2.061,2.073h59.232v48.225H372.291Z" transform="translate(-107.511 -86.78)"/><rect class="i" width="63.378" height="52.371" transform="translate(326.097 52.371) rotate(180)"/><path class="k" d="M431.157,118.464l-18.177-13.2-13.488,13.2-13.5-7.712L371.9,119.414v13.34h59.257Z" transform="translate(-107.121 -82.456)"/><circle class="j" cx="4.344" cy="4.344" r="4.344" transform="translate(281.229 9.625)"/><rect class="e" width="76.656" height="63.341" transform="translate(169.441 252.834)"/><path class="j" d="M294.64,291.67v63.341H371.3V291.67ZM368.8,352.506H297.133V294.163H368.8Z" transform="translate(-125.199 -38.836)"/><path class="l" d="M296.67,324.319l14.549-14.709,12.229,13.673,7.861-4.146,6.627,6.91,5.245-2.764,6.7,6.059h18.448v18.967H296.67Z" transform="translate(-124.724 -34.638)"/><path class="j" d="M336.925,301.31a5.244,5.244,0,0,1-4.936,7.12,5.059,5.059,0,0,1-1.629-.259,5.244,5.244,0,1,0,6.528-6.861Z" transform="translate(-116.841 -36.58)"/><path class="l" d="M344.416,348.345H296.66V324.319l14.561-14.709,12.229,13.673,7.873-4.146,6.614,6.9,5.244-2.752,6.7,6.059s-21.842,3.7-21.632,10.267S344.416,348.345,344.416,348.345Z" transform="translate(-124.727 -34.638)"/><rect class="e" width="102.459" height="84.665" transform="translate(202.487 125.017)"/><path class="j" d="M321.42,188.09v84.665H423.842V188.09Zm99.127,81.333H324.764V191.434h95.783Z" transform="translate(-118.933 -63.073)"/><path class="l" d="M324.13,229.148l17.7-13.994,22.187,17.017,28.32-22.681,27.58,20.349V264.4H324.13Z" transform="translate(-118.299 -58.066)"/><rect class="l" width="95.771" height="22.089" transform="translate(205.831 184.249)"/><path class="l" d="M357.87,236.09l19.115,22.089H394.8Z" transform="translate(-110.404 -51.841)"/><circle class="j" cx="5.479" cy="5.479" r="5.479" transform="translate(238.853 144.872)"/><rect class="e" width="66.513" height="54.962" transform="translate(66.525 159.976) rotate(180)"/><path class="j" d="M157.33,171.89v54.962h66.525V171.89Zm2.172,2.172h62.181v50.594H159.5Z" transform="translate(-157.33 -66.864)"/><rect class="i" width="66.513" height="54.962" transform="translate(66.525 159.976) rotate(180)"/><path class="l" d="M221.271,198.54l-11.489-9.082-14.4,11.044L177,185.78l-17.905,13.2V221.43h62.181Z" transform="translate(-156.918 -63.614)"/><rect class="l" width="62.181" height="14.339" transform="translate(2.172 143.465)"/><path class="l" d="M192.117,203.04l-12.4,14.351H168.14Z" transform="translate(-154.8 -59.575)"/><path class="j" d="M186.34,185.884a3.554,3.554,0,1,0,3.554-3.554A3.554,3.554,0,0,0,186.34,185.884Z" transform="translate(-150.542 -64.421)"/><rect class="e" width="151.313" height="125.029" transform="translate(75.422 13.92)"/><path class="j" d="M218.45,98.06V223.089H369.763V98.06ZM364.827,218.153H223.386V103H364.827Z" transform="translate(-143.028 -84.14)"/><path class="k" d="M222.45,173.706l43.375-31.516,32.22,31.516,32.22-18.436,33.626,20.719v31.837H222.45Z" transform="translate(-142.092 -73.814)"/><path class="j" d="M309.181,127.046a10.366,10.366,0,1,1-10.366-10.366,10.366,10.366,0,0,1,10.366,10.366Z" transform="translate(-126.648 -79.783)"/></g><g transform="translate(217.206 303.46)"><path class="e" d="M200.676,304.564a24.112,24.112,0,1,1,0-48.212h82.678a24.112,24.112,0,0,1,0,48.212Z" transform="translate(-176.018 -256.345)"/><path class="j" d="M200.676,304.564a24.112,24.112,0,1,1,0-48.212h82.678a24.112,24.112,0,0,1,0,48.212Z" transform="translate(-176.018 -256.345)"/><path class="e" d="M200.2,301.628a21.644,21.644,0,1,1,0-43.276H282.88a21.644,21.644,0,0,1,0,43.276Z" transform="translate(-175.545 -255.877)"/><path class="i" d="M200.2,301.628a21.644,21.644,0,1,1,0-43.276H282.88a21.644,21.644,0,0,1,0,43.276Z" transform="translate(-175.545 -255.877)"/><rect class="e" width="121.006" height="38.34" rx="15.54" transform="translate(5.469 4.942)"/><path class="m" d="M196.84,271h2.394v8.4h5.207v1.962h-7.589Z" transform="translate(-171.146 -252.916)"/><path class="m" d="M203.422,277.045a4.381,4.381,0,1,1,4.381,4.1,4.1,4.1,0,0,1-4.381-4.1Zm6.417,0a2.048,2.048,0,1,0-2,2.271,2.011,2.011,0,0,0,2-2.271Z" transform="translate(-169.608 -252.593)"/><path class="m" d="M218.8,276.393v4.541h-2.159v-1a2.591,2.591,0,0,1-2.468,1.111c-1.876,0-2.974-1.036-2.974-2.468s.987-2.382,3.418-2.382h1.826c0-1-.592-1.567-1.826-1.567a3.7,3.7,0,0,0-2.3.74l-.827-1.617a6.17,6.17,0,0,1,3.431-.963C217.395,272.852,218.8,273.975,218.8,276.393Zm-2.308,2.024V277.6h-1.58c-1.086,0-1.419.395-1.419.938s.481.95,1.3.95A1.678,1.678,0,0,0,216.494,278.417Z" transform="translate(-167.786 -252.497)"/><path class="m" d="M227.361,270.49v10.983h-2.2v-.926a3.06,3.06,0,0,1-2.468,1.037,4.1,4.1,0,0,1,0-8.194,3.048,3.048,0,0,1,2.382.963V270.49Zm-2.258,7a2.048,2.048,0,1,0-2.024,2.209,2.011,2.011,0,0,0,2.024-2.209Z" transform="translate(-166.054 -253.035)"/><path class="m" d="M244.281,276.353v4.566h-2.308v-4.183c0-1.234-.58-1.876-1.505-1.876s-1.765.666-1.765,2.085v4H236.4v-4.208c0-1.234-.543-1.876-1.505-1.876s-1.752.666-1.752,2.085v4H230.83v-7.959h2.209v.913a3.233,3.233,0,0,1,2.468-1.037,3.011,3.011,0,0,1,2.628,1.3,3.591,3.591,0,0,1,2.863-1.3C242.923,272.836,244.281,273.934,244.281,276.353Z" transform="translate(-163.192 -252.481)"/><path class="m" d="M243,277.045a4.381,4.381,0,1,1,4.381,4.1,4.1,4.1,0,0,1-4.381-4.1Zm6.4,0a2.036,2.036,0,1,0-2.024,2.209,2,2,0,0,0,2.036-2.209Z" transform="translate(-160.346 -252.593)"/><path class="m" d="M256.3,272.842v2.135h-.518a1.962,1.962,0,0,0-2.122,2.221v3.764H251.35V273h2.209v1.049a3.184,3.184,0,0,1,2.739-1.209Z" transform="translate(-158.391 -252.487)"/><path class="m" d="M264.284,277.6h-6.022a2.11,2.11,0,0,0,2.271,1.592,2.678,2.678,0,0,0,2-.765l1.234,1.333a4.183,4.183,0,0,1-3.282,1.234c-2.752,0-4.553-1.728-4.553-4.1a4.06,4.06,0,0,1,4.257-4.1,3.936,3.936,0,0,1,4.134,4.134C264.321,277.157,264.3,277.4,264.284,277.6Zm-6.059-1.345h3.961a1.987,1.987,0,0,0-3.924,0Z" transform="translate(-157.319 -252.496)"/></g><g transform="translate(95.68 308.407)"><path class="n" d="M164.65,294.194l7.4-5.75s.395-3.27,2.011-4.245,8.255-3.591,9.872-3.468,2.085,6.318,1.629,7.33S175.46,291.9,175.46,291.9l-8.922,8.811Z" transform="translate(-57.152 -255.587)"/><path class="e" d="M119.93,312.272c11.106-2.764,28.481-5.75,35.268-9.255S172.906,291.269,175,290.8c0,0,4.072,2.826,5.38,5.2,0,0-9.65,12.562-23.767,19.25s-32.763,11.945-32.763,11.945Z" transform="translate(-67.616 -253.23)"/><path class="o" d="M180.384,295.98s-9.65,12.574-23.767,19.263c-4.788,2.258-10.106,4.381-15.042,6.17-9.588,3.492-17.72,5.787-17.72,5.787l-2.073-7.873-1.851-7.046c11.106-2.776,28.481-5.75,35.255-9.255S172.906,291.279,175,290.81C175,290.8,179.088,293.624,180.384,295.98Z" transform="translate(-67.616 -253.228)"/><path class="e" d="M164.56,291.278l3.134-2.468,5.146,4.405-2.9,3.245Z" transform="translate(-57.173 -253.696)"/><path class="p" d="M141.223,316c-9.588,3.492-17.72,5.787-17.72,5.787l-2.073-7.873A73.954,73.954,0,0,1,141.223,316Z" transform="translate(-67.265 -247.829)"/><path class="q" d="M132.937,363.31l5.936,18.053c18.3-4.257,65.846-13.2,73.053,6.923,8.947,25-55.74,44.942-91.55,46.164s-54.7-18.67-32.084-70.856Z" transform="translate(-77.316 -236.263)"/><path class="p" d="M132.937,363.31l5.936,18.053c18.3-4.257,65.846-13.2,73.053,6.923,8.947,25-55.74,44.942-91.55,46.164s-54.7-18.67-32.084-70.856Z" transform="translate(-77.316 -236.263)"/><path class="q" d="M178.279,413.034a.222.222,0,0,1-.271,0,.185.185,0,0,1,0-.234c.123-.395,1.308-3.838,2.468-4.2a.74.74,0,0,1,.716.21,1.234,1.234,0,0,1,.42,1.148,3.048,3.048,0,0,1-1.135,1.6,12.238,12.238,0,0,1-2.2,1.469Zm.309-.654a5.121,5.121,0,0,0,2.542-2.468.765.765,0,0,0-.3-.79.259.259,0,0,0-.284-.086.753.753,0,0,0-.271.16,9.872,9.872,0,0,0-1.691,3.184Z" transform="translate(-54.036 -225.669)"/><path class="q" d="M178.491,413.127a.222.222,0,0,1-.222-.062c-.111-.1-1.765-2.184-1.493-3.591a1.32,1.32,0,0,1,.58-.864.765.765,0,0,1,.95-.086c.864.6.765,3.393.333,4.455v.111a.21.21,0,0,1-.148.037Zm-.938-4.085a.84.84,0,0,0-.284.494,4.813,4.813,0,0,0,1.111,2.875c.271-1.234.185-3.159-.321-3.5a.393.393,0,0,0-.42.062l-.086.074Z" transform="translate(-54.321 -225.712)"/><path class="q" d="M127.491,417.022a.21.21,0,0,1,.234-.111.185.185,0,0,1,.173.16c.086.407.716,3.986-.16,4.936a.716.716,0,0,1-.728.16,1.234,1.234,0,0,1-.926-.8,3.159,3.159,0,0,1,.2-1.962,13.069,13.069,0,0,1,1.209-2.382Zm0,.728a5.059,5.059,0,0,0-1.037,3.381.765.765,0,0,0,.642.543.259.259,0,0,0,.284-.062.79.79,0,0,0,.173-.271,10.032,10.032,0,0,0-.012-3.653Z" transform="translate(-66.193 -223.721)"/><path class="r" d="M150.335,402.27l-14.722,5.245-7.083,2.517,1.814,7.737,6.861-1.456,16.733-3.566Z" transform="translate(-65.604 -227.146)"/><path class="e" d="M134.613,417.012l-1.234-9.132a.9.9,0,0,0-1.049-.777l-4.5.753s-6.17.568-7.4,2.147c-3.554,4.59-1.333,24.865,1.037,25.581.876.259,1.789-.938,2.172-1.752,1.234-2.616,3.307-9.452,4.331-11.612,1.234-2.53,4.5-3.776,5.985-4.22a.9.9,0,0,0,.666-.987Z" transform="translate(-67.936 -226.018)"/><path class="q" d="M127.257,416.9a.2.2,0,0,1,.222,0c.148,0,2.6,1.061,3.048,2.468a1.32,1.32,0,0,1-.086,1.036.765.765,0,0,1-.79.543c-1.049-.123-2.308-2.616-2.468-3.7v-.1a.2.2,0,0,1,.074-.247Zm2.8,3.122a.814.814,0,0,0,0-.568c-.284-.864-1.654-1.641-2.357-1.974.333,1.172,1.357,2.838,1.974,2.9a.415.415,0,0,0,.333-.259v-.1Z" transform="translate(-65.923 -223.731)"/><path class="p" d="M148.992,402.27l-14.722,5.245,1.592,8.8,16.733-3.566Z" transform="translate(-64.26 -227.146)"/><path class="e" d="M138.316,417.425l4.233.309-2.826-14.574-4.813,2.653Z" transform="translate(-64.111 -226.938)"/><path class="j" d="M138.316,417.425l4.233.309-2.826-14.574-4.813,2.653Z" transform="translate(-64.111 -226.938)"/><path class="p" d="M87.88,368.83l22.052,24.458s24.4-.543,54.012,13.944c0,0,31.788-13.13,34.712-24.038s-66.722-3.2-66.722-3.2Z" transform="translate(-75.116 -234.971)"/><path class="e" d="M84.521,322.915c3.936,11.822,4.122,38.538,2.727,53.3l44.634-.284c7.675-29.443,5.084-50.1,4.43-57-.814-8.391-2.11-8.712-2.11-8.712s-9.107-.888-17.029-.827a130,130,0,0,0-18.288,1.987,122.384,122.384,0,0,0-13.327,3,3.542,3.542,0,0,0-2.382,4.553C83.645,320.25,84.1,321.607,84.521,322.915Z" transform="translate(-76.261 -248.881)"/><path class="j" d="M131.882,375.916l-26.914.173-17.72.111a222.283,222.283,0,0,0-.358-41.3A63.464,63.464,0,0,0,84.521,322.9c-.42-1.308-.876-2.665-1.345-4.048a3.542,3.542,0,0,1,2.382-4.553,122.392,122.392,0,0,1,13.327-2.937,130,130,0,0,1,18.288-1.925c7.922-.062,17.029.827,17.029.827s1.3.321,2.11,8.712C136.966,325.816,139.558,346.473,131.882,375.916Z" transform="translate(-76.261 -248.869)"/><path class="e" d="M114.485,328.54c18.51-5.8,18.843,27.012-.37,31.566S96.9,334.068,114.485,328.54Z" transform="translate(-72.166 -244.559)"/><path class="m" d="M125.282,330.22c3.344-.074-12.118,26.617-26.272,29.061,0,0,10.02,1.518,21.8-11.883s10.625-17.51,9.724-18.51S125.282,330.22,125.282,330.22Z" transform="translate(-72.511 -244.376)"/><path class="m" d="M107.369,334.79l1.481,1.283,1.888-.506-.753,1.814,1.061,1.641-1.95-.16-1.246,1.518-.444-1.913-1.826-.7,1.678-1.012Z" transform="translate(-70.974 -242.936)"/><path class="p" d="M86.508,371.372a222.283,222.283,0,0,0-.358-41.3c5.491,7.8,15.154,23.532,18.078,41.191Z" transform="translate(-75.521 -244.041)"/><path class="n" d="M110,377.311s11.106,7.256,12.414,7.824,9.539,2.591,11.908,2.468-.8-7.527-2.838-8.49-9.317.358-9.317.358l-8.638-6.491Z" transform="translate(-69.94 -234)"/><path class="q" d="M186.248,382.83v3.628c0,.926-1.1,1.308-2.024,1.308H111.788c-.938,0-2.048-.383-2.048-1.308V382.83Z" transform="translate(-70 -231.695)"/><path class="i" d="M186.248,382.83v3.628c0,.926-1.1,1.308-2.024,1.308H111.788c-.938,0-2.048-.383-2.048-1.308V382.83Z" transform="translate(-70 -231.695)"/><path class="p" d="M181.568,382.83v3.628c0,.926-1.1,1.308-2.024,1.308h-47.78c-.926,0-2.024-.383-2.024-1.308V382.83Z" transform="translate(-65.32 -231.695)"/><path class="q" d="M193.012,352.685,184.374,391.8a2.937,2.937,0,0,1-2.8,2.221H134.483a1.9,1.9,0,0,1-1.777-2.468l8.638-38.822a2.7,2.7,0,0,1,2.8-1.913H191.26C192.494,350.834,193.3,351.4,193.012,352.685Z" transform="translate(-64.647 -239.187)"/><path class="i" d="M192.71,352.685,184.072,391.8a2.937,2.937,0,0,1-2.8,2.221h-45.5A1.9,1.9,0,0,1,134,391.556l8.638-38.822a2.69,2.69,0,0,1,2.8-1.913h45.51C192.192,350.834,192.994,351.4,192.71,352.685Z" transform="translate(-64.345 -239.187)"/><path class="p" d="M164.61,369.589h0c0,3.344-3.591,6.071-6.232,6.071s-4.183-2.727-3.443-6.071,3.369-5.96,5.948-6.059c-.753,3.344.864,6.059,3.48,6.059Z" transform="translate(-59.468 -236.211)"/><path class="r" d="M154.49,417.919l15.425,2.542,7.416,1.222,2.16-7.663-6.7-2.036-16.363-4.973Z" transform="translate(-59.529 -226.037)"/><path class="e" d="M174.167,413.591l-3.332,8.638a.913.913,0,0,0,.543,1.234l4.307,1.53s5.652,2.468,7.478,1.678c5.331-2.3,13.2-21.114,11.476-22.891-.642-.642-2.024,0-2.752.494-2.308,1.7-7.4,6.664-9.415,8.058-2.271,1.629-5.75,1.123-7.268.79A.926.926,0,0,0,174.167,413.591Z" transform="translate(-55.722 -226.855)"/><path class="p" d="M154.49,417.919l15.425,2.542,2.875-8.478-16.363-4.973Z" transform="translate(-59.529 -226.037)"/><path class="q" d="M187.114,416.269S124.18,380.9,102.5,381.914,77.671,402.053,86.617,414s25.494,14.919,25.494,14.919-11.254-15.906-9.625-20.386,8,1.777,8,1.777,39.574,12.772,74.188,15.709Z" transform="translate(-76.506 -231.914)"/><path class="e" d="M169.532,409.414l-3.566-2.394L161.4,421.075h5.491Z" transform="translate(-57.912 -226.035)"/><path class="j" d="M169.532,409.414l-3.566-2.394L161.4,421.075h5.491Z" transform="translate(-57.912 -226.035)"/><path class="n" d="M92.7,313.046c-2.271,3.245,25.643,8.465,25.643,8.465s16.338-10.6-2.739-12.254C111.721,308.912,96.3,307.95,92.7,313.046Z" transform="translate(-74.017 -248.982)"/><path class="e" d="M120.7,328.915s15.042-12.414,7.256-19.843-44.424-10.748-41.327,6.17c0,0,4.714-1.394,9.477,3.147C106.135,327.99,120.7,328.915,120.7,328.915Z" transform="translate(-75.453 -250.376)"/><path class="p" d="M118.471,325.038s8.515-6.614,5.516-12.574-20.719-12.488-33.417-4.27a39.487,39.487,0,0,1,8.416,5.8C104.021,318.3,118.471,325.038,118.471,325.038Z" transform="translate(-74.486 -250.066)"/><path class="n" d="M97.39,316.349s4.085,5.837,19.485,11.044c0,0,6.861-8.724-3.566-12.71,0,0-2.172-.679-2.641-4.134a16.758,16.758,0,0,1,.925-7.194c.111-.37.247-.765.383-1.16L99.29,294.26S103.757,310.339,97.39,316.349Z" transform="translate(-72.89 -252.42)"/><path class="p" d="M101.24,298s.679,9.07,8.527,11.686a16.758,16.758,0,0,1,.925-7.194C106.065,300.036,101.24,298,101.24,298Z" transform="translate(-71.989 -251.545)"/><path class="q" d="M95.3,301.338a7.4,7.4,0,0,1-6.17-2.468.309.309,0,0,1,0-.432.3.3,0,0,1,.432,0c3.468,4.516,13.29.679,13.389.642a.309.309,0,0,1,.407.173.3.3,0,0,1-.173.395,24.248,24.248,0,0,1-7.885,1.69Z" transform="translate(-74.845 -251.465)"/><path class="q" d="M117.189,280.006a.333.333,0,0,1-.2-.074.308.308,0,0,1,0-.432,7.614,7.614,0,0,0-.6-10.094c-4.689-5-11.686-.753-11.76-.716a.309.309,0,1,1-.321-.518c.074,0,7.5-4.553,12.537.814a8.33,8.33,0,0,1,.629,10.9A.346.346,0,0,1,117.189,280.006Z" transform="translate(-71.316 -258.947)"/><path class="q" d="M114.358,279.67a.321.321,0,0,1-.259-.136.308.308,0,0,1,.086-.42s3.221-2.2,3.579-5.121a5.059,5.059,0,0,0-1.505-4.072.309.309,0,0,1,0-.444.321.321,0,0,1,.444,0,5.676,5.676,0,0,1,1.666,4.566c-.395,3.208-3.7,5.454-3.85,5.553a.284.284,0,0,1-.16.074Z" transform="translate(-68.992 -258.24)"/><path class="q" d="M120.923,279.253a12.932,12.932,0,0,0-9.761-14.031c-11.316-3.418-22.989,7.824-22.989,7.824s-8.786,36.23,15.536,34.281S120.923,279.253,120.923,279.253Z" transform="translate(-75.409 -259.366)"/><path class="n" d="M106.274,273.412c10.464-.975,14.364,4.307,16.141,15.03,2.221,13.4.136,23.261-13.228,21.607C90.972,307.8,88.812,275.041,106.274,273.412Z" transform="translate(-73.617 -257.326)"/><path class="s" d="M111.5,285.61a22.471,22.471,0,0,0,3.455,4.06,2.9,2.9,0,0,1-2.653,1.444Z" transform="translate(-69.589 -254.444)"/><path class="q" d="M106.639,285.673c.1.864-.284,1.617-.851,1.678s-1.123-.568-1.234-1.431.284-1.6.851-1.678S106.54,284.821,106.639,285.673Z" transform="translate(-71.218 -254.766)"/><path class="q" d="M105.07,284.48l1.777-.95S106.094,285.208,105.07,284.48Z" transform="translate(-71.093 -254.931)"/><path class="q" d="M115.27,284.525c.1.852-.271,1.6-.851,1.666s-1.111-.568-1.234-1.431.284-1.6.864-1.678S115.171,283.661,115.27,284.525Z" transform="translate(-69.2 -255.038)"/><path class="q" d="M113.7,283.32l1.777-.95S114.737,284.048,113.7,283.32Z" transform="translate(-69.074 -255.203)"/><path class="q" d="M102.135,282.09a.444.444,0,0,1-.247-.074.432.432,0,0,1-.123-.617,5.886,5.886,0,0,1,4.776-2.209.444.444,0,0,1,.432.457.481.481,0,0,1-.457.432,5.084,5.084,0,0,0-4.01,1.814.432.432,0,0,1-.37.2Z" transform="translate(-71.885 -255.947)"/><path class="q" d="M116.08,279.663a.58.58,0,0,1-.21,0,4.491,4.491,0,0,0-3.85-.469.444.444,0,0,1-.383-.8,5.318,5.318,0,0,1,4.652.481.432.432,0,0,1,.185.6.444.444,0,0,1-.395.185Z" transform="translate(-69.616 -256.21)"/><path class="q" d="M97.018,292.877s4.1-9.058,2.727-15.635c0,0,19.966-10.415,22.965,10.551,0,0,.271-18.893-17.77-17.621s-15.5,27.592-5.467,34.552C99.486,304.748,94.55,298.554,97.018,292.877Z" transform="translate(-74.233 -258.071)"/><path class="n" d="M99.024,290.945a4.627,4.627,0,0,0-5.343-3.7c-3.208.654-4.134,7.466,4.085,8.3C98.95,295.6,99.555,294.45,99.024,290.945Z" transform="translate(-74.303 -254.079)"/><path class="q" d="M114.781,293.678a26.541,26.541,0,0,0-1.135,3.579h-.666c-3-.259-4.294-1.37-4.837-2.468a3.8,3.8,0,0,1-.321-1.8,3.887,3.887,0,0,1,.173-1.037,14.018,14.018,0,0,0,5.775,1.715C114.386,293.653,114.781,293.678,114.781,293.678Z" transform="translate(-70.451 -252.961)"/><path class="m" d="M113.768,293.585l-.37,1.049c-2.814-.247-4.776-.8-5.578-1.728a3.887,3.887,0,0,1,.173-1.037A14.018,14.018,0,0,0,113.768,293.585Z" transform="translate(-70.45 -252.98)"/><path class="s" d="M112.917,296.678c-3-.259-4.294-1.37-4.837-2.468a9.538,9.538,0,0,1,3.27.95,3.6,3.6,0,0,1,1.567,1.518Z" transform="translate(-70.389 -252.432)"/><path class="q" d="M94.856,272.339s5.035-8.009-3.517-11.192-16.832,7.836-11.711,15.45a11.76,11.76,0,0,0,13.3,4.825Z" transform="translate(-77.415 -260.301)"/><path class="q" d="M92.175,271.615a.271.271,0,0,1-.2-.062.3.3,0,0,1,0-.432c.222-.259,5.183-6.4.6-10.242a.309.309,0,0,1,0-.432.3.3,0,0,1,.432,0c5.059,4.22-.469,11.032-.518,11.106A.308.308,0,0,1,92.175,271.615Z" transform="translate(-74.179 -260.354)"/><path class="q" d="M86.364,282.109a9.193,9.193,0,0,1-8.638-11.044c.531-2.7,2.2-4.467,4.467-4.714a.3.3,0,0,1,.346.272.309.309,0,0,1-.271.333c-2,.222-3.468,1.8-3.936,4.233a8.638,8.638,0,0,0,4.048,9.119c5.615,3.011,7.675-.6,7.75-.753a.309.309,0,0,1,.42-.123.3.3,0,0,1,.123.407A4.936,4.936,0,0,1,86.364,282.109Z" transform="translate(-77.536 -258.952)"/><path class="p" d="M110.883,321.949a.851.851,0,1,1-.839-.839.851.851,0,0,1,.839.839Z" transform="translate(-70.131 -246.137)"/><path class="p" d="M117.78,319.97a.839.839,0,0,1-.839.851.851.851,0,1,1,0-1.691A.839.839,0,0,1,117.78,319.97Z" transform="translate(-68.539 -246.602)"/><path class="q" d="M124.173,326.869a.851.851,0,1,1-.851-.839.851.851,0,0,1,.851.839Z" transform="translate(-67.022 -244.986)"/><path class="q" d="M109.318,330.389a.839.839,0,1,1-.839-.839.839.839,0,0,1,.839.839Z" transform="translate(-70.492 -244.162)"/><path class="q" d="M124.509,328.689h0s-3.295-.444-3.862-4.652a3.764,3.764,0,0,0-3.776-3.64.306.306,0,0,1-.321-.3.3.3,0,0,1,.3-.321,4.43,4.43,0,0,1,4.418,4.171c.494,3.7,3.295,4.122,3.319,4.134a.309.309,0,0,1,.271.333.321.321,0,0,1-.346.271Z" transform="translate(-68.407 -246.449)"/><path class="q" d="M108.379,332.274a.308.308,0,0,1-.308-.3,8.181,8.181,0,0,1,2.209-5.849,2.8,2.8,0,0,0,.95-2.011,3.344,3.344,0,0,0-.938-2.061.309.309,0,1,1,.42-.444,3.813,3.813,0,0,1,1.135,2.468,3.431,3.431,0,0,1-1.123,2.468,7.639,7.639,0,0,0-2.036,5.368.321.321,0,0,1-.284.333Z" transform="translate(-70.392 -246.047)"/><path class="e" d="M84.489,314.66c8.848-7.108,5.491,32.886,9.662,41.956s29.048,30.64,29.048,30.64l-5.343,6S87.5,376.508,83.3,365.278C77.837,351.063,77.948,319.892,84.489,314.66Z" transform="translate(-77.105 -247.844)"/><path class="o" d="M84.489,314.66c8.848-7.108,5.491,32.886,9.662,41.956s29.048,30.64,29.048,30.64l-5.343,6S87.5,376.508,83.3,365.278C77.837,351.063,77.948,319.892,84.489,314.66Z" transform="translate(-77.105 -247.844)"/><path class="e" d="M115.9,373.37l3.406,2.875-4.677,5.7-4.072-2.579Z" transform="translate(-69.809 -233.909)"/></g></g></svg>