<svg xmlns="http://www.w3.org/2000/svg" width="620" height="477.735" viewBox="0 0 620 477.735"><defs><style>.a{fill:#e0e0e0;}.b{fill:#f0f0f0;}.c,.g,.i,.j,.o,.q,.s,.v,.z{fill:#fff;}.d{fill:#e6e6e6;}.e{fill:#f5f5f5;}.f{fill:#0186ff;}.g,.m{opacity:0.3;}.h{fill:#fafafa;}.i,.y{opacity:0.6;}.j{opacity:0.9;}.k{fill:#ff8b7b;}.l{fill:#263238;}.n{fill:#ea7063;}.o{opacity:0.1;}.p,.q{opacity:0.4;}.r{fill:#ff5652;}.s{opacity:0.2;}.t{fill:#b55b52;}.u{opacity:0.5;}.v{opacity:0.7;}.w{fill:#a02724;}.x{fill:#9e4541;}.z{opacity:0.8;}</style></defs><g transform="translate(0 -42.29)"><g transform="translate(0 42.29)"><rect class="a" width="620" height="0.31" transform="translate(0 421.736)"/><rect class="a" width="40.61" height="0.31" transform="translate(511.909 429.71)"/><rect class="a" width="50.741" height="0.31" transform="translate(358.794 436.443)"/><rect class="a" width="11.755" height="0.31" transform="translate(417.136 436.443)"/><rect class="a" width="47.74" height="0.31" transform="translate(115.531 432.884)"/><rect class="a" width="42.569" height="0.31" transform="translate(215.971 432.884)"/><rect class="a" width="43.301" height="0.31" transform="translate(456.605 429.71)"/><rect class="a" width="41.354" height="0.31" transform="translate(64.046 432.884)"/><path class="a" d="M284.71,405.672H45.278a7.08,7.08,0,0,1-7.068-7.08V62.018A7.08,7.08,0,0,1,45.278,55H284.71a7.08,7.08,0,0,1,7.08,7.08V398.592A7.08,7.08,0,0,1,284.71,405.672ZM45.278,55.248a6.77,6.77,0,0,0-6.758,6.77V398.592a6.77,6.77,0,0,0,6.758,6.77H284.71a6.783,6.783,0,0,0,6.77-6.77V62.018a6.783,6.783,0,0,0-6.77-6.77Z" transform="translate(9.17 -39.24)"/><path class="a" d="M501.024,405.672H261.58a7.093,7.093,0,0,1-7.08-7.08V62.018A7.093,7.093,0,0,1,261.58,55H501.024a7.08,7.08,0,0,1,7.056,7.018V398.592A7.08,7.08,0,0,1,501.024,405.672ZM261.58,55.248a6.783,6.783,0,0,0-6.77,6.77V398.592a6.783,6.783,0,0,0,6.77,6.77H501.024a6.783,6.783,0,0,0,6.77-6.77V62.018a6.783,6.783,0,0,0-6.77-6.77Z" transform="translate(61.08 -39.24)"/><path class="b" d="M171.718,167.53l25.023-24.688L191.52,132.7h0a31.027,31.027,0,0,0,1.24-3.063h0l10.912-3.323.248-35.166-10.875-3.484h0c-.4-1.029-.806-2.058-1.24-3.075l5.456-10.094L172.586,49.457,162.43,54.69h0a29.51,29.51,0,0,0-3.075-1.24l-3.323-10.912-35.154-.248-3.534,10.8c-1.042.384-2.071.794-3.088,1.24h0l-10.081-5.369L79.139,73.674,84.422,83.83a32.3,32.3,0,0,0-1.24,3.063l-11.024,3.4-.248,35.154,10.875,3.484h0c.384,1.042.794,2.071,1.24,3.088h0l-5.369,10.069,24.688,25.036L113.5,161.9a32.3,32.3,0,0,0,3.063,1.24h0l3.336,10.924,35.154.236,3.484-10.875c1.042-.384,2.071-.794,3.088-1.24Zm-15.376-40.647a26.152,26.152,0,1,1,7.8-18.447,26.164,26.164,0,0,1-7.8,18.447Z" transform="translate(17.258 -42.29)"/><path class="a" d="M88.414,211.919l16.455-16.12-3.422-6.659h0c.3-.67.583-1.339.843-2.021h0l7.18-2.182.161-23.089-7.142-2.282h0c-.26-.682-.533-1.364-.831-2.034l3.522-6.609-16.232-16.5-6.659,3.435h0c-.67-.31-1.339-.583-2.021-.856l-2.182-7.167L55,129.67,52.7,136.812c-.682.248-1.352.521-2.021.818h0l-6.572-3.522-16.48,16.207,3.422,6.671c-.3.657-.583,1.339-.843,2.009l-7.18,2.195L22.88,184.28l7.13,2.282h0c.26.682.533,1.364.831,2.034h0L27.319,195.2l16.207,16.442,6.659-3.447c.67.31,1.339.583,2.021.856h0l2.182,7.167,23.089.161,2.294-7.142c.682-.26,1.352-.533,2.021-.818Zm-10.106-26.66a17.186,17.186,0,1,1,.161-24.292A17.186,17.186,0,0,1,78.308,185.259Z" transform="translate(5.491 -21.319)"/><path class="b" d="M469.941,373.278l11.941-11.78-2.48-4.836h0c.223-.484.422-.967.62-1.463h0l5.208-1.587.112-16.765-5.134-1.649h0c-.186-.5-.384-.98-.6-1.476l2.554-4.8L470.288,316.97l-4.848,2.48h0c-.484-.223-.967-.422-1.463-.608l-1.587-5.208-16.765-.124-1.662,5.183c-.5.186-.98.384-1.463.6h0l-4.811-2.567L425.76,328.489l2.48,4.848c-.223.484-.434.967-.62,1.463l-5.208,1.587-.112,16.765,5.183,1.662h0c.186.5.372.98.6,1.463h0l-2.567,4.8,11.78,11.941,4.836-2.48c.484.223.967.422,1.463.608h0l1.587,5.208,16.765.124,1.662-5.2c.5-.174.992-.372,1.476-.6ZM462.6,353.9a12.474,12.474,0,1,1,.124-17.645A12.474,12.474,0,0,1,462.6,353.9Z" transform="translate(101.352 22.803)"/><path class="a" d="M414.657,402.889H50.172a7.862,7.862,0,0,1-7.862-7.862V121.372a7.874,7.874,0,0,1,7.862-7.862H414.657a7.874,7.874,0,0,1,7.862,7.862V395.027A7.862,7.862,0,0,1,414.657,402.889ZM50.172,114.118a7.254,7.254,0,0,0-7.242,7.242V395.027a7.254,7.254,0,0,0,7.242,7.242H414.657a7.254,7.254,0,0,0,7.242-7.242V121.372a7.254,7.254,0,0,0-7.242-7.242Z" transform="translate(10.154 -25.197)"/><path class="a" d="M56.758,126.845a4.328,4.328,0,1,1,4.328-4.328,4.328,4.328,0,0,1-4.328,4.328Zm0-8.035a3.72,3.72,0,1,0,3.72,3.72A3.72,3.72,0,0,0,56.758,118.81Z" transform="translate(12.583 -24.074)"/><path class="a" d="M68.238,126.845a4.328,4.328,0,1,1,4.328-4.328,4.328,4.328,0,0,1-4.328,4.328Zm0-8.035a3.72,3.72,0,1,0,3.72,3.72A3.72,3.72,0,0,0,68.238,118.81Z" transform="translate(15.338 -24.074)"/><path class="a" d="M79.718,126.845a4.328,4.328,0,1,1,4.328-4.328,4.328,4.328,0,0,1-4.328,4.328Zm0-8.035a3.72,3.72,0,1,0,3.72,3.72A3.72,3.72,0,0,0,79.718,118.81Z" transform="translate(18.094 -24.074)"/><rect class="a" width="379.589" height="288.759" rx="6.09" transform="translate(197.532 36.258)"/><path class="a" d="M531.577,361.769H167.092a8.8,8.8,0,0,1-8.792-8.792V79.322a8.8,8.8,0,0,1,8.792-8.792H531.577a8.8,8.8,0,0,1,8.792,8.792V352.977A8.8,8.8,0,0,1,531.577,361.769ZM167.092,73.01a6.324,6.324,0,0,0-6.312,6.312V352.977a6.324,6.324,0,0,0,6.312,6.312H531.577a6.324,6.324,0,0,0,6.312-6.312V79.322a6.312,6.312,0,0,0-6.312-6.312Z" transform="translate(37.992 -35.512)"/><path class="b" d="M159.3,87.28V348.92a7.576,7.576,0,0,0,7.552,7.552H531.337a7.576,7.576,0,0,0,7.552-7.552V87.28Z" transform="translate(38.232 -31.492)"/><rect class="c" width="376.799" height="249.141" transform="translate(198.933 65.832)"/><path class="d" d="M521.343,318.616H171.2a.112.112,0,0,1-.124-.124V108.424a.124.124,0,0,1,.124-.124H521.343a.136.136,0,0,1,.124.124V318.492a.124.124,0,0,1-.124.124Zm-350.015-.248H521.219V108.56H171.328Z" transform="translate(41.059 -26.448)"/><path class="c" d="M173.531,84.837a4.514,4.514,0,1,1,3.2-1.318A4.514,4.514,0,0,1,173.531,84.837Zm0-8.023a3.509,3.509,0,1,0,2.489,1.023,3.509,3.509,0,0,0-2.489-1.023Z" transform="translate(40.567 -34.245)"/><path class="c" d="M185.011,84.837a4.514,4.514,0,1,1,3.2-1.318A4.514,4.514,0,0,1,185.011,84.837Zm0-8.023a3.509,3.509,0,1,0,2.505,1.014,3.509,3.509,0,0,0-2.505-1.014Z" transform="translate(43.322 -34.245)"/><path class="c" d="M196.491,84.837a4.514,4.514,0,1,1,3.2-1.318A4.514,4.514,0,0,1,196.491,84.837Zm0-8.023a3.509,3.509,0,1,0,2.489,1.023,3.509,3.509,0,0,0-2.489-1.023Z" transform="translate(46.078 -34.245)"/><rect class="a" width="379.589" height="1.004" transform="translate(197.532 55.279)"/><rect class="b" width="173.65" height="176.985" transform="translate(543.318 267.567) rotate(180)"/><rect class="b" width="114.65" height="57.573" transform="translate(335.494 148.155) rotate(180)"/><rect class="b" width="114.65" height="145.291" transform="translate(335.494 314.972) rotate(180)"/></g><g transform="translate(69.576 491.951)"><ellipse class="e" cx="240.424" cy="14.037" rx="240.424" ry="14.037"/></g><g transform="translate(75.64 109.87)"><path class="f" d="M517.8,96.79H72.929A11.966,11.966,0,0,0,61,108.706v296.93a11.954,11.954,0,0,0,11.929,11.916H517.8a11.954,11.954,0,0,0,11.916-11.916V108.706A11.966,11.966,0,0,0,517.8,96.79Z" transform="translate(-61 -96.79)"/><path class="g" d="M517.8,96.79H72.929A11.966,11.966,0,0,0,61,108.706v296.93a11.954,11.954,0,0,0,11.929,11.916H517.8a11.954,11.954,0,0,0,11.916-11.916V108.706A11.966,11.966,0,0,0,517.8,96.79Z" transform="translate(-61 -96.79)"/><path class="h" d="M145.467,114.51H82.5a4.34,4.34,0,1,1,0-8.68h62.967a4.34,4.34,0,1,1,0,8.68ZM82.5,107.07a3.1,3.1,0,1,0,0,6.2h62.967a3.1,3.1,0,1,0,0-6.2Z" transform="translate(-56.882 -94.62)"/><path class="h" d="M150.574,114.51h-4.2a4.34,4.34,0,0,1,0-8.68h4.2a4.34,4.34,0,0,1,0,8.68Zm-4.2-7.44a3.1,3.1,0,1,0,0,6.2h4.2a3.1,3.1,0,1,0,0-6.2Z" transform="translate(-41.553 -94.62)"/><path class="h" d="M164.744,114.51h-4.2a4.34,4.34,0,0,1,0-8.68h4.2a4.34,4.34,0,0,1,0,8.68Zm-4.2-7.44a3.1,3.1,0,1,0,0,6.2h4.2a3.1,3.1,0,1,0,0-6.2Z" transform="translate(-38.152 -94.62)"/><path class="f" d="M61,121.65V399.67a11.954,11.954,0,0,0,11.929,11.916H517.8A11.954,11.954,0,0,0,529.72,399.67V121.65Z" transform="translate(-61 -90.824)"/><path class="i" d="M61,121.65V399.67a11.954,11.954,0,0,0,11.929,11.916H517.8A11.954,11.954,0,0,0,529.72,399.67V121.65Z" transform="translate(-61 -90.824)"/><path class="h" d="M62.78,121.65V388.969a6.758,6.758,0,0,0,6.758,6.77h450.79a6.758,6.758,0,0,0,6.758-6.77V121.65Z" transform="translate(-60.573 -90.824)"/><path class="f" d="M80,134.34v49.6H398.68v-49.6Z" transform="translate(-56.44 -87.778)"/><path class="j" d="M80,134.34v49.6H398.68v-49.6Z" transform="translate(-56.44 -87.778)"/><path class="f" d="M397.44,186.18V317.868H81.24V186.18h316.2m1.24-1.24H80V319.108H398.68Z" transform="translate(-56.44 -75.634)"/><path class="j" d="M397.44,186.18V317.868H81.24V186.18h316.2m1.24-1.24H80V319.108H398.68Z" transform="translate(-56.44 -75.634)"/></g><g transform="translate(258.736 189.799)"><path class="k" d="M368.112,411.133h-9.35L356.27,389.47h9.362Z" transform="translate(-173.231 -106.476)"/><path class="k" d="M414.8,411.133h-9.35L398.16,389.47h9.35Z" transform="translate(-163.178 -106.476)"/><path class="l" d="M405.826,406.06h11.408a.819.819,0,0,1,.794.645l1.848,8.308a1.376,1.376,0,0,1-1.364,1.674c-3.72-.062-6.349-.285-10.974-.285-2.84,0-8.68.3-12.623.3s-4.439-3.881-2.84-4.228c7.217-1.587,9.92-3.72,12.239-5.828A2.257,2.257,0,0,1,405.826,406.06Z" transform="translate(-164.843 -102.495)"/><path class="l" d="M362.706,406.06h10.218a.831.831,0,0,1,.806.645l1.848,8.308a1.376,1.376,0,0,1-1.352,1.674c-3.72-.062-9.015-.285-13.64-.285-5.419,0-10.094.3-16.442.3-3.844,0-4.96-3.881-3.3-4.228,7.316-1.612,13.293-1.773,19.617-5.679A4.315,4.315,0,0,1,362.706,406.06Z" transform="translate(-177.113 -102.495)"/><path class="k" d="M379.752,220.148c-.93,7.242-1.947,14.52-3.026,21.762l-3.236,22.022a18.922,18.922,0,0,1-3.15,7.44,23.947,23.947,0,0,1-5.109,5.245,39.556,39.556,0,0,1-11.383,5.754,68.875,68.875,0,0,1-11.495,2.7c-1.922.3-3.832.5-5.754.657s-3.782.26-5.828.26L330.14,279c3.336-.769,6.87-1.662,10.18-2.765a75.557,75.557,0,0,0,9.6-3.72,31.644,31.644,0,0,0,7.8-5.022,12.067,12.067,0,0,0,2.319-2.864,6.969,6.969,0,0,0,.856-2.716l.36-5.22c.124-1.86.3-3.72.459-5.555q.484-5.543,1.1-11.061c.806-7.353,1.761-14.657,2.9-21.985Z" transform="translate(-179.503 -147.607)"/><path class="f" d="M377.514,217.335c3.15,8.37-4.4,36.431-4.4,36.431L352.33,243.375s.98-13.987,5.729-24.8S374.055,208.11,377.514,217.335Z" transform="translate(-174.177 -149.444)"/><path class="m" d="M377.514,217.335c3.15,8.37-4.4,36.431-4.4,36.431L352.33,243.375s.98-13.987,5.729-24.8S374.055,208.11,377.514,217.335Z" transform="translate(-174.177 -149.444)"/><path class="k" d="M336.125,266.52l-10.205.682,4.774,10.949a8.978,8.978,0,0,0,8.395-6.56Z" transform="translate(-180.515 -135.984)"/><path class="k" d="M318.49,271.373l5.667,7.663,8.308-1.017L327.7,267.07Z" transform="translate(-182.298 -135.852)"/><path class="n" d="M356.28,389.47l1.438,12.574,9.3-.558L365.63,389.47Z" transform="translate(-173.229 -106.476)"/><path class="n" d="M407.522,389.47H398.16l4.886,14.508,8.7-1.947Z" transform="translate(-163.178 -106.476)"/><path class="f" d="M364.662,211.362s-11.036,28.247-.558,80.86h50.034c.347-7.688-4.476-45.148,2.926-81.344a129.028,129.028,0,0,0-16.74-2.108,181.681,181.681,0,0,0-21.278,0,93.371,93.371,0,0,0-14.384,2.592Z" transform="translate(-172.435 -149.919)"/><path class="m" d="M364.662,211.362s-11.036,28.247-.558,80.86h50.034c.347-7.688-4.476-45.148,2.926-81.344a129.028,129.028,0,0,0-16.74-2.108,181.681,181.681,0,0,0-21.278,0,93.371,93.371,0,0,0-14.384,2.592Z" transform="translate(-172.435 -149.919)"/><path class="f" d="M380.961,234.462c-.67,6.274-4.117,11.061-7.713,10.676s-5.964-5.778-5.307-12.065,4.129-11.061,7.713-10.689S381.68,228.175,380.961,234.462Z" transform="translate(-170.456 -146.582)"/><path class="o" d="M380.961,234.462c-.67,6.274-4.117,11.061-7.713,10.676s-5.964-5.778-5.307-12.065,4.129-11.061,7.713-10.689S381.68,228.175,380.961,234.462Z" transform="translate(-170.456 -146.582)"/><path class="f" d="M397.844,225.525c1.637-8.258,4.811-6.832,7.837-2.765a260.465,260.465,0,0,0-1.786,33C401.837,252.259,395.116,239.363,397.844,225.525Z" transform="translate(-163.408 -147.268)"/><path class="p" d="M397.844,225.525c1.637-8.258,4.811-6.832,7.837-2.765a260.465,260.465,0,0,0-1.786,33C401.837,252.259,395.116,239.363,397.844,225.525Z" transform="translate(-163.408 -147.268)"/><path class="k" d="M394.818,189.39c-1.339,6.845-2.678,19.381,2.108,23.957,0,0-1.872,6.932-14.595,6.932-13.975,0-6.684-6.932-6.684-6.932,7.638-1.823,7.44-7.44,6.113-12.809Z" transform="translate(-169.037 -154.495)"/><path class="n" d="M387.935,193.06l-7.725,6.6a21.263,21.263,0,0,1,.657,3.72c2.914-.422,6.919-3.621,7.229-6.671A9.809,9.809,0,0,0,387.935,193.06Z" transform="translate(-167.486 -153.615)"/><path class="l" d="M375.69,168.979c-5.146,4.005-5.109,19.989,2.691,20.324S385.473,161.415,375.69,168.979Z" transform="translate(-169.426 -159.703)"/><path class="k" d="M397.783,186.064c-2.716,8.878-3.856,14.21-9.523,17.744-8.506,5.32-18.6-1.476-18.6-10.986,0-8.568,4.452-21.638,14.136-23.114a12.66,12.66,0,0,1,13.987,16.356Z" transform="translate(-170.018 -159.254)"/><path class="l" d="M390.981,193.927c-5.22.818-8.072-26.04,4.377-20.1C413.053,182.3,399.438,192.612,390.981,193.927Z" transform="translate(-165.969 -158.437)"/><path class="l" d="M394.035,179.106c-6.436-.558-15.748-.285-17.769-8.234-2.815-11.086,10.441-12.722,13.714-4.241,7.886-2.592,29.611,10.949,15.14,17.819Z" transform="translate(-168.526 -161.249)"/><path class="k" d="M395.489,193.012a8.853,8.853,0,0,1-6.262,2.48c-3.088-.062-3.72-3.038-2.158-5.493,1.451-2.22,4.8-4.848,7.539-3.6S397.51,190.941,395.489,193.012Z" transform="translate(-166.037 -155.29)"/><path class="l" d="M370.1,276s-36.481,50.555-35.452,79.075c1.054,29.673,24.6,70.68,24.6,70.68l15.215-3.484s-15.14-35.724-14.434-64.864c.769-31.769,42.966-56.842,42.966-81.344Z" transform="translate(-178.427 -133.709)"/><path class="l" d="M380.239,276s-18.6,52.08-12.76,78.876c6.374,29.326,38.44,72.664,38.44,72.664l15.314-4.216S400.5,386.038,396.868,357c-3.956-31.508,15.7-57.561,15.7-81Z" transform="translate(-170.813 -133.709)"/><path class="f" d="M397.11,401.867l22.022-4.092-1.1-5.915-24.688,4.179Z" transform="translate(-164.335 -105.903)"/><path class="q" d="M397.11,401.867l22.022-4.092-1.1-5.915-24.688,4.179Z" transform="translate(-164.335 -105.903)"/><path class="f" d="M352.551,399.4l22.283-2.195-.6-6.076-24.949,2.145Z" transform="translate(-174.907 -106.078)"/><path class="q" d="M352.551,399.4l22.283-2.195-.6-6.076-24.949,2.145Z" transform="translate(-174.907 -106.078)"/><path class="l" d="M381.189,182.561c-.174.732-.707,1.24-1.24,1.116s-.732-.806-.546-1.538.707-1.24,1.178-1.116A1.207,1.207,0,0,1,381.189,182.561Z" transform="translate(-167.696 -156.508)"/><path class="l" d="M374.5,180.951c-.174.732-.707,1.24-1.24,1.128s-.719-.806-.546-1.538.707-1.24,1.24-1.128S374.671,180.219,374.5,180.951Z" transform="translate(-169.3 -156.894)"/><path class="r" d="M377.15,181.46a26.806,26.806,0,0,1-4.96,5.431,4.352,4.352,0,0,0,3.348,1.5Z" transform="translate(-169.41 -156.399)"/><path class="l" d="M377.874,189.615a7.441,7.441,0,0,1-1.662-.2.236.236,0,0,1-.161-.273.223.223,0,0,1,.273-.161,5.952,5.952,0,0,0,5.283-1.141.223.223,0,0,1,.31,0,.211.211,0,0,1,0,.31,6.2,6.2,0,0,1-4.042,1.463Z" transform="translate(-168.485 -154.882)"/><path class="l" d="M384.057,181.218a.434.434,0,0,1-.4-.26,3.521,3.521,0,0,0-2.418-2.1.446.446,0,0,1,.149-.88,4.377,4.377,0,0,1,3.075,2.616.434.434,0,0,1-.223.583A.335.335,0,0,1,384.057,181.218Z" transform="translate(-167.327 -157.235)"/><path class="l" d="M371.937,178.127a.421.421,0,0,1-.285-.1.434.434,0,0,1-.062-.62,4.4,4.4,0,0,1,3.72-1.686.443.443,0,0,1-.1.88,3.571,3.571,0,0,0-2.9,1.364.422.422,0,0,1-.372.161Z" transform="translate(-169.579 -157.778)"/><rect class="f" width="33.802" height="1.24" transform="matrix(0.993, -0.118, 0.118, 0.993, 46.819, 203.693)"/><rect class="f" width="13.925" height="1.24" transform="translate(92.355 198.252) rotate(-6.85)"/><rect class="f" width="299.807" height="52.985" transform="matrix(0.993, -0.118, 0.118, 0.993, 0, 152.779)"/><rect class="f" width="137.727" height="24.341" transform="matrix(0.993, -0.118, 0.118, 0.993, 116.987, 153.25)"/><rect class="s" width="137.727" height="24.341" transform="matrix(0.993, -0.118, 0.118, 0.993, 116.987, 153.25)"/><circle class="f" cx="15.426" cy="15.426" r="15.426" transform="matrix(0.781, -0.625, 0.625, 0.781, 13.616, 172.809)"/><circle class="s" cx="15.426" cy="15.426" r="15.426" transform="matrix(0.781, -0.625, 0.625, 0.781, 13.616, 172.809)"/><circle class="f" cx="15.426" cy="15.426" r="15.426" transform="matrix(0.609, -0.793, 0.793, 0.609, 57.291, 172.911)"/><circle class="s" cx="15.426" cy="15.426" r="15.426" transform="matrix(0.609, -0.793, 0.793, 0.609, 57.291, 172.911)"/><path class="k" d="M412.917,216.28c.818,1.736,1.488,3.274,2.133,4.96s1.24,3.261,1.885,4.96c1.24,3.286,2.269,6.622,3.2,10.032a105.61,105.61,0,0,1,2.368,10.4l.446,2.666.322,2.716c.124.905.174,1.835.236,2.753l.1,1.389v2.158a19.245,19.245,0,0,1-2.083,6.981,42.317,42.317,0,0,1-2.976,5.047,82.057,82.057,0,0,1-6.708,8.407,134.382,134.382,0,0,1-15.128,14.235l-4.96-4.96c4.042-5.171,8.085-10.515,11.743-15.822a87.748,87.748,0,0,0,4.96-8.01,29.28,29.28,0,0,0,1.8-3.844,8.184,8.184,0,0,0,.62-2.666h0V257.4l-.174-1.116c-.112-.756-.211-1.488-.384-2.257l-.446-2.257-.533-2.282c-.756-3.038-1.612-6.088-2.592-9.126s-2.046-6.076-3.174-9.1c-.558-1.513-1.128-3.013-1.724-4.514l-1.823-4.613Z" transform="translate(-164.716 -148.042)"/><path class="f" d="M410.4,211.1c8.345,3.212,14.334,33.74,14.334,33.74l-19.84,7.824s-6.659-15.339-8.9-26.685C393.63,214.04,400.922,207.493,410.4,211.1Z" transform="translate(-163.806 -149.522)"/><path class="m" d="M410.4,211.1c8.345,3.212,14.334,33.74,14.334,33.74l-19.84,7.824s-6.659-15.339-8.9-26.685C393.63,214.04,400.922,207.493,410.4,211.1Z" transform="translate(-163.806 -149.522)"/><path class="f" d="M400.981,407.838a2.9,2.9,0,0,1-1.81-.471,1.364,1.364,0,0,1-.459-1.178.682.682,0,0,1,.384-.62c1.042-.533,4.055,1.314,4.39,1.538a.2.2,0,0,1,.1.223.211.211,0,0,1-.161.174,10.762,10.762,0,0,1-2.443.335Zm-1.389-1.934a.533.533,0,0,0-.3.062c-.062,0-.124.087-.136.26a.88.88,0,0,0,.3.794,4.476,4.476,0,0,0,3.323.174,9.053,9.053,0,0,0-3.187-1.29Z" transform="translate(-163.047 -102.636)"/><path class="f" d="M403.006,407.933a.2.2,0,0,1-.112,0c-.967-.521-2.84-2.567-2.641-3.608a.719.719,0,0,1,.707-.583,1.24,1.24,0,0,1,.942.285c1.091.88,1.314,3.584,1.327,3.72a.26.26,0,0,1-.1.211.235.235,0,0,1-.124-.025Zm-1.823-3.794h-.112c-.285,0-.31.174-.322.223-.112.62,1.079,2.17,2.046,2.9a5.382,5.382,0,0,0-1.1-2.939.831.831,0,0,0-.508-.186Z" transform="translate(-162.679 -103.053)"/><path class="f" d="M355.723,407.84a3.572,3.572,0,0,1-2.282-.57,1.24,1.24,0,0,1-.409-1.079.719.719,0,0,1,.36-.6c1.141-.632,4.9,1.24,5.332,1.5a.223.223,0,0,1,.112.223.211.211,0,0,1-.174.186,15.6,15.6,0,0,1-2.939.335Zm-1.7-1.934a.769.769,0,0,0-.409.087.273.273,0,0,0-.149.236.843.843,0,0,0,.273.707c.57.508,2.12.608,4.179.26a12.052,12.052,0,0,0-3.894-1.29Z" transform="translate(-174.011 -102.637)"/><path class="f" d="M358.168,407.936h-.087c-1.128-.508-3.36-2.48-3.2-3.584,0-.248.223-.558.831-.62a1.587,1.587,0,0,1,1.24.372c1.24.98,1.438,3.5,1.451,3.608a.2.2,0,0,1-.087.2.261.261,0,0,1-.149.025Zm-2.282-3.794h-.124c-.409,0-.434.2-.434.248-.112.645,1.414,2.232,2.567,2.926a5.233,5.233,0,0,0-1.24-2.889,1.141,1.141,0,0,0-.769-.285Z" transform="translate(-173.567 -103.056)"/><path class="k" d="M395.276,273l-9.176,2.48,7.6,9.213s7.353-3.807,5.766-7.936Z" transform="translate(-166.072 -134.429)"/><path class="k" d="M380.74,282.653l6.646,7.217,7.6-5.667-7.6-9.213Z" transform="translate(-167.358 -133.951)"/></g><g transform="translate(91.702 161.438)"><path class="t" d="M147.75,194.373c-2.071,2.108-4.29,4.452-6.336,6.783s-4.092,4.724-6.014,7.18-3.72,4.96-5.493,7.44l-1.24,1.922-1.24,1.947c-.409.657-.769,1.314-1.128,1.984l-.98,1.8a9.809,9.809,0,0,0-.67,3.224,30.589,30.589,0,0,0,0,4.266,79.841,79.841,0,0,0,1.178,9.139c.533,3.088,1.24,6.2,1.947,9.275s1.525,6.2,2.331,9.263l-4.538,1.7a131.442,131.442,0,0,1-6.894-18.6,74.559,74.559,0,0,1-2.158-9.92,38.043,38.043,0,0,1-.384-5.419,17.36,17.36,0,0,1,1.066-6.274c.273-.682.434-.955.62-1.364l.558-1.166c.372-.781.756-1.55,1.166-2.294L120.78,213l1.24-2.195a94.241,94.241,0,0,1,5.654-8.37c2.009-2.678,4.092-5.307,6.287-7.812a101.122,101.122,0,0,1,6.956-7.341Z" transform="translate(-63.831 -126.64)"/><path class="f" d="M144.556,181.093c-6.634.3-12.946,11.321-12.946,11.321l7.849,16.021s12.809-8.01,12.97-17.744C152.529,184.367,151.09,180.8,144.556,181.093Z" transform="translate(-60.115 -128.129)"/><path class="u" d="M144.556,181.093c-6.634.3-12.946,11.321-12.946,11.321l7.849,16.021s12.809-8.01,12.97-17.744C152.529,184.367,151.09,180.8,144.556,181.093Z" transform="translate(-60.115 -128.129)"/><path class="t" d="M127.151,243.29l8.085,2.406-5.382,5.444s-5.816-1.8-6.634-5.754Z" transform="translate(-62.129 -113.198)"/><path class="t" d="M138.837,251.442l-1.352,5.208-8.916-5.977,5.382-5.444Z" transform="translate(-60.845 -112.732)"/><rect class="f" width="196.143" height="73.954" transform="translate(67.231 89.492) rotate(-1.37)"/><rect class="i" width="196.143" height="73.954" transform="translate(67.231 89.492) rotate(-1.37)"/><rect class="f" width="73.123" height="27.565" transform="translate(180.36 92.676) rotate(-1.37)"/><rect class="v" width="73.123" height="27.565" transform="translate(180.36 92.676) rotate(-1.37)"/><rect class="f" width="73.123" height="27.565" transform="translate(141.165 126.984) rotate(-1.37)"/><rect class="v" width="73.123" height="27.565" transform="translate(141.165 126.984) rotate(-1.37)"/><path class="l" d="M179.005,161.635c-.124.756.174,1.451.67,1.538s1-.434,1.141-1.24-.186-1.451-.682-1.55S179.067,160.866,179.005,161.635Z" transform="translate(-48.747 -133.098)"/><path class="l" d="M179.68,160.454l1.91-.174S180.424,161.52,179.68,160.454Z" transform="translate(-48.578 -133.12)"/><path class="w" d="M179.54,162.08a21.315,21.315,0,0,0,1.922,5.369,3.36,3.36,0,0,1-2.8,0Z" transform="translate(-48.823 -132.688)"/><path class="l" d="M181.265,157.754a.422.422,0,0,1-.211-.062,3.72,3.72,0,0,0-3.336-.2.446.446,0,0,1-.608-.2.434.434,0,0,1,.186-.608,4.6,4.6,0,0,1,4.179.211.446.446,0,0,1,.186.608.434.434,0,0,1-.4.248Z" transform="translate(-49.209 -134.079)"/><path class="t" d="M160.37,166.43c.186,5.791-.409,16.232-4.96,19.183,0,0,.6,5.964,11.024,7.973,11.458,2.22,6.411-4.588,6.411-4.588-6.014-2.7-5.084-7.279-3.274-11.408Z" transform="translate(-54.403 -131.644)"/><path class="t" d="M186.426,193.68c.719,2.889,1.624,6.051,2.616,9.027s2.108,5.952,3.36,8.816a63.5,63.5,0,0,0,4.266,8.159,33.031,33.031,0,0,0,5.344,6.77,17.36,17.36,0,0,0,3.15,2.344,11.987,11.987,0,0,0,1.649.818l.521.2a1.971,1.971,0,0,0,.422.074,6.336,6.336,0,0,0,2.877-.62,21.34,21.34,0,0,0,3.584-2.046,79.956,79.956,0,0,0,13.64-13.02l4.042,2.691c-.856,1.562-1.736,2.988-2.666,4.439s-1.922,2.84-2.976,4.216a52.177,52.177,0,0,1-7.155,7.837,26.821,26.821,0,0,1-4.737,3.336,14.557,14.557,0,0,1-6.646,1.885,11.593,11.593,0,0,1-2.046-.174,12.167,12.167,0,0,1-1.86-.508,20.276,20.276,0,0,1-2.852-1.24A25.854,25.854,0,0,1,196,233.31c-5.89-5.121-9.486-11.445-12.4-17.769a89.441,89.441,0,0,1-3.832-9.7,93.132,93.132,0,0,1-2.827-10.081Z" transform="translate(-49.236 -125.104)"/><path class="t" d="M217.56,211.618l2.815-5.158,7.812,2.071s-4.687,7.13-8.68,7.142Z" transform="translate(-39.487 -122.037)"/><path class="t" d="M226.194,204.96l5.94,3.931h-4.489l-7.824-2.071Z" transform="translate(-38.945 -122.397)"/><path class="t" d="M139.3,410.655l9.573.694,2.84-21.973-9.573-.707Z" transform="translate(-58.27 -78.307)"/><path class="t" d="M78.56,370.766l6.609,7.105,17.943-12.846L96.49,357.92Z" transform="translate(-72.847 -85.687)"/><path class="l" d="M89.176,375.021l-5.53-9.424a.756.756,0,0,0-.942-.347l-7.862,3.174a1.525,1.525,0,0,0-.657,2.195c1.972,3.249,3.088,4.724,5.518,8.866,1.488,2.48,3.422,6.423,5.481,9.92s5.555,1.724,4.96.074c-2.48-7.378-1.24-9.523-.694-12.8A2.567,2.567,0,0,0,89.176,375.021Z" transform="translate(-73.953 -83.94)"/><path class="l" d="M150.023,405.87H139.272a.769.769,0,0,0-.781.645L137,415.034a1.5,1.5,0,0,0,1.488,1.7c3.72-.062,5.568-.285,10.3-.285,2.914,0,8.928.31,12.946.31s4.328-3.98,2.666-4.34c-7.44-1.612-10.354-3.844-12.834-5.964a2.48,2.48,0,0,0-1.55-.583Z" transform="translate(-58.824 -74.179)"/><path class="x" d="M151.446,389.374,149.871,401.6l-9.461-1.587,1.463-11.334Z" transform="translate(-58.003 -78.304)"/><path class="x" d="M94.5,357.92l6.622,7.105-7.428,5.32L86.84,363.4Z" transform="translate(-70.86 -85.687)"/><path class="f" d="M139.88,239.4l38.44,7.44c18.092-53.456,13.789-55.13,13.789-55.13a79.855,79.855,0,0,0-8.68-4.055l-.521-.186c-2.48-.905-2.976-1.029-6.262-2a174.993,174.993,0,0,0-17.434-3.36l-1.24-.174c-1.178-.149-2.344-.273-3.472-.384-.769-.087-1.525-.136-2.257-.186l-2.48-.136c-4.191-.2-7.192-.136-7.192-.136C144.691,214.46,143.092,224,139.88,239.4Z" transform="translate(-58.13 -128.128)"/><path class="u" d="M139.88,239.4l38.44,7.44c18.092-53.456,13.789-55.13,13.789-55.13a79.855,79.855,0,0,0-8.68-4.055l-.521-.186c-2.48-.905-2.976-1.029-6.262-2a174.993,174.993,0,0,0-17.434-3.36l-1.24-.174c-1.178-.149-2.344-.273-3.472-.384-.769-.087-1.525-.136-2.257-.186l-2.48-.136c-4.191-.2-7.192-.136-7.192-.136C144.691,214.46,143.092,224,139.88,239.4Z" transform="translate(-58.13 -128.128)"/><path class="f" d="M175.829,203.871a32.413,32.413,0,0,0,1.128,16.752c3.187-10.441,4.96-17.583,5.977-22.469C179.995,197.77,176.858,198.725,175.829,203.871Z" transform="translate(-49.65 -124.049)"/><path class="y" d="M175.829,203.871a32.413,32.413,0,0,0,1.128,16.752c3.187-10.441,4.96-17.583,5.977-22.469C179.995,197.77,176.858,198.725,175.829,203.871Z" transform="translate(-49.65 -124.049)"/><path class="f" d="M183.508,189.557c6.411,4.179,10.49,13.491,11.569,18.811L180.2,220.483s-8.1-18.079-5.444-22.692C177.543,192.98,181.09,187.982,183.508,189.557Z" transform="translate(-49.889 -126.165)"/><path class="u" d="M183.508,189.557c6.411,4.179,10.49,13.491,11.569,18.811L180.2,220.483s-8.1-18.079-5.444-22.692C177.543,192.98,181.09,187.982,183.508,189.557Z" transform="translate(-49.889 -126.165)"/><path class="t" d="M158.788,157.94c-.955,9.424-1.575,13.392,2.368,19.084,5.927,8.568,17.757,8.035,21.526-.831,3.4-7.973,4.4-22.047-4.154-27.528a12.673,12.673,0,0,0-19.741,9.275Z" transform="translate(-53.764 -136.434)"/><path class="l" d="M164.481,140.65c-5.791,4.29-2.083,5.32-4.551,9.647-2.641,4.638-5.419-.645-10.676,4.452-3.41,3.311,2.48,6.82-1.823,12.648-3.3,4.526-6.87.608-5.481,9.92.955,6.336-2.926,5.543-5.543,9.126-3.72,5.134-.384,8.816,9.188,10.751s2.753,11.557,11.755,11.842c9.821.322,7.539-12.474,12.326-9.362s13.5.273,12.97-7.378c-.471-7.018-8.271-6.77-1.959-11.569,4.96-3.72,6.46-3.72,2.964-11.706-2.964-6.8,7.924-5.754,7.725-11.644-.372-10.627-7.725-7.44-10.044-12.884C179.832,140.923,171.9,135.144,164.481,140.65Z" transform="translate(-59.321 -138.377)"/><path class="t" d="M173.42,160.107a8.519,8.519,0,0,0,1.7,4.873c1.463,2,3.187,1.476,3.608-.36.384-1.649.087-4.675-1.786-6.064S173.432,158.135,173.42,160.107Z" transform="translate(-50.081 -133.691)"/><path class="f" d="M180.728,233.584s-18.7,62.632-27.838,98.7c-9.647,38.068-55.651,69.08-55.651,69.08l-9.808-9.722s30.752-25.953,40.089-61.479c18.96-72.094,9.833-87.37,24.949-102.027Z" transform="translate(-70.718 -116.834)"/><path class="z" d="M180.728,233.584s-18.7,62.632-27.838,98.7c-9.647,38.068-55.651,69.08-55.651,69.08l-9.808-9.722s30.752-25.953,40.089-61.479c18.96-72.094,9.833-87.37,24.949-102.027Z" transform="translate(-70.718 -116.834)"/><path class="f" d="M98.4,372.064,86.14,359.875l3.336-3.7,14.917,12.7Z" transform="translate(-71.028 -86.104)"/><path class="f" d="M158.077,243.59c-12.276,9.461-13.094,45.52-12.809,61.814,6.2-22.779,13.64-48.112,17.93-62.769C162.021,241.643,160.334,241.842,158.077,243.59Z" transform="translate(-56.848 -113.498)"/><path class="i" d="M158.077,243.59c-12.276,9.461-13.094,45.52-12.809,61.814,6.2-22.779,13.64-48.112,17.93-62.769C162.021,241.643,160.334,241.842,158.077,243.59Z" transform="translate(-56.848 -113.498)"/><path class="f" d="M88.362,378.013a1.067,1.067,0,0,1-.347,0c-1.166-.36-2-2.48-2.393-3.72a.223.223,0,0,1,.074-.236.211.211,0,0,1,.248,0c.36.174,3.46,1.8,3.584,3.013a.794.794,0,0,1-.322.707,1.327,1.327,0,0,1-.843.236Zm-2.12-3.385c.57,1.637,1.24,2.7,1.9,2.9a.843.843,0,0,0,.794-.211.3.3,0,0,0,.136-.3c-.062-.645-1.612-1.711-2.827-2.393Z" transform="translate(-71.155 -81.823)"/><path class="f" d="M177.986,235.164s2.393,75.789-2.964,104.334c-5.568,29.686-22.531,97.228-22.531,97.228l-13.8-1.786s8.68-68.2,12.4-97.724c4.03-32.166-1.24-107.5-1.24-107.5Z" transform="translate(-58.416 -116.455)"/><path class="z" d="M177.986,235.164s2.393,75.789-2.964,104.334c-5.568,29.686-22.531,97.228-22.531,97.228l-13.8-1.786s8.68-68.2,12.4-97.724c4.03-32.166-1.24-107.5-1.24-107.5Z" transform="translate(-58.416 -116.455)"/><path class="f" d="M156,398.684l-19.679-2.53.236-4.675,21.415.93Z" transform="translate(-58.985 -77.632)"/><path class="f" d="M88.673,375.243a7.056,7.056,0,0,1-2.951-.67.273.273,0,0,1-.112-.2.248.248,0,0,1,.124-.2c.1-.062,2.48-1.414,3.72-.98a1.24,1.24,0,0,1,.769.694.794.794,0,0,1-.161.992A2.195,2.195,0,0,1,88.673,375.243Zm-2.331-.88c1.079.434,2.951.62,3.447.174.087-.062.161-.186,0-.459a.732.732,0,0,0-.484-.446,5.1,5.1,0,0,0-2.964.732Z" transform="translate(-71.155 -82.041)"/><path class="f" d="M150.987,407.69a16.124,16.124,0,0,1-3-.347.236.236,0,0,1-.186-.186.223.223,0,0,1,.124-.236c.434-.223,4.315-2.182,5.468-1.525a.732.732,0,0,1,.372.6,1.24,1.24,0,0,1-.446,1.1A3.6,3.6,0,0,1,150.987,407.69Zm-2.244-.67c2.108.347,3.72.26,4.278-.26a.831.831,0,0,0,.285-.732.285.285,0,0,0-.136-.248C152.537,405.433,150.343,406.264,148.743,407.02Z" transform="translate(-56.23 -74.325)"/><path class="f" d="M148.043,407.772a.17.17,0,0,1-.223-.211c0-.174.508-4.328,2.79-4.08.62.062.806.384.843.632.174,1.079-2.145,3.162-3.311,3.72Zm2.393-3.881c-1.389,0-1.934,2.282-2.1,3.249,1.24-.707,2.765-2.344,2.666-2.988,0,0,0-.211-.446-.248Z" transform="translate(-56.225 -74.754)"/><path class="f" d="M140.175,226.259l-2.294,3.075c-.186.248.087.57.533.657l40.263,7.8c.347.074.67,0,.719-.26l.918-3.348a.641.641,0,0,0-.583-.558l-38.886-7.539A.682.682,0,0,0,140.175,226.259Z" transform="translate(-58.624 -117.333)"/><path class="f" d="M143.613,231.491l-1.042-.2c-.2,0-.347-.186-.31-.31l1.24-4.34c0-.124.236-.2.434-.161l1.042.2c.211,0,.347.186.31.31l-1.24,4.34C144.022,231.454,143.824,231.529,143.613,231.491Z" transform="translate(-57.56 -117.234)"/><path class="z" d="M143.613,231.491l-1.042-.2c-.2,0-.347-.186-.31-.31l1.24-4.34c0-.124.236-.2.434-.161l1.042.2c.211,0,.347.186.31.31l-1.24,4.34C144.022,231.454,143.824,231.529,143.613,231.491Z" transform="translate(-57.56 -117.234)"/><path class="f" d="M164.823,235.653l-1.042-.211c-.211,0-.347-.174-.31-.3l1.24-4.352c0-.124.236-.2.446-.149l1.042.2c.211,0,.347.174.31.31l-1.24,4.34C165.232,235.615,165.034,235.69,164.823,235.653Z" transform="translate(-52.47 -116.237)"/><path class="z" d="M164.823,235.653l-1.042-.211c-.211,0-.347-.174-.31-.3l1.24-4.352c0-.124.236-.2.446-.149l1.042.2c.211,0,.347.174.31.31l-1.24,4.34C165.232,235.615,165.034,235.69,164.823,235.653Z" transform="translate(-52.47 -116.237)"/></g></g></svg>