<svg xmlns="http://www.w3.org/2000/svg" xmlns:xlink="http://www.w3.org/1999/xlink" width="603.454" height="402.159" viewBox="0 0 603.454 402.159"><defs><style>.a,.b,.i{fill:#263238;}.a,.q{opacity:0.2;}.c,.f{fill:#0186ff;}.d,.e,.h,.m,.q{fill:#fff;}.d{opacity:0.7;}.e,.f,.g,.l,.m,.p{stroke:#263238;}.e,.l,.m,.o,.p{stroke-linecap:round;stroke-linejoin:round;}.f,.g{stroke-miterlimit:10;}.g,.l,.o,.p{fill:none;}.i,.j{opacity:0.1;}.k{clip-path:url(#a);}.l,.m,.o{stroke-width:0.98px;}.n{opacity:0.42;}.o{stroke:#fff;}.p{stroke-width:2.939px;}</style><clipPath id="a"><path class="a" d="M367.014,191.55s-1.613,3.626-3.87,8.23h0c-3.916,8.031-12.137,18.835-27.817,18.046-25.506-2.021-32.966-30.7-32.966-30.7s.5-11.384-5.085-15.173-12.146-43.507-12.146-43.507L304.309,96.08l19.107,6.979,26.53,9.717,8.991,6.562.48,14.176-10.206,11.121s3.127,25.071,1.949,33.382C350.073,185.641,367.014,191.55,367.014,191.55Z" transform="translate(-285.13 -96.08)"/></clipPath></defs><g transform="translate(-44.714 -28.729)"><g transform="translate(44.714 271.139)"><g transform="translate(0 0)"><path class="b" d="M439.36,405.206c-.054,0,1.088-3.68,1.187-3.9,1.142-2.583,4.9-6.916,8.022-6.58a3.743,3.743,0,0,1,3.218,4.215,2.725,2.725,0,0,1-.072.39c-.453,2.194-2.638,3.87-4.532,4.777C444.925,405.161,439.36,405.206,439.36,405.206Z" transform="translate(-81.656 -305.397)"/><path class="b" d="M700.383,359.111c-2.266-.988-5.964-5.148-5.973-5.157s3.481-1.586,3.716-1.668c2.719-.843,8.4-.906,10.233,1.7a3.743,3.743,0,0,1-1.042,5.185,2.275,2.275,0,0,1-.354.208C705.015,360.489,702.323,359.954,700.383,359.111Z" transform="translate(-105.53 -301.377)"/><path class="b" d="M635.113,377.084c-1.4,1.006-2.719,1.976-3.843,2.864l-2.157-.58c1.459-1.1,3.172-2.311,5.049-3.626,1.1-.761,2.284-1.559,3.517-2.357a37.916,37.916,0,0,1-1.468-3.934c-2.094.118-5.973-1.133-6.472-1.287-.5,1.224-.961,2.411-1.387,3.553-.97,2.556-1.749,4.849-2.393,6.789l-1.813-.48c.7-1.976,1.559-4.305,2.6-6.916.5-1.242,1.051-2.565,1.631-3.907-.453-.29-4.133-2.647-5.257-4.351-1.015-1.55-1.876-3.825-1.205-5.674a3.281,3.281,0,0,1,4.142-2.121l.326.118c2.511,1.205,3.317,6.154,2.982,8.62,0,.136-.408,1.695-.662,2.665.245-.562.462-1.079.716-1.641.5-1.133,1.024-2.221,1.568-3.417l.906-1.7c.272-.553.653-1.142.988-1.722.789-1.341,1.65-2.647,2.556-3.943-.979-.444-4.432-2.048-5.674-3.426s-2.429-3.5-2.058-5.438a3.3,3.3,0,0,1,3.753-2.765,1.3,1.3,0,0,1,.372.082c2.665.807,4.188,5.592,4.26,8.067,0,.154-.172,1.94-.281,2.919.553-.78,1.1-1.559,1.677-2.32,1.677-2.23,3.435-4.423,5.185-6.617l1.6-2.03c-.354-.145-4.532-1.967-5.891-3.508-1.233-1.387-2.429-3.5-2.057-5.438a3.308,3.308,0,0,1,3.78-2.737,1.306,1.306,0,0,1,.363.082c2.665.807,4.188,5.592,4.26,8.067,0,.181-.245,2.719-.335,3.408,1.169-1.487,2.311-2.982,3.381-4.532a57.913,57.913,0,0,0,3.97-6.4c-.172-.045-4.532-1.94-5.928-3.526-1.233-1.378-2.429-3.481-2.057-5.438a3.3,3.3,0,0,1,3.77-2.719,2.455,2.455,0,0,1,.354.073c2.665.807,4.188,5.592,4.251,8.067,0,.163-.172,2.121-.281,3.055H652a42.6,42.6,0,0,0,2.719-7.034c.408-1.332.716-2.628,1-3.9-.843-.263-4.659-1.523-6.118-2.819s-2.8-3.2-2.638-5.167a3.29,3.29,0,0,1,3.453-3.127h.354c2.719.508,4.795,5.085,5.112,7.55v2.52c.118-.571.245-1.169.353-1.713.381-2.076.607-3.988.788-5.692q.145-1.459.218-2.665c-.68-.689-3.426-3.517-4.106-5.3s-1.006-4.124,0-5.783a3.29,3.29,0,0,1,4.532-1.2l.3.19c2.193,1.713,1.912,6.725,1.06,9.064-.054.2-1.6,3.218-1.631,3.181h0c0,.789-.082,1.631-.163,2.556-.145,1.713-.354,3.626-.671,5.728a59.757,59.757,0,0,1-1.414,6.671,42.969,42.969,0,0,1-2.6,7.179v.091c.562-.6,2.175-2.2,2.311-2.311,1.949-1.559,6.617-3.4,8.928-1.813a3.281,3.281,0,0,1,.8,4.586l-.217.281c-1.251,1.523-3.625,1.931-5.493,1.858-2.094-.082-6.145-2.13-6.463-2.293a59.886,59.886,0,0,1-3.943,6.707c-.852,1.251-1.74,2.493-2.647,3.725.5-.5.906-.906,1.015-1,1.94-1.55,6.608-3.4,8.928-1.813a3.29,3.29,0,0,1,.8,4.586,2.19,2.19,0,0,1-.227.281c-1.242,1.523-3.626,1.94-5.438,1.867s-5.375-1.749-6.29-2.2c-.363.462-.707.906-1.061,1.4-1.7,2.239-3.408,4.469-5.012,6.707-.562.789-1.07,1.6-1.622,2.375l.906-.906c1.94-1.55,6.607-3.4,8.928-1.813a3.3,3.3,0,0,1,.8,4.586,3.519,3.519,0,0,1-.227.29c-1.242,1.514-3.625,1.931-5.438,1.813s-5.031-1.6-6.118-2.13c-.526.834-1.051,1.668-1.514,2.493-.3.553-.644,1.1-.906,1.695l-.852,1.731c-.508,1.133-1.024,2.257-1.487,3.363-.326.761-.625,1.5-.906,2.23.544-.789,1.668-2.311,1.813-2.429a12.826,12.826,0,0,1,5.565-3.272,3.5,3.5,0,0,1,.544-.489,3.281,3.281,0,0,1,4.622.508,3.346,3.346,0,0,1,.208.29c1.432,2.384-.634,6.952-2.266,8.828-.091.118-1.269,1.187-2.03,1.813.508-.326.988-.644,1.532-.97,1.033-.662,2.076-1.287,3.2-1.958l1.686-.906c.553-.317,1.178-.589,1.767-.906,1.405-.671,2.846-1.287,4.324-1.867-.571-.906-2.556-4.151-2.81-5.982s-.109-4.251,1.278-5.656a3.29,3.29,0,0,1,4.65-.181l.245.254c1.813,2.139.435,6.97-.906,9.064-.082.127-1.205,1.532-1.813,2.284.906-.353,1.767-.7,2.674-1.024,2.62-.906,5.3-1.813,7.976-2.647l2.447-.816c-.208-.317-2.719-4.115-2.964-6.182-.272-1.813-.109-4.251,1.269-5.647a3.3,3.3,0,0,1,4.659-.181l.245.245c1.813,2.148.435,6.979-.906,9.064-.1.154-1.722,2.166-2.157,2.656,1.813-.6,3.571-1.215,5.3-1.885a59.823,59.823,0,0,0,6.834-3.145c-.1-.154-2.719-4.106-2.982-6.218-.272-1.813-.109-4.251,1.269-5.656a3.3,3.3,0,0,1,4.659-.181,3.14,3.14,0,0,1,.236.254c1.813,2.139.435,6.979-.906,9.064-.091.136-1.323,1.677-1.922,2.384l.1.127a41.385,41.385,0,0,0,6.19-4.36c1.07-.906,2.049-1.813,2.982-2.719-.562-.689-3.064-3.861-3.553-5.728s-.571-4.215.644-5.765a3.3,3.3,0,0,1,4.6-.7,2.215,2.215,0,0,1,.272.218c2.012,1.94,1.2,6.889.109,9.118a24.5,24.5,0,0,1-1.36,2.13c.417-.408.906-.825,1.242-1.233,1.459-1.5,2.719-2.991,3.8-4.305.616-.761,1.16-1.45,1.65-2.094-.19-.961-.906-4.831-.5-6.689s1.432-4,3.227-4.831a3.308,3.308,0,0,1,4.423,1.5c.045.109.091.208.127.317.906,2.638-2.1,6.662-4.133,8.158-.163.127-3.1,1.813-3.109,1.758v-.054c-.462.643-.988,1.323-1.541,2.048-1.07,1.351-2.284,2.855-3.743,4.405a59.183,59.183,0,0,1-4.867,4.786,43.046,43.046,0,0,1-6.154,4.532h-.073c.789-.19,3.027-.643,3.209-.662,2.474-.218,7.4.825,8.466,3.381a3.281,3.281,0,0,1-1.867,4.26l-.344.118c-1.876.58-4.1-.39-5.6-1.468-1.7-1.233-3.943-5.176-4.124-5.484a59.232,59.232,0,0,1-6.988,3.408c-1.432.571-2.846,1.133-4.26,1.65a9.383,9.383,0,0,1,1.4-.254c2.474-.218,7.4.825,8.466,3.381a3.281,3.281,0,0,1-1.867,4.26l-.344.118c-1.876.58-4.088-.39-5.6-1.477s-3.517-4.423-4.024-5.311l-1.659.589c-2.656.906-5.311,1.813-7.886,2.81-.906.354-1.813.725-2.719,1.088l1.214-.236c2.475-.218,7.4.825,8.466,3.39a3.29,3.29,0,0,1-1.813,4.26l-.345.118c-1.876.571-4.1-.4-5.61-1.477S650.6,369.09,650,368.02c-.906.39-1.813.816-2.638,1.242-.571.308-1.142.562-1.7.906l-1.84,1.079c-1.033.662-2.1,1.332-3.091,1.994-.689.444-1.341.906-2,1.36.906-.39,2.719-1.006,2.828-1.051,2.42-.607,7.423-.308,8.883,2.057a3.29,3.29,0,0,1-1.2,4.532,2.646,2.646,0,0,1-.317.163c-1.813.861-4.115.236-5.765-.607-1.813-.906-4.532-4.333-4.885-4.759C637.143,375.634,636.091,376.368,635.113,377.084Z" transform="translate(-98.722 -296.173)"/><path class="b" d="M52.306,364.53c2.058-.8,5.438-4.36,5.438-4.36s-3.036-1.541-3.236-1.622c-2.366-.843-7.432-1.07-9.164,1.169a3.317,3.317,0,0,0,.752,4.641,1.673,1.673,0,0,0,.3.19C48.146,365.591,50.566,365.246,52.306,364.53Z" transform="translate(-44.714 -301.956)"/><path class="b" d="M90.266,331.858s-1.686-2.955-1.813-3.136c-1.5-1.994-5.6-4.985-8.266-4.07a3.308,3.308,0,0,0-1.94,4.278,2.2,2.2,0,0,0,.145.335c.834,1.813,3.055,2.81,4.895,3.209C85.435,332.946,90.257,331.858,90.266,331.858Z" transform="translate(-47.833 -298.823)"/><path class="b" d="M103.558,382.665c1.206.906,2.32,1.813,3.317,2.719l1.931-.444c-1.26-1.024-2.719-2.175-4.351-3.4-.906-.716-1.985-1.459-3.036-2.221a33.715,33.715,0,0,0,1.468-3.435c1.813.2,5.33-.8,5.792-.906.39,1.106.761,2.184,1.1,3.2.77,2.311,1.4,4.369,1.894,6.118l1.559-.363c-.535-1.758-1.224-3.879-2.076-6.227-.4-1.124-.843-2.32-1.305-3.535.408-.236,3.762-2.2,4.8-3.68.952-1.341,1.813-3.326,1.278-4.985a2.918,2.918,0,0,0-3.626-2.039l-.3.1c-2.293.979-3.163,5.357-2.955,7.55,0,.127.3,1.523.508,2.4-.2-.5-.381-.988-.589-1.486-.4-1.006-.834-2-1.3-3.082l-.725-1.541c-.245-.517-.544-1.042-.816-1.568-.653-1.215-1.378-2.411-2.139-3.626.906-.344,4.024-1.65,5.157-2.837s2.275-3.018,2.039-4.75a2.928,2.928,0,0,0-3.263-2.556l-.3.054c-2.375.625-3.925,4.8-4.043,7.006,0,.145.082,1.731.145,2.6-.453-.707-.906-1.414-1.4-2.121-1.4-2.03-2.891-4.034-4.369-6.055-.453-.607-.906-1.224-1.351-1.813.317-.127,4.043-1.568,5.348-2.919,1.151-1.187,2.284-3.018,2.048-4.75a2.928,2.928,0,0,0-3.254-2.556,1.686,1.686,0,0,0-.308.054c-2.375.616-3.916,4.8-4.033,7.006,0,.172.118,2.465.181,3.036-.988-1.36-1.958-2.719-2.846-4.115a51.669,51.669,0,0,1-3.3-5.873c.145,0,4.043-1.568,5.375-2.937,1.151-1.187,2.284-3.009,2.048-4.74A2.937,2.937,0,0,0,94.6,331.39l-.3.054c-2.375.616-3.925,4.8-4.043,7.016,0,.136.082,1.867.154,2.719h-.136a38.424,38.424,0,0,1-2.393-6.345c-.317-1.187-.544-2.357-.752-3.49.761-.181,4.206-1.2,5.529-2.293s2.6-2.719,2.529-4.478a2.946,2.946,0,0,0-2.937-2.846h-.308c-2.429.363-4.432,4.351-4.777,6.517,0,.118-.091,1.35-.109,2.239-.082-.508-.181-1.042-.245-1.532-.272-1.813-.408-3.562-.508-5.085-.054-.906-.082-1.641-.1-2.366.634-.6,3.163-3.009,3.825-4.532s1.042-3.626.172-5.139a2.928,2.928,0,0,0-3.961-1.206l-.263.154c-2.012,1.441-1.94,5.91-1.287,8.013,0,.181,1.305,2.919,1.3,2.891h.054v2.284c.073,1.514.172,3.236.4,5.1a51.09,51.09,0,0,0,1.033,5.973,38.069,38.069,0,0,0,2.076,6.435v.073c-.471-.517-1.813-2.03-1.967-2.13-1.677-1.441-5.783-3.245-7.867-1.949a2.909,2.909,0,0,0-.906,4.033,1.755,1.755,0,0,0,.19.263c1.051,1.4,3.154,1.813,4.831,1.813,1.876,0,5.529-1.686,5.819-1.813a52.516,52.516,0,0,0,3.29,6.082c.707,1.142,1.459,2.266,2.221,3.39q-.444-.432-.843-.906c-1.677-1.45-5.756-3.245-7.867-1.958a2.928,2.928,0,0,0-.906,4.042l.19.263c1.051,1.387,3.154,1.813,4.831,1.813s4.822-1.378,5.656-1.749l.906,1.287c1.441,2.048,2.882,4.079,4.224,6.118.48.725.906,1.45,1.378,2.2-.372-.408-.7-.752-.752-.8-1.677-1.441-5.783-3.236-7.858-1.949a2.919,2.919,0,0,0-.906,4.043l.19.263c1.051,1.387,3.163,1.813,4.831,1.813s4.532-1.233,5.511-1.677c.435.761.906,1.514,1.251,2.266.254.517.535,1.006.761,1.532s.462,1.052.7,1.568c.4,1.006.825,2.048,1.2,3.036.263.689.5,1.351.743,2.021-.471-.725-1.414-2.112-1.5-2.221a11.366,11.366,0,0,0-4.913-3.136,3.126,3.126,0,0,0-.462-.453,2.937,2.937,0,0,0-4.133.29l-.19.245c-1.351,2.076.317,6.218,1.7,7.931.091.1,1.088,1.1,1.749,1.722-.444-.308-.861-.616-1.323-.952-.906-.616-1.813-1.215-2.783-1.876l-1.459-.906c-.48-.317-1.024-.571-1.55-.861-1.215-.643-2.474-1.251-3.762-1.813.553-.761,2.42-3.626,2.719-5.221s.245-3.771-.906-5.067a2.937,2.937,0,0,0-4.133-.335l-.227.218c-1.659,1.813-.625,6.182.471,8.067.073.118,1.024,1.4,1.568,2.094-.78-.344-1.55-.689-2.348-1-2.293-.906-4.641-1.813-6.988-2.638l-2.13-.725c.19-.281,2.5-3.571,2.846-5.438.3-1.613.245-3.771-.906-5.058a2.919,2.919,0,0,0-3.979-.181,1.665,1.665,0,0,0-.227.209c-1.65,1.813-.634,6.182.48,8.067.082.145,1.45,1.985,1.813,2.429-1.577-.589-3.127-1.2-4.65-1.858a50.975,50.975,0,0,1-5.955-3.018c.091-.127,2.52-3.544,2.864-5.438.317-1.622.245-3.78-.906-5.067a2.937,2.937,0,0,0-4.133-.335l-.227.218c-1.65,1.813-.625,6.173.48,8.067.073.118,1.115,1.523,1.632,2.175l-.1.109a38.235,38.235,0,0,1-5.348-4.079c-.906-.816-1.758-1.659-2.556-2.493.5-.589,2.855-3.317,3.354-4.967s.653-3.716-.372-5.13a2.919,2.919,0,0,0-4.061-.789,1.614,1.614,0,0,0-.245.19c-1.813,1.65-1.314,6.073-.417,8.094a21.3,21.3,0,0,0,1.133,1.931c-.353-.372-.725-.761-1.06-1.133-1.242-1.4-2.293-2.719-3.218-3.961-.526-.689-.979-1.323-1.4-1.922.208-.843.988-4.26.689-5.919s-1.142-3.626-2.719-4.405a2.937,2.937,0,0,0-3.979,1.178,2.647,2.647,0,0,0-.127.281c-.906,2.311,1.641,5.991,3.372,7.4.154.118,2.719,1.713,2.719,1.668v-.045c.4.589.834,1.206,1.314,1.867.906,1.233,1.922,2.62,3.145,4.043a50.442,50.442,0,0,0,4.169,4.414,37.836,37.836,0,0,0,5.293,4.242h.072c-.671-.2-2.719-.68-2.819-.7-2.193-.281-6.589.471-7.641,2.719a2.928,2.928,0,0,0,1.486,3.861,3.438,3.438,0,0,0,.326.118c1.65.58,3.626-.218,5.03-1.106,1.55-1.033,3.68-4.45,3.852-4.722a51.057,51.057,0,0,0,6.091,3.272c1.215.562,2.456,1.1,3.716,1.6l-1.233-.29c-2.184-.281-6.589.471-7.632,2.719a2.919,2.919,0,0,0,1.5,3.861l.317.118c1.65.571,3.626-.218,5.021-1.115s3.272-3.807,3.762-4.577l1.45.58c2.329.906,4.65,1.813,6.934,2.792.8.335,1.568.7,2.338,1.051-.535-.136-1-.236-1.07-.245-2.184-.281-6.58.471-7.632,2.719a2.928,2.928,0,0,0,1.5,3.861l.317.118c1.641.571,3.626-.218,5.03-1.115s3.082-3.535,3.626-4.441c.789.39,1.559.78,2.3,1.2.5.29,1,.535,1.459.861l1.468.906c.906.616,1.813,1.242,2.719,1.894.607.426,1.169.843,1.731,1.269-.779-.344-2.339-.979-2.474-1.024-2.121-.607-6.58-.535-7.958,1.523A2.918,2.918,0,0,0,91,384.921l.272.154c1.541.816,3.626.354,5.139-.335,1.641-.77,4.169-3.689,4.532-4.07C101.836,381.3,102.724,382,103.558,382.665Z" transform="translate(-44.864 -297.494)"/></g></g><g transform="translate(105.515 28.73)"><path class="c" d="M514.338,47.229C460.8,15.506,389.564,26.691,339.4,64.732c-35.884,27.192-69.194,58.916-110.145,77.66-31.488,14.384-67.427,21.309-90.938,48.637-36.754,42.782-31.86,103.084-6.345,150.189,29.621,54.665,83.388,79.228,143.31,87.014,59.7,7.786,122.59-1.16,174.979-31.9,69.792-40.951,107.217-119.218,120.55-196.687C580.822,141.295,568.558,79.325,514.338,47.229Z" transform="translate(-111.794 -28.73)"/><path class="d" d="M514.338,47.229C460.8,15.506,389.564,26.691,339.4,64.732c-35.884,27.192-69.194,58.916-110.145,77.66-31.488,14.384-67.427,21.309-90.938,48.637-36.754,42.782-31.86,103.084-6.345,150.189,29.621,54.665,83.388,79.228,143.31,87.014,59.7,7.786,122.59-1.16,174.979-31.9,69.792-40.951,107.217-119.218,120.55-196.687C580.822,141.295,568.558,79.325,514.338,47.229Z" transform="translate(-111.794 -28.73)"/></g><g transform="translate(106.916 76.243)"><g transform="translate(0 0)"><path class="e" d="M583.586,95.027V392.016a13.886,13.886,0,0,1-13.9,13.886H127.226a13.886,13.886,0,0,1-13.886-13.886V94.438A13.886,13.886,0,0,1,126.5,81.15H570.407a13.886,13.886,0,0,1,13.161,13.288C583.577,94.61,583.586,94.827,583.586,95.027Z" transform="translate(-113.34 -81.15)"/><path class="f" d="M583.57,94.438H113.36A13.886,13.886,0,0,1,126.521,81.15H570.409A13.886,13.886,0,0,1,583.57,94.438Z" transform="translate(-113.342 -81.15)"/><path class="b" d="M139.451,88.245a2.166,2.166,0,1,1-.634-1.541A2.175,2.175,0,0,1,139.451,88.245Z" transform="translate(-115.377 -81.611)"/><path class="b" d="M148.911,88.245a2.166,2.166,0,1,1-.634-1.541A2.175,2.175,0,0,1,148.911,88.245Z" transform="translate(-116.262 -81.611)"/><path class="b" d="M158.379,88.245a2.175,2.175,0,1,1-.64-1.541A2.184,2.184,0,0,1,158.379,88.245Z" transform="translate(-117.147 -81.611)"/></g><circle class="e" cx="11.158" cy="11.158" r="11.158" transform="translate(12.572 135.297)"/><path class="e" d="M141.251,235.46l-5.511,6.589,5.511,5.348" transform="translate(-115.437 -95.594)"/></g><g transform="translate(155.363 342.451)"><path class="b" d="M388.78,402.179a5.683,5.683,0,0,0,1.079,4.423c1.613,2.166,3.091,2.438,3.091,2.438v9.517s-8.475,1.65-10.5.444c-1.369-.825-1.314-5.13-1.133-7.8a2.493,2.493,0,0,1,2.293-2.329l2.719-.227S385.68,401.1,388.78,402.179Z" transform="translate(-186.863 -377.398)"/><rect class="b" width="3.091" height="10.088" transform="translate(207.347 31.243)"/><path class="b" d="M408.158,415.665v.8a2.094,2.094,0,1,1-4.178,0v-.254l1.26-.127v.29c0,.689.3.988.807.988s.8-.3.8-.906v-.906c0-.689-.3-.988-.988-.988h-.517v-1.233h.471c.689,0,.988-.3.988-.988v-.671a.689.689,0,0,0-.743-.779c-.471,0-.743.272-.743.906v.19H404v-.208a2.03,2.03,0,1,1,4.052,0v.562a1.94,1.94,0,0,0,.091,3.363Z" transform="translate(-188.992 -378.104)"/><path class="b" d="M409.75,416.528V411.8a2.1,2.1,0,0,1,4.2,0v4.722a2.1,2.1,0,0,1-4.2,0Zm2.882,0V411.8a.789.789,0,0,0-1.577,0v4.722a.789.789,0,1,0,1.577,0Z" transform="translate(-189.533 -378.125)"/><path class="b" d="M420.344,414.935l-.5.952v2.6H418.54V409.85h1.323v3.508l1.731-3.508H423l-1.813,3.626,1.976,4.976h-1.487Z" transform="translate(-190.355 -378.126)"/><path class="b" d="M445.41,424.727a5.728,5.728,0,0,1,1.079-4.423c1.613-2.175,3.1-2.438,3.1-2.438v-9.517s-8.484-1.659-10.5-.444c-1.378.825-1.314,5.13-1.142,7.8a2.5,2.5,0,0,0,2.3,2.329l2.719.227S442.319,425.805,445.41,424.727Z" transform="translate(-192.164 -377.902)"/><rect class="b" width="3.091" height="10.088" transform="translate(259.129 30.274)"/><path class="b" d="M464.577,411.708H463.09V410.8a2.184,2.184,0,0,0,1.876-.952h.906V418.5h-1.305Z" transform="translate(-194.526 -378.126)"/><path class="b" d="M468.9,417.223h2.592v1.242h-4.142v-1.142l1.912-3.046a4.342,4.342,0,0,0,.906-2.4c0-.6-.281-.906-.788-.906s-.789.335-.789.906v.508h-1.26v-.408a1.994,1.994,0,0,1,2.057-2.266,1.94,1.94,0,0,1,2.085,2.13,5.439,5.439,0,0,1-1.16,3.1Z" transform="translate(-194.921 -378.113)"/><path class="b" d="M472.994,416.509v-.263l1.26-.127v.29c0,.689.3.961.78.961s.779-.272.779-.843v-2.012c0-.508-.272-.761-.689-.761a.789.789,0,0,0-.816.852v.154h-1.314v-4.94h3.743v1.233h-2.484V413.2a1.414,1.414,0,0,1,1.251-.626,1.541,1.541,0,0,1,1.559,1.74v2.175a2.067,2.067,0,1,1-4.124,0Z" transform="translate(-195.447 -378.123)"/><path class="b" d="M268.78,418.933V412.28h3.39l5.167-5.03v15.762l-4.278-4.351Z" transform="translate(-176.337 -377.883)"/><path class="b" d="M283.446,415.514a5.012,5.012,0,0,1-3.136,4.659V410.81a5.013,5.013,0,0,1,3.136,4.7Z" transform="translate(-177.416 -378.216)"/><path class="g" d="M279.74,407.24a8.013,8.013,0,0,1,.5,15.681" transform="translate(-177.363 -377.882)"/><path class="b" d="M206.527,422.713h0a1.477,1.477,0,0,1-1.477-1.477V410.277a1.477,1.477,0,0,1,1.477-1.477h0A1.477,1.477,0,0,1,208,410.277v10.958A1.477,1.477,0,0,1,206.527,422.713Z" transform="translate(-170.371 -378.028)"/><path class="b" d="M213.037,422.713h0a1.477,1.477,0,0,1-1.477-1.477V410.277a1.477,1.477,0,0,1,1.477-1.477h0a1.477,1.477,0,0,1,1.477,1.477v10.958A1.477,1.477,0,0,1,213.037,422.713Z" transform="translate(-170.981 -378.028)"/><path class="b" d="M174.076,409h0a1.5,1.5,0,0,1,1.486,1.487v11.049a1.486,1.486,0,0,1-1.486,1.486h0a1.477,1.477,0,0,1-1.486-1.486V410.441A1.487,1.487,0,0,1,174.077,409Z" transform="translate(-167.333 -378.047)"/><path class="b" d="M185.484,410.192V421.74a.607.607,0,0,1-.979.48l-7.65-6.055a.607.607,0,0,1,0-.97l7.65-5.529a.607.607,0,0,1,.979.526Z" transform="translate(-167.71 -378.097)"/><path class="b" d="M245.308,422.332h0a1.5,1.5,0,0,1-1.468-1.5l.136-11.049a1.477,1.477,0,0,1,1.5-1.468h0a1.477,1.477,0,0,1,1.468,1.5l-.127,11.049A1.5,1.5,0,0,1,245.308,422.332Z" transform="translate(-174.002 -377.982)"/><path class="b" d="M233.31,421.062l.136-11.584a.607.607,0,0,1,.988-.462l7.577,6.145a.607.607,0,0,1,0,.961l-7.713,5.438a.607.607,0,0,1-.988-.5Z" transform="translate(-173.017 -378.036)"/><rect class="e" width="274.574" height="18.826" rx="8.91"/><path class="b" d="M433.479,384.982a2.094,2.094,0,0,1-2.112,2.112H179.852a2.112,2.112,0,1,1,0-4.224H431.367a2.112,2.112,0,0,1,2.112,2.112Z" transform="translate(-167.815 -375.601)"/><path class="c" d="M243.444,382.87l-.145,4.224H179.852a2.112,2.112,0,1,1,0-4.224Z" transform="translate(-167.815 -375.601)"/><path class="b" d="M254.091,384.136a5.756,5.756,0,1,1-5.756-5.756A5.756,5.756,0,0,1,254.091,384.136Z" transform="translate(-173.884 -375.18)"/><path class="h" d="M251.007,384.409a2.338,2.338,0,1,1-2.339-2.329A2.339,2.339,0,0,1,251.007,384.409Z" transform="translate(-174.235 -375.527)"/></g><g transform="translate(155.362 100.607)"><path class="e" d="M451.588,145.019v177.8a13.378,13.378,0,0,1-13.369,13.369H180.159a13.369,13.369,0,0,1-13.369-13.369v-177.8a11.962,11.962,0,0,1,.163-2.076,13.378,13.378,0,0,1,13.206-11.294H438.173a13.4,13.4,0,0,1,13.206,11.294,12.926,12.926,0,0,1,.209,2.076Z" transform="translate(-166.79 -110.241)"/><rect class="b" width="91.627" height="9.707" transform="translate(4.868)"/></g><g transform="translate(165.815 73.758)"><path class="h" d="M227.823,249.76s4.532,17.729,12.354,28.669c10.677,9.97,17.412,10.523,25.56,10.523s12.073-4.088,12.073-4.088l1.4-9.653L275,260.292s-14.883-16.968-20.222-21.355-16.841-17.548-20.213-34.515-8.71-24.862-8.71-24.862-1.885-16.7-4.369-16.478-5.176,9.49-4.532,15.409c0,0-6.517-4.74-8.484-6.571s-9.626-10.677-10.976-9.49,3.19,13.2,9.862,18.762c0,0-5.067-.752-8.275-3.988s-9.318-9.916-12.109-8.729a3.426,3.426,0,0,0-2.175,3.879s-3,.906-2.067,5.5c0,0-2.8,4.1,1.133,9.916s11.593,11.783,18.427,14.983,9.617,5.175,12.1,10.877S227.823,249.76,227.823,249.76Z" transform="translate(-178.644 -86.263)"/><path class="a" d="M279.2,275.218l-.906,6.154-.508,3.5s-3.916,4.061-12.055,4.061-14.892-.589-25.56-10.541c-7.84-10.94-12.354-28.66-12.354-28.66s-10.995-30.355-13.469-36.029-5.284-7.65-12.118-10.877-14.5-9.173-18.418-14.992c-2.665-3.943-2.248-7.1-1.695-8.719a5.983,5.983,0,0,1,.553-1.2c-.906-4.641,2.076-5.5,2.076-5.5a3.426,3.426,0,0,1,2.175-3.87c2.792-1.2,8.9,5.438,12.1,8.72s8.284,4,8.284,4c-6.626-5.62-11.176-17.584-9.834-18.762s9.01,7.659,10.967,9.49,8.493,6.571,8.493,6.571c-.625-5.919,2.067-15.191,4.532-15.409s4.369,16.478,4.369,16.478,5.33,7.895,8.692,24.853,14.892,30.138,20.222,34.525,20.222,21.355,20.222,21.355Z" transform="translate(-178.639 -86.27)"/><path class="c" d="M259.16,237.843s10.976-15.409,12.807-19.941S282.119,199.538,291.1,198.5a61.634,61.634,0,0,0,16.8-4.686l47.758,2.774s10.079,3.771,19.234,7.251c8.629,3.281,18.237,8.774,18.536,17.367.263,7.514,14.593,34.9,24.627,43.507l-39.4,11.983s-1.369,11.439-7.46,16.007c0,0,13.333,31.162,7.84,49.707l-108.423-.39s-4.251-42.51,14.548-57.42c0,0-4.895-10.877-5.23-20.412C279.953,264.182,276.626,255.173,259.16,237.843Z" transform="translate(-185.889 -89.211)"/><path class="i" d="M278.3,283.1l-4.169,4.423s-1.722,2.719-8.991,2.937c-8.158.263-14.3-.353-24.971-10.306-7.84-10.94-12.354-28.66-12.354-28.66s-10.995-30.391-13.469-36.065-5.284-7.65-12.118-10.877-14.5-9.173-18.418-14.992c-2.665-3.943-2.248-7.1-1.695-8.719,3.263,1.813,7.124,5,9.97,7.079,5.62,3.39,9.526,6.018,15.255,9.136,11.366,6.209,17.321,19.424,21.636,32.014s8.158,26.1,17.493,35.277a43.86,43.86,0,0,0,19.215,10.641c4.278,1.16,9.137,2.139,11.611,5.937A8.412,8.412,0,0,1,278.3,283.1Z" transform="translate(-178.639 -87.997)"/><path class="c" d="M371.219,292.637c.789.272,14.693,31.642,7.84,49.707l-60.592-.39-48.764-.6s-2.9-42.029,15.9-56.931c0,0-5.438-10.877-5.774-20.448,0,0-3.172-8.158-20.648-25.524,0,0,10.813-16.315,12.635-20.8s9.671-17.865,18.663-18.907a46.062,46.062,0,0,0,16.487-5.583l47.758,2.774a62.341,62.341,0,0,0,9.771,4.586c2.955,1.079,6.154,1.7,9.309,2.9,12,4.532,17.693,9.671,18.69,17.131s14.593,34.9,24.618,43.507l-39.763,13.687S375.706,288.984,371.219,292.637Z" transform="translate(-185.891 -89.15)"/><path class="j" d="M376.23,293.409s14.33,27.038,7.84,49.707l-60.592-.39c-1.205-3.789-1.205-8.248-.906-12.209-1.224-2.311-.317-5.157-.218-7.8.154-4.088-1.722-7.94-3.78-11.411s-4.414-6.9-5.438-10.877-.245-8.719,2.919-11.158c3.517-2.719,8.4-1.559,12.69-.562,7.016,1.659,14.3,2.638,21.382,1.305s13.94-5.2,17.747-11.538a12.954,12.954,0,0,0,1.813-4.623,18.87,18.87,0,0,0-.344-6.127c-1.033-6.018-2.293-12.091-1.7-18.173.39-4,1.568-7.867,2.085-11.856a35.92,35.92,0,0,0-5.647-24.382c2.538-3.345,3.181-8.42,5.438-11.9,2.955,1.079,6.3,2.193,9.572,3.027,9.49,2.42,18.364,9.526,19.361,16.977s11.266,31.6,23.947,43.833l-38.766,11.72S382.675,288.886,376.23,293.409Z" transform="translate(-190.902 -89.922)"/><path class="h" d="M421.56,266.286s2.81-3.444,5.438-2.719c0,0,6.281,8.439,8.928,11.538,2.139,2.511,4.07,8.3,3.49,13.342a6.743,6.743,0,0,1-2.991,4.858c-3.39,2.239-10.251,6.145-16.524,5.892-8.765-.344-23.466-7.251-28.588-18.073s-6.281-24.953-6.281-24.953-6.771-7.405-5.783-14.629,5.5-17.085,6.553-19.941,2.366-6.78,4.188-6.263,4.224,6.9.589,17.575c0,0,3.045,0,5.357-3.807s9.454-20.593,13.931-15.409c0,0,4.115-2.855,5.846-.054,0,0,3.1-2.058,3.191.634.136,3.97-1.169,13.469-1.169,13.469s3.281-2.465,3.281,3.045-1.9,15.472-9,21.5C412.025,252.319,415.777,261.473,421.56,266.286Z" transform="translate(-197.121 -90.952)"/><path class="a" d="M439.426,288.411a6.762,6.762,0,0,1-3.027,4.895c-3.19,2.094-9.4,5.629-15.309,5.855h-1.178c-8.756-.335-23.467-7.251-28.588-18.064s-6.281-24.962-6.281-24.962-6.771-7.405-5.792-14.638,5.511-17.067,6.562-19.9,2.366-6.78,4.188-6.254,4.233,6.889.589,17.566c0,0,3.036,0,5.357-3.807s9.463-20.6,13.931-15.409c0,0,4.115-2.855,5.846-.054,0,0,3.091-2.058,3.19.634.136,3.5-.906,11.3-1.124,13.1h0v.363s3.281-2.465,3.281,3.046-1.894,15.472-9.01,21.491c0,0,3.762,9.164,9.544,13.986,0,0,1.985-2.882,4.7-2.846,0,0,7.025,8.52,9.671,11.62C438.075,277.571,440.006,283.372,439.426,288.411Z" transform="translate(-197.121 -90.952)"/><path class="h" d="M349.2,144.989l10.2-11.13-.489-14.158-8.982-6.58L304.289,96.47,285.11,128.837s6.553,39.7,12.137,43.507,5.1,15.173,5.1,15.173,7.324,28.289,32.811,30.31c23.566,1.559,31.642-26.285,31.642-26.285s-13.995-4.958-16.9-12.8S349.2,144.989,349.2,144.989Z" transform="translate(-188.318 -80.099)"/><path class="a" d="M367.014,191.55s-1.613,3.626-3.87,8.23h0c-3.916,8.031-12.137,18.835-27.817,18.046-25.506-2.021-32.966-30.7-32.966-30.7s.5-11.384-5.085-15.173-12.146-43.507-12.146-43.507L304.309,96.08l19.107,6.979,26.53,9.717,8.991,6.562.48,14.176-10.206,11.121s3.127,25.071,1.949,33.382C350.073,185.641,367.014,191.55,367.014,191.55Z" transform="translate(-188.32 -80.062)"/><g class="k" transform="translate(96.81 16.018)"><path class="i" d="M368.754,192.258s-1.459,3.535-3.716,8.158h0l-.906,1.731c-15.662-11.321-23-28.8-23.648-48.7-.073-2.021,1.668-27.092,2.483-27.074-23.566-.363-37.6-23.412-37.6-23.412l19.941.743,26.53,9.717,8.991,6.562.48,14.176-10.206,11.121s.2,25.18,1.949,33.382C354.633,186.14,368.754,192.258,368.754,192.258Z" transform="translate(-287.025 -96.724)"/></g><path class="l" d="M348.23,130.119s3.317-8.946,10.133-7.251,3.626,20-2.4,21.753S349.517,141,349.517,141" transform="translate(-194.226 -82.55)"/><path class="l" d="M312.851,132.673v-.553c.109,2.067.571,4.1.589,6.163a7.648,7.648,0,0,1-1.949,5.656c-.961.906-2.393,1.586-2.592,2.937a3.626,3.626,0,0,0,.544,2.1,8.8,8.8,0,0,0,2.048,2.774,3.852,3.852,0,0,0,3.145.906" transform="translate(-190.544 -83.436)"/><path class="m" d="M312.77,162.635s14.248-3.1,17.5-13.215c0,0,2.293,10.75-4.16,15.236C318.87,169.678,312.77,162.635,312.77,162.635Z" transform="translate(-190.907 -85.055)"/><path class="l" d="M290,120.57c1.632,12.925,2.882,25.8,6.807,38.277,2.719,8.574,8.565,17.013,18.3,16.451,11.783-.689,20.765-2.719,28.479-12.236" transform="translate(-188.776 -82.355)"/><path class="l" d="M319.89,124.517a7.329,7.329,0,0,1,9.707-.227" transform="translate(-191.574 -82.541)"/><path class="l" d="M305.8,126.328c-2.13-.906-5.728-1.4-9.064,3.245" transform="translate(-189.407 -82.838)"/><path class="l" d="M315.041,180.67s.471,13.5-3.626,15.635-20.367-2.855-29.068,5.728-18.463,31.352-23.267,34.688" transform="translate(-185.881 -87.981)"/><path class="b" d="M326.529,134.868c0,1.931-.689,3.5-1.55,3.5s-1.559-1.568-1.559-3.5.7-3.508,1.559-3.508S326.529,132.928,326.529,134.868Z" transform="translate(-191.904 -83.365)"/><path class="b" d="M304.539,136.979c0,1.931-.689,3.5-1.55,3.5s-1.559-1.568-1.559-3.5.7-3.5,1.559-3.5S304.539,135.039,304.539,136.979Z" transform="translate(-189.846 -83.563)"/><path class="b" d="M288.7,122.016s6.236-1.632,13.061-21.318c0,0,19.333,25.007,40.108,21.826,0,0,5.765-7.006,10.813-1.813,4.233,4.351,0,18.128-3.526,19.388s-4.722.072-4.722.072-9.97,18.962-.073,34.987,30.754,7.4,37.461-4.931.2-22.179.2-22.179,4.731,2.048,4.922,8.42c0,0,3.952-6.988-1.967-16.841s-12.327-19.732-18.3-29.721c-5.783-9.653-10.088-22.47-20.793-27.636-12.526-6.037-28.171-4.378-40.688.716-10.342,4.224-15.626,14.3-19.768,24.572-2.937,7.251-4.6,15.073-7.7,22.3-2.719,6.345-7.55,11.285-10.306,17.638-7.4,17.04-.553,36.936,15.209,44.957,0,0,1.4-3.517,7.9-4.133s7.886-1.233,13.995-1.024,8.085-.408,9.463-4.106,1.813-11.738,1.813-11.738-7.985,1.758-13.7-3.245c-5.683-6.78-7.713-10.405-9.064-18.79S288.7,122.016,288.7,122.016Z" transform="translate(-186.383 -78.408)"/><path class="b" d="M321.1,179.9s-1.169,7.75,7.251,5.5,17.584-16.714,17.584-16.714S335.761,178.724,321.1,179.9Z" transform="translate(-191.682 -86.859)"/><path class="l" d="M271.144,351.222s-5.837-37.833,15.363-57.5" transform="translate(-186.942 -98.563)"/><path class="l" d="M288.72,290.763c-7.451-11.566-10.242-31.47.58-41.893" transform="translate(-188.039 -94.365)"/><path class="l" d="M349.52,172.59s1.813,19.941,25.678,26.748c19.134,5.438,23.494,11.62,24.708,14.04" transform="translate(-194.347 -87.224)"/><path class="l" d="M304.64,198s9.689,29.385,35.513,29.775c18.853.29,28.579-26.385,28.579-26.385" transform="translate(-190.146 -89.603)"/><path class="l" d="M307.74,298c13.478,5.783,28.434,6.245,43.008,6.617" transform="translate(-190.436 -98.964)"/><path class="l" d="M273.4,288.44a12.8,12.8,0,0,1-4.632,1.586c-11.928,2-23.077-1.94-30.382-12.128-4.07-5.674-6.073-12.082-8.221-18.744-4.759-14.756-9.735-29.34-15.409-43.733,0,0-1.632-3.7-3.372-5.148-3.091-2.565-9.064-6.789-13.65-8.1-6.562-1.885-18.345-16.315-16.315-20.294s12.689,9.671,17.221,10.877" transform="translate(-178.59 -88.026)"/><path class="l" d="M286.075,237.241s-1.151-12.236,3-23.041" transform="translate(-188.395 -91.119)"/><g class="n" transform="translate(93.146 7.416)"><path class="o" d="M318.43,92.92s10.686,18.545,29.385,20.4" transform="translate(-284.583 -87.183)"/><path class="o" d="M362.575,148.19a58.744,58.744,0,0,0,5.085,36.256" transform="translate(-288.629 -92.356)"/><path class="o" d="M357.77,107.17c6.073,5.547,11.955,11.448,14.865,19.188,2.719,7.188,2.5,15.146,2.719,22.868s.943,15.8,5.166,22.143" transform="translate(-288.265 -88.516)"/><path class="o" d="M336.27,86.59q6.345,6.617,13.106,12.862" transform="translate(-286.253 -86.59)"/><path class="o" d="M287.126,142.57a48.945,48.945,0,0,0-4.142,37.044" transform="translate(-281.087 -91.83)"/></g><path class="m" d="M203.509,200.537s26.92-40.643,24.065-43.108-29.6,40.389-29.6,40.389-7.142,1.378-10.215,4.387-10.269,21.753-9.354,22.379,10.052-14.937,10.877-14.738-5.076,18.663-4.242,18.871,10.46-16.1,11.783-15.59-6.209,18.345-4.958,18.654,12.563-15.989,12.753-19.524S203.509,200.537,203.509,200.537Z" transform="translate(-178.322 -85.796)"/><path class="l" d="M359.05,230.637a22.985,22.985,0,0,0,4.9-5.067" transform="translate(-195.239 -92.184)"/><path class="l" d="M334.63,234.09s8.729,3.417,17.439,0" transform="translate(-192.953 -92.981)"/><path class="l" d="M403.23,238.268s-6.571-4.641-13.6-3.535c0,0,5.511-17.675,1.269-19.034-2.882-.906-4.36,4.206-5.067,6.163-1.378,3.825-3.055,7.405-4.532,11.185-2.719,6.916-2.23,16.741,3.453,21.98" transform="translate(-197.173 -91.25)"/><path class="l" d="M414,254.731c3.055-2.719,6.218-5.592,7.849-9.426a26.731,26.731,0,0,0,1.641-6.7c.335-2.248.616-4.532.861-6.762a2.873,2.873,0,0,0-.444-2.339,1.713,1.713,0,0,0-1.922-.227,4.415,4.415,0,0,0-1.523,1.4,18.483,18.483,0,0,0-2.719,5.185c-.671,1.949-1.024,4.052-2.094,5.792-.091.154-.19.3-.29.444" transform="translate(-200.383 -92.513)"/><path class="l" d="M419.4,229.816c1.813-5.221,2.33-11.2,2.32-16.75a3.77,3.77,0,0,0-3.381,1.26,11.238,11.238,0,0,0-1.994,3.272c-2.52,5.574-4.6,11.421-7.523,16.741" transform="translate(-199.898 -91.01)"/><path class="l" d="M418.355,213.3a2.612,2.612,0,0,0-3.535-1.169A7.006,7.006,0,0,0,412,215.215c-3.1,5.384-4.958,11.457-7.831,16.959" transform="translate(-199.463 -90.902)"/><path class="l" d="M411.061,214.6c.254-1.278-1.214-2.357-2.456-2.139a5.067,5.067,0,0,0-2.955,2.293c-2.529,3.453-4.124,7.532-6.345,11.194s-4.2,6.644-8.275,7.5" transform="translate(-198.233 -90.954)"/><path class="l" d="M385.26,257.582s2.447,14.5,4.641,22.415c2.139,7.677,19.542,32.938,46.806,17.684a6.78,6.78,0,0,0,3.327-4.668A16.931,16.931,0,0,0,437.079,280C431.214,271.585,419,259.621,416.3,251.98" transform="translate(-197.693 -94.656)"/><path class="l" d="M415.09,256.83a29.2,29.2,0,0,0,5.3,8.955c2.764,3.172,6.163,5.665,9.118,8.656s5.529,6.7,5.937,10.967" transform="translate(-200.485 -95.11)"/><path class="l" d="M389.563,284.94s-.653,14.7-11.783,19.143" transform="translate(-196.993 -97.741)"/><path class="l" d="M382.79,302.91s14.4,24.754,7.84,49.707" transform="translate(-197.462 -99.423)"/><path class="l" d="M183.028,179.84s-1.6-4.4.906-6.055,15.173,12.037,18.572,11.783" transform="translate(-178.715 -87.323)"/><path class="l" d="M185.2,173.373a2.946,2.946,0,0,1,1.5-3.626,4.423,4.423,0,0,1,4.061.4,14.955,14.955,0,0,1,3.218,2.846c4.287,4.532,8.611,8.475,14.7,9.127" transform="translate(-178.95 -86.928)"/><path class="l" d="M209.332,181.176s-11.6-11.23-10.786-17.376,8.529,9.064,16.052,12.073" transform="translate(-180.211 -86.266)"/><path class="h" d="M229.315,181.754c-.417-1.341-.988-2.828-1.3-4.269-.489-2.32-.734-4.7-1.033-7.052-.208-1.641-.571-8.411-3.626-6.508-4.822,3.018-3.372,20.095-3.372,20.095C214.205,187.537,213,195.8,213,195.8" transform="translate(-181.568 -86.382)"/><path class="a" d="M229.315,181.809a23.7,23.7,0,0,1-1.3-4.405c-.489-2.329-.734-4.7-1.033-7.061-.208-1.641-.571-8.411-3.626-6.508-4.822,3.018-3.372,20.095-3.372,20.095-5.783,3.517-6.988,11.783-6.988,11.783" transform="translate(-181.568 -86.374)"/><path class="l" d="M229.395,180.861a19.387,19.387,0,0,1-1.378-3.916c-.5-2.32-.734-4.7-1.042-7.052-.208-1.641-.562-8.411-3.626-6.508-4.822,3.018-3.381,20.095-3.381,20.095-5.783,3.517-6.988,11.783-6.988,11.783" transform="translate(-181.566 -86.331)"/><path class="l" d="M276.969,261.946c-2.311-8.439-26.023-25.5-33.718-43-2.139-4.867-3.3-10.251-4.731-15.363a182.321,182.321,0,0,0-6.345-18.336c-.353-.906-.743-1.722-1.115-2.547" transform="translate(-183.259 -88.171)"/><path class="i" d="M438.442,294.835c-3.19,2.094-9.4,5.629-15.309,5.855a47.791,47.791,0,0,1-5.157-3.762c-10.351-8.647-17.611-22.016-16.94-35.821a17.412,17.412,0,0,1,2.311-8.593c2.511-3.943,7.034-5.756,9.78-9.454,3.136-4.233,3.118-9.97,6.707-14.122v.363s3.281-2.465,3.281,3.045-1.894,15.472-9.01,21.491c0,0,3.762,9.164,9.544,13.986a7.5,7.5,0,0,1,4.586-2.937s7.142,8.611,9.789,11.711c2.139,2.5,4.07,8.3,3.49,13.342A6.762,6.762,0,0,1,438.442,294.835Z" transform="translate(-199.165 -92.482)"/><path class="j" d="M269.21,251.4c0-.634,12.436-13.841,15.662-27.727,0,0-.308,13.741-.48,16.007v.653c.263,7.451,1.015,8.756,1.015,8.756s-4.65,10.732-4.65,14.729Z" transform="translate(-186.83 -92.006)"/><path class="b" d="M336.863,353.408c1.65-4.9,3.055-31.624-.471-35.793s-69.548-5.91-71.533.5c-2.42,7.831,1.568,35.25,1.568,35.25Z" transform="translate(-186.35 -100.45)"/><path class="p" d="M343.866,331.16a7.559,7.559,0,0,1,8.475-2.094c3.326,1.341,3.626,6.027,2.719,9.145-1.387,4.858-5.728,11.638-11.33,10.877" transform="translate(-193.805 -101.823)"/><path class="l" d="M301.632,311.985a6.535,6.535,0,0,0,1.813-4.65,11.783,11.783,0,0,0-1.45-6.082,16.9,16.9,0,0,0-1.622-2.375c-.634-.807-1.305-1.586-2-2.338-.082-.091-.236-.091-.29-.2s.2-.109.109-.045" transform="translate(-189.531 -98.8)"/><path class="l" d="M320.15,284.249A18.645,18.645,0,0,0,327.5,266.62" transform="translate(-191.598 -96.026)"/><path class="l" d="M325.908,254.3s-2.592-7.251-8.158-10.587" transform="translate(-191.373 -93.882)"/><path class="q" d="M337.053,353.508c1.641-4.9,3.055-31.624-.471-35.793s-69.548-5.91-71.533.49c-2.429,7.831,1.568,35.259,1.568,35.259Z" transform="translate(-186.367 -100.46)"/><path class="l" d="M336.863,353.408c1.65-4.9,3.055-31.624-.471-35.793s-69.548-5.91-71.533.5c-2.42,7.831,1.568,35.25,1.568,35.25Z" transform="translate(-186.35 -100.45)"/><path class="b" d="M333.145,318.3c0,.544-14.43.988-32.222.988s-32.222-.444-32.222-.988,14.421-.988,32.222-.988S333.145,317.754,333.145,318.3Z" transform="translate(-186.782 -100.771)"/><path class="m" d="M314.32,255.89a9.445,9.445,0,0,1,4.786,7.686,9.59,9.59,0,0,1-3.888,8.212c-3.326,2.338-7.659,2.085-11.638,2.647s-8.484,2.837-8.91,7a8.955,8.955,0,0,0,1.931,5.892c1.967,2.819,4.659,4.994,7.061,7.423s4.613,5.321,5.2,8.747-.906,7.469-4.106,8.611c1.976,0,4,.19,5.973.19,3.9,0,5.293-6.245,4.922-10.288a15.183,15.183,0,0,0-5.783-10.2c-1.559-1.26-3.354-2.275-4.6-3.879s-1.749-4.1-.489-5.683c1.577-1.976,4.532-1.314,7.015-1.487,5.176-.363,9.318-5.547,9.6-10.94S318.535,259.053,314.32,255.89Z" transform="translate(-189.212 -95.022)"/></g><g transform="translate(389.53 110.559)"><rect class="b" width="56.486" height="5.611" transform="translate(113.372 15.345)"/><rect class="b" width="56.486" height="5.611" transform="translate(113.372 26.195)"/><rect class="b" width="56.486" height="5.611" transform="translate(113.372 37.044)"/><rect class="j" width="98.96" height="61.916" rx="8.91" transform="translate(0 4.768)"/><rect class="f" width="98.96" height="61.916" rx="8.91" transform="translate(6.589)"/><circle class="h" cx="20.947" cy="20.947" r="20.947" transform="translate(35.168 10.297)"/><path class="b" d="M480.49,164.441V141.31l18.382,11.566Z" transform="translate(-430.321 -121.097)"/><rect class="b" width="56.486" height="5.611" transform="translate(113.372 97.319)"/><rect class="b" width="56.486" height="5.611" transform="translate(113.372 108.16)"/><rect class="b" width="56.486" height="5.611" transform="translate(113.372 119.009)"/><rect class="j" width="98.96" height="61.916" rx="8.91" transform="translate(0 85.11)"/><rect class="f" width="98.96" height="61.916" rx="8.91" transform="translate(6.589 80.687)"/><circle class="h" cx="20.947" cy="20.947" r="20.947" transform="translate(28.811 100.638) rotate(-22.17)"/><path class="b" d="M480.49,253.691V230.56l18.382,11.566Z" transform="translate(-430.321 -129.452)"/><rect class="b" width="56.486" height="5.611" transform="translate(113.372 177.399)"/><rect class="b" width="56.486" height="5.611" transform="translate(113.372 188.249)"/><rect class="b" width="56.486" height="5.611" transform="translate(113.372 199.098)"/><rect class="j" width="98.96" height="61.916" rx="8.91" transform="translate(0 164.982)"/><rect class="f" width="98.96" height="61.916" rx="8.91" transform="translate(6.589 161.383)"/><circle class="h" cx="20.947" cy="20.947" r="20.947" transform="translate(28.77 181.649) rotate(-22.33)"/><path class="b" d="M480.49,342.95V319.81l18.382,11.566Z" transform="translate(-430.321 -137.806)"/></g></g></svg>